<?xml version="1.0" encoding="utf-8"?>
<!-- Generator: Adobe Illustrator 28.0.0, SVG Export Plug-In . SVG Version: 6.00 Build 0)  -->
<svg version="1.1" id="Layer_1" xmlns="http://www.w3.org/2000/svg" xmlns:xlink="http://www.w3.org/1999/xlink" x="0px" y="0px"
	 viewBox="0 0 95.745 85.787" enable-background="new 0 0 95.745 85.787" xml:space="preserve">
<g>
	<path d="M86.326,42.905c0.046,21.097-17.112,38.329-38.226,38.447C26.801,81.471,9.528,64.218,9.419,43.105
		C9.307,21.776,26.636,4.433,47.876,4.434C69.086,4.434,86.384,21.705,86.326,42.905 M84.9,42.893
		C84.917,22.817,68.876,6.325,48.716,5.877C28.068,5.419,11.124,21.832,10.855,42.402C10.584,62.996,27.08,79.803,47.68,79.918
		C68.28,80.033,84.912,63.365,84.9,42.893"/>
	<path d="M73.691,42.945c-0.073,14.214-11.577,25.875-26.07,25.75c-14.047-0.123-25.586-11.548-25.544-25.877
		c0.042-14.289,11.609-25.745,25.838-25.727C62.226,17.11,73.679,28.722,73.691,42.945 M72.226,42.904
		c0.047-13.464-10.909-24.316-24.25-24.37C34.509,18.48,23.537,29.42,23.519,42.852c-0.02,13.396,10.831,24.322,24.233,24.402
		C61.143,67.331,72.272,56.427,72.226,42.904"/>
	<g>
		<path d="M17.186,28.201l4.973,2.414l-0.341,0.703l-4.354-2.113l-0.545,1.122l-0.618-0.3L17.186,28.201z"/>
	</g>
	<g>
		<path d="M23.005,28.897c-0.373,0.162-0.791,0.208-1.254,0.139c-0.464-0.069-0.94-0.265-1.431-0.583
			c-0.488-0.318-0.859-0.677-1.109-1.072c-0.251-0.396-0.378-0.798-0.38-1.204s0.117-0.792,0.355-1.158
			c0.235-0.362,0.539-0.624,0.912-0.787c0.373-0.162,0.791-0.208,1.255-0.139c0.463,0.069,0.939,0.265,1.429,0.583
			c0.489,0.319,0.86,0.677,1.111,1.073c0.25,0.396,0.377,0.797,0.379,1.203c0.002,0.407-0.115,0.791-0.351,1.152
			C23.684,28.47,23.378,28.735,23.005,28.897z M23.457,26.534c-0.16-0.421-0.527-0.82-1.105-1.196
			c-0.577-0.377-1.092-0.553-1.541-0.528s-0.795,0.222-1.036,0.592c-0.244,0.375-0.286,0.773-0.128,1.194
			c0.159,0.421,0.528,0.819,1.105,1.196c0.578,0.376,1.091,0.553,1.541,0.528c0.449-0.024,0.796-0.225,1.04-0.6
			C23.574,27.35,23.615,26.954,23.457,26.534z"/>
	</g>
	<g>
		<path d="M25.632,24.962c-0.394,0.1-0.814,0.078-1.259-0.066c-0.447-0.145-0.885-0.412-1.317-0.808
			c-0.431-0.394-0.738-0.808-0.921-1.238c-0.184-0.432-0.242-0.848-0.18-1.25c0.064-0.401,0.244-0.764,0.539-1.086
			c0.291-0.318,0.634-0.527,1.027-0.627c0.396-0.099,0.814-0.077,1.261,0.066s0.885,0.414,1.315,0.808
			c0.433,0.396,0.739,0.807,0.923,1.238c0.182,0.433,0.242,0.848,0.178,1.25c-0.063,0.401-0.241,0.762-0.532,1.08
			C26.371,24.652,26.026,24.863,25.632,24.962z M26.462,22.703c-0.09-0.441-0.388-0.895-0.897-1.36
			c-0.509-0.465-0.986-0.722-1.434-0.771s-0.82,0.09-1.119,0.416c-0.302,0.33-0.408,0.716-0.319,1.157s0.387,0.895,0.896,1.359
			c0.51,0.466,0.987,0.723,1.436,0.771c0.446,0.05,0.822-0.092,1.124-0.422C26.446,23.529,26.55,23.146,26.462,22.703z"/>
	</g>
	<g>
		<path d="M26.568,19.896c-0.357-0.08-0.67-0.3-0.938-0.657c-0.269-0.358-0.392-0.72-0.37-1.086
			c0.022-0.364,0.188-0.662,0.494-0.893c0.308-0.23,0.638-0.307,0.991-0.226c0.353,0.08,0.666,0.302,0.937,0.664
			c0.272,0.362,0.397,0.724,0.376,1.086c-0.021,0.361-0.187,0.657-0.493,0.888C27.256,19.903,26.925,19.978,26.568,19.896z
			 M27.581,18.747c-0.003-0.232-0.104-0.48-0.303-0.746s-0.409-0.432-0.631-0.498c-0.222-0.068-0.429-0.029-0.622,0.116
			c-0.189,0.142-0.284,0.331-0.281,0.566c0.002,0.235,0.101,0.482,0.296,0.744c0.196,0.261,0.406,0.425,0.632,0.493
			s0.434,0.031,0.623-0.11C27.488,19.167,27.584,18.979,27.581,18.747z M28.448,15.297l0.486-0.364l0.298,6.686l-0.486,0.365
			L28.448,15.297z M30.935,19.882c-0.354-0.081-0.666-0.302-0.938-0.664c-0.271-0.362-0.396-0.725-0.375-1.086
			c0.021-0.36,0.187-0.656,0.493-0.887c0.308-0.231,0.641-0.307,0.996-0.226c0.357,0.081,0.671,0.3,0.938,0.659
			c0.269,0.357,0.393,0.719,0.37,1.085c-0.021,0.364-0.187,0.663-0.494,0.894C31.619,19.889,31.288,19.963,30.935,19.882z
			 M31.937,18.732c-0.003-0.235-0.102-0.483-0.298-0.745c-0.195-0.261-0.406-0.426-0.632-0.493
			c-0.225-0.068-0.432-0.031-0.621,0.111c-0.194,0.145-0.289,0.334-0.287,0.565s0.104,0.48,0.302,0.745
			c0.2,0.266,0.41,0.432,0.632,0.499c0.221,0.067,0.429,0.028,0.623-0.116C31.846,19.156,31.939,18.966,31.937,18.732z"/>
	</g>
	<g>
		<path d="M36.67,11.81c0.509,0.161,0.877,0.521,1.104,1.075c0.228,0.556,0.215,1.069-0.035,1.541
			c-0.25,0.473-0.707,0.845-1.37,1.115l-1.265,0.517l0.633,1.549l-0.73,0.298l-2.09-5.116l1.995-0.814
			C35.574,11.703,36.16,11.649,36.67,11.81z M37.025,14.185c0.163-0.297,0.169-0.63,0.018-1.001
			c-0.151-0.37-0.389-0.604-0.713-0.702c-0.325-0.098-0.719-0.053-1.182,0.137l-1.242,0.508l0.938,2.295l1.242-0.507
			C36.549,14.725,36.861,14.482,37.025,14.185z"/>
	</g>
	<g>
		<path d="M42.846,11.156l0.891,4.089l-0.703,0.153l-0.135-0.617c-0.103,0.243-0.264,0.449-0.482,0.618
			c-0.22,0.169-0.473,0.285-0.761,0.348c-0.546,0.119-1.008,0.062-1.387-0.171c-0.38-0.233-0.633-0.643-0.761-1.229l-0.512-2.354
			l0.74-0.161l0.494,2.269c0.086,0.396,0.246,0.675,0.48,0.836c0.234,0.162,0.529,0.204,0.885,0.127
			c0.391-0.085,0.673-0.271,0.849-0.557c0.175-0.286,0.214-0.645,0.12-1.077l-0.46-2.113L42.846,11.156z"/>
	</g>
	<g>
		<path d="M45.622,11.059c0.246-0.147,0.554-0.235,0.921-0.266l0.061,0.731c-0.043-0.001-0.101,0-0.174,0.007
			c-0.409,0.033-0.72,0.183-0.934,0.445c-0.213,0.264-0.302,0.621-0.265,1.071l0.172,2.078l-0.755,0.062l-0.345-4.171l0.724-0.06
			l0.059,0.7C45.196,11.407,45.376,11.206,45.622,11.059z"/>
	</g>
	<g>
		<path d="M51.147,13.243l-3.392-0.124c0.033,0.37,0.184,0.672,0.451,0.906c0.269,0.233,0.608,0.357,1.019,0.372
			c0.499,0.019,0.908-0.135,1.226-0.461l0.401,0.505c-0.198,0.214-0.44,0.374-0.726,0.479c-0.286,0.105-0.603,0.151-0.949,0.139
			c-0.442-0.016-0.831-0.121-1.167-0.314c-0.334-0.194-0.589-0.458-0.764-0.79c-0.176-0.334-0.255-0.705-0.24-1.115
			c0.015-0.405,0.119-0.768,0.312-1.087c0.192-0.319,0.451-0.564,0.776-0.734s0.688-0.247,1.087-0.233
			c0.399,0.015,0.753,0.119,1.06,0.312c0.306,0.193,0.542,0.456,0.707,0.788c0.163,0.333,0.238,0.71,0.223,1.13
			C51.17,13.073,51.161,13.148,51.147,13.243z M48.235,11.722c-0.251,0.213-0.405,0.496-0.46,0.853l2.683,0.098
			c-0.029-0.354-0.162-0.646-0.399-0.88c-0.237-0.232-0.536-0.355-0.898-0.368C48.797,11.411,48.488,11.51,48.235,11.722z"/>
	</g>
	<g>
		<path d="M54.328,15.429c-0.363-0.358-0.609-0.779-0.737-1.264c-0.127-0.485-0.118-0.984,0.026-1.495
			c0.146-0.511,0.4-0.939,0.764-1.286c0.363-0.345,0.794-0.574,1.291-0.688c0.498-0.113,1.014-0.094,1.551,0.059
			c0.532,0.151,0.979,0.406,1.344,0.764c0.362,0.357,0.608,0.777,0.733,1.259c0.126,0.481,0.116,0.981-0.031,1.498
			c-0.146,0.517-0.4,0.946-0.761,1.29c-0.359,0.343-0.789,0.571-1.286,0.685c-0.497,0.114-1.011,0.095-1.544-0.057
			C55.141,16.041,54.692,15.787,54.328,15.429z M56.998,15.551c0.361-0.089,0.677-0.263,0.945-0.523
			c0.268-0.261,0.456-0.583,0.565-0.968s0.118-0.759,0.027-1.121c-0.091-0.363-0.268-0.677-0.528-0.942
			c-0.262-0.266-0.586-0.454-0.977-0.565c-0.39-0.11-0.769-0.122-1.136-0.034c-0.366,0.087-0.684,0.261-0.952,0.521
			c-0.268,0.261-0.457,0.583-0.566,0.968s-0.118,0.758-0.027,1.121c0.092,0.362,0.271,0.677,0.536,0.944
			c0.267,0.267,0.595,0.456,0.984,0.566C56.261,15.628,56.636,15.64,56.998,15.551z"/>
	</g>
	<g>
		<path d="M61.97,13.995c0.288-0.008,0.598,0.066,0.933,0.221l-0.307,0.666c-0.035-0.021-0.087-0.048-0.154-0.079
			c-0.372-0.171-0.717-0.195-1.031-0.07c-0.315,0.125-0.567,0.393-0.756,0.804l-0.871,1.895l-0.689-0.316l1.748-3.803l0.66,0.304
			l-0.294,0.639C61.429,14.088,61.683,14.002,61.97,13.995z"/>
	</g>
	<g>
		<path d="M67.053,16.799l-1.924,3.062c-0.39,0.62-0.831,0.981-1.325,1.085c-0.494,0.103-1.046-0.038-1.655-0.421
			c-0.335-0.211-0.625-0.456-0.871-0.738c-0.245-0.281-0.408-0.566-0.489-0.853l0.618-0.302c0.075,0.246,0.209,0.486,0.4,0.722
			c0.19,0.235,0.415,0.434,0.673,0.596c0.415,0.261,0.783,0.355,1.105,0.284c0.321-0.071,0.608-0.308,0.86-0.709l0.177-0.28
			c-0.268,0.087-0.54,0.106-0.817,0.06c-0.278-0.047-0.546-0.151-0.805-0.314c-0.339-0.213-0.6-0.478-0.782-0.795
			c-0.184-0.316-0.271-0.655-0.264-1.014s0.117-0.705,0.327-1.039c0.211-0.334,0.475-0.583,0.795-0.746s0.661-0.229,1.025-0.199
			c0.363,0.029,0.715,0.15,1.054,0.363c0.268,0.168,0.484,0.373,0.652,0.615c0.169,0.243,0.266,0.506,0.292,0.79l0.345-0.548
			L67.053,16.799z M64.143,18.72c0.247,0.019,0.478-0.028,0.692-0.139c0.217-0.109,0.394-0.275,0.533-0.499
			c0.216-0.343,0.276-0.692,0.183-1.046c-0.094-0.354-0.319-0.645-0.677-0.869c-0.36-0.227-0.722-0.305-1.081-0.236
			c-0.36,0.068-0.648,0.275-0.864,0.618c-0.14,0.223-0.213,0.455-0.219,0.697c-0.007,0.241,0.053,0.47,0.176,0.684
			c0.124,0.215,0.304,0.396,0.539,0.544C63.658,18.62,63.897,18.703,64.143,18.72z"/>
	</g>
	<g>
		<path d="M70.211,20.093c0.045,0.417-0.118,0.837-0.49,1.261l-1.665,1.899l-0.54-0.474l0.364-0.415
			c-0.225,0.062-0.457,0.056-0.701-0.021s-0.486-0.222-0.728-0.434c-0.353-0.309-0.561-0.641-0.622-0.996
			c-0.063-0.357,0.026-0.674,0.27-0.95c0.243-0.277,0.54-0.411,0.89-0.401c0.349,0.008,0.742,0.204,1.182,0.59l0.902,0.791
			l0.1-0.112c0.215-0.245,0.309-0.496,0.28-0.752c-0.028-0.255-0.18-0.504-0.457-0.747c-0.187-0.163-0.396-0.292-0.628-0.387
			c-0.231-0.095-0.454-0.145-0.666-0.149l0.138-0.636c0.275,0.012,0.558,0.082,0.844,0.21c0.286,0.129,0.556,0.304,0.81,0.526
			C69.927,19.278,70.167,19.676,70.211,20.093z M67.622,21.903c0.244,0.042,0.479,0.005,0.706-0.11l0.386-0.439l-0.878-0.771
			c-0.483-0.423-0.868-0.473-1.153-0.148c-0.139,0.158-0.186,0.337-0.143,0.535c0.043,0.199,0.173,0.394,0.391,0.584
			C67.148,21.745,67.38,21.861,67.622,21.903z"/>
	</g>
	<g>
		<path d="M73.745,24.021c-0.036,0.438-0.282,0.847-0.739,1.228l-1.851,1.541l-0.485-0.583l1.783-1.485
			c0.312-0.259,0.483-0.529,0.517-0.811s-0.066-0.562-0.299-0.84c-0.263-0.315-0.562-0.487-0.897-0.517
			c-0.336-0.029-0.675,0.101-1.019,0.387l-1.656,1.379l-0.485-0.582l3.215-2.678l0.465,0.559l-0.485,0.404
			c0.264-0.021,0.522,0.031,0.779,0.157c0.256,0.126,0.489,0.316,0.701,0.571C73.628,23.16,73.781,23.583,73.745,24.021z"/>
	</g>
	<g>
		<path d="M75.264,25.398l0.415,0.633l-3.503,2.291l-0.414-0.634L75.264,25.398z M76.063,24.888c0.025-0.134,0.096-0.238,0.21-0.312
			c0.115-0.075,0.239-0.098,0.375-0.069c0.135,0.028,0.242,0.104,0.322,0.228c0.081,0.123,0.109,0.251,0.086,0.383
			c-0.024,0.131-0.094,0.234-0.208,0.31c-0.119,0.077-0.246,0.103-0.38,0.074c-0.136-0.027-0.242-0.104-0.324-0.227
			C76.064,25.15,76.037,25.023,76.063,24.888z"/>
	</g>
	<g>
		<path d="M73.131,29.593c0.01-0.381,0.113-0.73,0.314-1.048c0.199-0.317,0.48-0.57,0.846-0.76c0.363-0.189,0.734-0.274,1.108-0.256
			s0.72,0.134,1.034,0.347c0.315,0.213,0.572,0.509,0.768,0.887c0.176,0.337,0.264,0.672,0.266,1.006s-0.088,0.642-0.27,0.92
			l-0.596-0.341c0.117-0.209,0.176-0.424,0.174-0.643c-0.001-0.219-0.057-0.434-0.166-0.644c-0.126-0.243-0.293-0.433-0.502-0.571
			c-0.207-0.138-0.439-0.21-0.695-0.217s-0.512,0.057-0.768,0.19c-0.262,0.136-0.464,0.311-0.605,0.523s-0.215,0.445-0.223,0.694
			c-0.006,0.25,0.054,0.495,0.18,0.739c0.109,0.209,0.254,0.378,0.432,0.504c0.18,0.127,0.388,0.203,0.626,0.228l-0.057,0.679
			c-0.332-0.01-0.636-0.113-0.911-0.305c-0.274-0.192-0.499-0.456-0.674-0.793C73.215,30.356,73.121,29.975,73.131,29.593z"/>
	</g>
	<g>
		<path d="M22.924,56.131L17.93,58.5l-0.335-0.707l4.373-2.075l-0.534-1.125l0.62-0.295L22.924,56.131z"/>
	</g>
	<g>
		<path d="M19.302,60.589c0.005-0.407,0.135-0.807,0.388-1.201c0.254-0.394,0.627-0.748,1.119-1.063s0.97-0.507,1.434-0.573
			c0.465-0.065,0.882-0.017,1.254,0.148c0.371,0.165,0.675,0.432,0.91,0.799c0.233,0.363,0.348,0.749,0.343,1.156
			c-0.006,0.406-0.136,0.806-0.389,1.201c-0.254,0.393-0.626,0.748-1.118,1.063s-0.971,0.506-1.434,0.573
			c-0.465,0.064-0.883,0.016-1.254-0.148c-0.372-0.166-0.674-0.431-0.907-0.794C19.412,61.383,19.297,60.995,19.302,60.589z
			 M21.271,61.972c0.449,0.027,0.964-0.146,1.544-0.518c0.581-0.373,0.952-0.768,1.114-1.188s0.124-0.816-0.114-1.188
			c-0.242-0.377-0.587-0.579-1.036-0.606s-0.964,0.145-1.545,0.518c-0.58,0.372-0.951,0.768-1.113,1.188
			c-0.163,0.419-0.124,0.816,0.118,1.193C20.477,61.744,20.822,61.944,21.271,61.972z"/>
	</g>
	<g>
		<path d="M22.476,64.951c-0.062-0.402,0.001-0.818,0.187-1.248c0.186-0.431,0.495-0.842,0.929-1.233s0.874-0.658,1.321-0.8
			c0.447-0.141,0.867-0.16,1.261-0.059s0.737,0.315,1.029,0.64c0.289,0.32,0.465,0.681,0.527,1.083
			c0.062,0.402-0.001,0.818-0.187,1.248c-0.187,0.431-0.496,0.842-0.93,1.233s-0.874,0.658-1.32,0.8
			c-0.447,0.141-0.867,0.16-1.261,0.059c-0.395-0.102-0.736-0.313-1.025-0.634C22.717,65.715,22.538,65.353,22.476,64.951z
			 M24.646,65.992c0.447-0.046,0.927-0.301,1.438-0.763s0.813-0.914,0.905-1.354c0.091-0.44-0.012-0.825-0.309-1.153
			c-0.3-0.332-0.674-0.475-1.121-0.429s-0.927,0.301-1.438,0.763s-0.813,0.914-0.905,1.354s0.013,0.827,0.312,1.159
			C23.826,65.897,24.198,66.037,24.646,65.992z"/>
	</g>
	<g>
		<path d="M32.31,67.06l0.484,0.368l-6.349,2.118l-0.484-0.368L32.31,67.06z M27.373,66.512c-0.021-0.366,0.104-0.727,0.376-1.083
			c0.271-0.355,0.585-0.574,0.942-0.652c0.357-0.079,0.689-0.002,0.995,0.23s0.468,0.529,0.487,0.892
			c0.02,0.361-0.107,0.723-0.381,1.083c-0.274,0.36-0.589,0.58-0.942,0.658s-0.683,0.001-0.989-0.231
			C27.557,67.176,27.393,66.877,27.373,66.512z M28.756,67.171c0.223-0.066,0.433-0.231,0.634-0.495
			c0.2-0.265,0.304-0.512,0.307-0.743c0.005-0.232-0.09-0.421-0.282-0.567c-0.189-0.144-0.396-0.182-0.622-0.115
			c-0.225,0.066-0.437,0.229-0.634,0.489c-0.198,0.26-0.298,0.508-0.303,0.743c-0.003,0.235,0.089,0.425,0.278,0.567
			C28.326,67.198,28.534,67.237,28.756,67.171z M28.583,70.708c-0.021-0.362,0.107-0.723,0.382-1.084
			c0.273-0.36,0.587-0.579,0.941-0.657c0.354-0.079,0.683-0.002,0.989,0.23c0.306,0.232,0.468,0.531,0.489,0.896
			c0.019,0.365-0.105,0.728-0.376,1.083c-0.271,0.356-0.587,0.573-0.942,0.652c-0.358,0.079-0.689,0.003-0.996-0.229
			C28.764,71.367,28.602,71.07,28.583,70.708z M29.964,71.356c0.227-0.066,0.438-0.229,0.636-0.489
			c0.197-0.26,0.298-0.508,0.301-0.743s-0.089-0.424-0.277-0.567c-0.192-0.146-0.4-0.187-0.622-0.12
			c-0.223,0.065-0.434,0.23-0.634,0.494c-0.201,0.265-0.304,0.512-0.307,0.744c-0.005,0.231,0.09,0.421,0.282,0.567
			C29.531,71.384,29.738,71.422,29.964,71.356z"/>
	</g>
	<g>
		<path d="M38.644,70.528c0.249,0.474,0.258,0.987,0.028,1.542c-0.229,0.554-0.599,0.911-1.109,1.07
			c-0.51,0.158-1.096,0.102-1.758-0.173l-1.262-0.522l-0.641,1.547l-0.729-0.302l2.114-5.106l1.991,0.824
			C37.941,69.681,38.396,70.055,38.644,70.528z M37.227,72.466c0.325-0.096,0.564-0.329,0.717-0.699
			c0.153-0.369,0.148-0.703-0.013-1.001c-0.162-0.297-0.474-0.542-0.936-0.733l-1.24-0.514l-0.948,2.291l1.24,0.514
			C36.509,72.515,36.902,72.563,37.227,72.466z"/>
	</g>
	<g>
		<path d="M43.48,72.841l-0.903,4.086l-0.702-0.155l0.137-0.616c-0.195,0.178-0.428,0.297-0.697,0.359
			c-0.27,0.062-0.549,0.061-0.837-0.004c-0.545-0.12-0.94-0.365-1.188-0.735s-0.307-0.848-0.177-1.434l0.52-2.352l0.741,0.164
			l-0.501,2.267c-0.088,0.396-0.06,0.716,0.087,0.961c0.145,0.245,0.395,0.406,0.749,0.485c0.391,0.086,0.726,0.036,1.003-0.15
			c0.279-0.187,0.466-0.495,0.562-0.928l0.467-2.112L43.48,72.841z"/>
	</g>
	<g>
		<path d="M45.806,73.052c0.268-0.104,0.586-0.141,0.953-0.109l-0.062,0.731c-0.042-0.009-0.1-0.017-0.174-0.023
			c-0.408-0.034-0.739,0.062-0.993,0.285c-0.254,0.225-0.4,0.562-0.438,1.014l-0.174,2.077l-0.756-0.063l0.351-4.17l0.724,0.061
			l-0.059,0.7C45.329,73.324,45.539,73.157,45.806,73.052z"/>
	</g>
	<g>
		<path d="M50.971,75.166l-3.393,0.118c0.06,0.367,0.231,0.656,0.516,0.871c0.284,0.214,0.631,0.312,1.041,0.299
			c0.5-0.018,0.896-0.199,1.189-0.547l0.437,0.475c-0.182,0.229-0.412,0.404-0.688,0.53c-0.277,0.125-0.59,0.194-0.938,0.207
			c-0.442,0.015-0.837-0.062-1.186-0.231c-0.348-0.17-0.621-0.415-0.819-0.735c-0.199-0.319-0.304-0.684-0.317-1.095
			c-0.015-0.405,0.062-0.773,0.233-1.105c0.169-0.333,0.41-0.596,0.723-0.789c0.312-0.192,0.668-0.296,1.067-0.31
			c0.4-0.014,0.76,0.064,1.079,0.235c0.318,0.171,0.572,0.416,0.761,0.737c0.187,0.318,0.289,0.689,0.304,1.11
			C50.981,74.995,50.977,75.071,50.971,75.166z M47.958,73.858c-0.236,0.229-0.37,0.522-0.399,0.882l2.683-0.094
			c-0.055-0.351-0.208-0.633-0.46-0.848c-0.253-0.216-0.561-0.317-0.924-0.305S48.195,73.628,47.958,73.858z"/>
	</g>
	<g>
		<path d="M55.599,75.934c-0.497-0.113-0.927-0.343-1.291-0.688c-0.364-0.346-0.618-0.773-0.763-1.286
			c-0.146-0.511-0.154-1.009-0.026-1.493c0.128-0.485,0.373-0.907,0.736-1.265c0.364-0.357,0.813-0.613,1.351-0.766
			c0.532-0.151,1.047-0.17,1.543-0.057c0.497,0.113,0.926,0.341,1.287,0.687c0.359,0.343,0.613,0.772,0.76,1.288
			c0.147,0.518,0.157,1.018,0.031,1.499c-0.126,0.48-0.371,0.9-0.734,1.258c-0.363,0.358-0.811,0.612-1.342,0.764
			C56.613,76.028,56.096,76.047,55.599,75.934z M57.935,74.634c0.261-0.265,0.438-0.58,0.528-0.941
			c0.091-0.362,0.082-0.736-0.027-1.121c-0.108-0.385-0.298-0.707-0.566-0.968c-0.268-0.261-0.583-0.435-0.944-0.524
			c-0.361-0.088-0.737-0.077-1.127,0.033c-0.391,0.11-0.718,0.3-0.984,0.566c-0.267,0.268-0.445,0.582-0.536,0.945
			c-0.092,0.362-0.082,0.736,0.027,1.12c0.109,0.386,0.297,0.708,0.565,0.969c0.269,0.259,0.586,0.434,0.953,0.521
			c0.366,0.088,0.745,0.076,1.135-0.034S57.674,74.901,57.935,74.634z"/>
	</g>
	<g>
		<path d="M60.428,70.196c0.181-0.223,0.438-0.411,0.773-0.565l0.308,0.667c-0.04,0.013-0.095,0.035-0.161,0.065
			c-0.373,0.172-0.613,0.419-0.725,0.738c-0.109,0.321-0.07,0.687,0.119,1.097l0.873,1.894l-0.688,0.317l-1.753-3.8l0.659-0.304
			l0.295,0.638C60.146,70.668,60.246,70.419,60.428,70.196z"/>
	</g>
	<g>
		<path d="M65.164,67.502l1.934,3.056c0.391,0.618,0.527,1.173,0.406,1.662c-0.119,0.49-0.484,0.929-1.094,1.314
			c-0.333,0.211-0.68,0.366-1.04,0.466c-0.36,0.101-0.688,0.126-0.981,0.075l-0.005-0.689c0.255,0.039,0.529,0.022,0.823-0.049
			c0.295-0.071,0.571-0.188,0.829-0.351c0.414-0.262,0.657-0.554,0.731-0.874c0.074-0.321-0.015-0.682-0.268-1.082l-0.178-0.281
			c-0.036,0.278-0.135,0.533-0.298,0.763c-0.162,0.231-0.373,0.429-0.631,0.592c-0.338,0.214-0.689,0.335-1.055,0.362
			c-0.365,0.028-0.707-0.038-1.028-0.199c-0.32-0.162-0.586-0.41-0.797-0.744c-0.211-0.332-0.321-0.679-0.33-1.037
			c-0.009-0.359,0.079-0.696,0.262-1.012c0.185-0.314,0.444-0.58,0.783-0.794c0.267-0.169,0.546-0.276,0.836-0.323
			c0.291-0.047,0.571-0.021,0.839,0.077l-0.347-0.547L65.164,67.502z M65.643,70.954c0.122-0.213,0.181-0.442,0.174-0.685
			c-0.006-0.241-0.08-0.474-0.221-0.696c-0.217-0.342-0.505-0.547-0.865-0.615c-0.36-0.067-0.719,0.012-1.075,0.236
			c-0.36,0.229-0.587,0.52-0.68,0.874c-0.094,0.355-0.032,0.703,0.185,1.045c0.141,0.224,0.319,0.389,0.534,0.499
			c0.217,0.109,0.447,0.155,0.693,0.136c0.247-0.019,0.488-0.103,0.724-0.252C65.344,71.351,65.521,71.17,65.643,70.954z"/>
	</g>
	<g>
		<path d="M68.473,65.19c0.419,0.01,0.814,0.226,1.188,0.647l1.671,1.895l-0.539,0.476l-0.365-0.414
			c0.034,0.23-0.003,0.461-0.11,0.692c-0.108,0.231-0.282,0.454-0.523,0.667c-0.351,0.31-0.706,0.473-1.068,0.489
			c-0.36,0.016-0.662-0.113-0.906-0.39s-0.339-0.587-0.286-0.933c0.054-0.346,0.3-0.711,0.737-1.098l0.9-0.794l-0.1-0.112
			c-0.216-0.245-0.451-0.37-0.709-0.375s-0.524,0.114-0.801,0.357c-0.186,0.164-0.34,0.355-0.463,0.573
			c-0.125,0.218-0.201,0.432-0.234,0.643l-0.612-0.217c0.047-0.273,0.152-0.544,0.316-0.812c0.165-0.268,0.372-0.513,0.625-0.736
			C67.626,65.367,68.054,65.181,68.473,65.19z M69.935,67.989c0.073-0.236,0.066-0.474-0.02-0.714l-0.386-0.438l-0.876,0.772
			c-0.482,0.425-0.58,0.799-0.295,1.123c0.14,0.158,0.311,0.228,0.513,0.21c0.202-0.017,0.412-0.121,0.629-0.312
			C69.719,68.439,69.863,68.225,69.935,67.989z"/>
	</g>
	<g>
		<path d="M71.587,61.362c0.437-0.044,0.885,0.123,1.343,0.503l1.855,1.535l-0.483,0.584l-1.788-1.48
			c-0.312-0.258-0.61-0.378-0.893-0.359c-0.281,0.02-0.538,0.169-0.771,0.448c-0.262,0.316-0.376,0.643-0.343,0.978
			c0.034,0.335,0.223,0.646,0.567,0.932l1.66,1.374l-0.483,0.584l-3.224-2.668l0.464-0.56l0.487,0.402
			c-0.07-0.256-0.066-0.521,0.011-0.795c0.078-0.274,0.222-0.539,0.433-0.795C70.763,61.635,71.149,61.407,71.587,61.362z"/>
	</g>
	<g>
		<path d="M71.46,59.437c-0.134,0.029-0.257,0.008-0.372-0.067c-0.114-0.074-0.187-0.179-0.215-0.313
			c-0.029-0.135-0.004-0.265,0.076-0.388c0.081-0.124,0.188-0.201,0.317-0.233c0.13-0.031,0.253-0.009,0.368,0.065
			c0.118,0.077,0.191,0.184,0.221,0.318c0.028,0.135,0.003,0.264-0.078,0.387C71.697,59.329,71.592,59.407,71.46,59.437z
			 M72.247,59.962l0.413-0.636l3.51,2.279l-0.413,0.636L72.247,59.962z"/>
	</g>
	<g>
		<path d="M77.137,59.635c-0.316,0.214-0.661,0.331-1.037,0.352c-0.373,0.021-0.744-0.062-1.109-0.249s-0.648-0.438-0.851-0.755
			c-0.201-0.316-0.308-0.664-0.316-1.045c-0.01-0.38,0.082-0.76,0.276-1.14c0.173-0.337,0.396-0.604,0.667-0.799
			c0.271-0.195,0.573-0.299,0.905-0.312l0.068,0.682c-0.238,0.027-0.446,0.104-0.624,0.231s-0.32,0.297-0.428,0.508
			c-0.125,0.244-0.184,0.49-0.176,0.74c0.008,0.249,0.083,0.479,0.227,0.692c0.143,0.211,0.343,0.384,0.6,0.516
			c0.263,0.135,0.522,0.197,0.778,0.189c0.255-0.008,0.485-0.082,0.693-0.221c0.207-0.14,0.373-0.331,0.498-0.575
			c0.107-0.211,0.162-0.425,0.162-0.644c-0.001-0.22-0.06-0.433-0.178-0.641l0.586-0.348c0.183,0.276,0.276,0.584,0.279,0.918
			c0.002,0.336-0.083,0.673-0.256,1.01C77.708,59.125,77.453,59.421,77.137,59.635z"/>
	</g>
	<path d="M81.908,44.865c0,1.115-0.904,2.019-2.019,2.019c-1.114,0-2.018-0.904-2.018-2.019c0-1.115,0.904-2.019,2.018-2.019
		C81.004,42.845,81.908,43.75,81.908,44.865"/>
	<path d="M18.496,44.865c0,1.115-0.904,2.019-2.019,2.019c-1.114,0-2.018-0.904-2.018-2.019c0-1.115,0.904-2.019,2.018-2.019
		C17.592,42.845,18.496,43.75,18.496,44.865"/>
	<polygon points="47.872,26.733 51.5,37.901 63.242,37.901 53.742,44.802 57.372,55.968 47.872,49.067 38.372,55.968 42.002,44.802 
		32.502,37.901 44.244,37.901 	"/>
</g>
</svg>
