<?xml version="1.0" encoding="utf-8"?>
<!-- Generator: Adobe Illustrator 28.0.0, SVG Export Plug-In . SVG Version: 6.00 Build 0)  -->
<svg version="1.1" id="Layer_1" xmlns="http://www.w3.org/2000/svg" xmlns:xlink="http://www.w3.org/1999/xlink" x="0px" y="0px"
	 viewBox="0 0 95.745 85.787" enable-background="new 0 0 95.745 85.787" xml:space="preserve">
<g>
	<path d="M86.327,42.905c0.046,21.097-17.112,38.329-38.226,38.447C26.801,81.471,9.528,64.218,9.419,43.105
		C9.307,21.776,26.636,4.433,47.876,4.434C69.086,4.434,86.384,21.705,86.327,42.905 M84.9,42.893
		C84.917,22.817,68.876,6.325,48.716,5.877c-20.647-0.458-37.59,15.955-37.861,36.524C10.585,62.996,27.08,79.803,47.68,79.918
		C68.28,80.033,84.912,63.365,84.9,42.893"/>
	<path d="M73.691,42.945c-0.073,14.214-11.577,25.875-26.07,25.75c-14.047-0.123-25.586-11.548-25.544-25.877
		c0.042-14.289,11.609-25.745,25.838-25.727C62.226,17.11,73.679,28.722,73.691,42.945 M72.226,42.904
		c0.046-13.464-10.909-24.316-24.25-24.37C34.509,18.48,23.537,29.42,23.519,42.852c-0.02,13.396,10.831,24.322,24.233,24.402
		C61.143,67.331,72.272,56.427,72.226,42.904"/>
	<g>
		<path d="M13.787,39.841l0.1-0.783l5.483,0.697l-0.1,0.783L13.787,39.841z"/>
	</g>
	<g>
		<path d="M17.674,31.375c0.383-0.205,0.861-0.221,1.435-0.046l2.304,0.7l-0.221,0.726l-2.221-0.676
			c-0.388-0.118-0.707-0.117-0.958,0.001c-0.25,0.119-0.426,0.346-0.527,0.678c-0.111,0.367-0.087,0.695,0.077,0.98
			c0.163,0.286,0.459,0.494,0.887,0.625l2.062,0.627l-0.221,0.726l-2.221-0.676c-0.388-0.118-0.707-0.117-0.957,0.001
			c-0.251,0.12-0.427,0.346-0.527,0.678c-0.112,0.367-0.088,0.694,0.077,0.98c0.163,0.286,0.459,0.495,0.887,0.625l2.062,0.627
			l-0.221,0.727l-4.003-1.219l0.211-0.695l0.597,0.182c-0.161-0.209-0.262-0.448-0.298-0.718s-0.008-0.556,0.084-0.857
			c0.095-0.312,0.243-0.57,0.442-0.773c0.198-0.204,0.439-0.334,0.721-0.392c-0.186-0.221-0.303-0.486-0.352-0.796
			s-0.022-0.633,0.08-0.97C17.025,31.936,17.293,31.581,17.674,31.375z"/>
	</g>
	<g>
		<path d="M19.981,26.523c0.314-0.191,0.656-0.287,1.024-0.287s0.736,0.104,1.103,0.311c0.367,0.207,0.646,0.47,0.839,0.787
			c0.193,0.316,0.288,0.659,0.286,1.027c-0.001,0.367-0.102,0.728-0.301,1.081c-0.148,0.261-0.334,0.472-0.558,0.632
			c-0.225,0.161-0.476,0.263-0.753,0.305l1.884,1.064l-0.373,0.66l-4.978-2.812l0.357-0.633l0.578,0.326
			c-0.119-0.26-0.167-0.532-0.144-0.815c0.024-0.282,0.112-0.56,0.265-0.83C19.412,26.987,19.669,26.715,19.981,26.523z
			 M22.516,28.45c-0.002-0.246-0.07-0.479-0.205-0.696c-0.134-0.218-0.326-0.398-0.58-0.541c-0.25-0.142-0.505-0.214-0.761-0.217
			c-0.255-0.002-0.487,0.06-0.698,0.186c-0.21,0.127-0.381,0.307-0.513,0.54c-0.13,0.229-0.193,0.467-0.19,0.714
			c0.002,0.246,0.07,0.478,0.201,0.694c0.132,0.216,0.324,0.396,0.575,0.538c0.253,0.143,0.506,0.216,0.76,0.221
			c0.255,0.005,0.489-0.057,0.702-0.184c0.214-0.127,0.386-0.306,0.516-0.535C22.455,28.937,22.519,28.697,22.516,28.45z"/>
	</g>
	<g>
		<path d="M21.817,23.607c0.055-0.282,0.192-0.57,0.415-0.864l0.586,0.442c-0.029,0.031-0.066,0.075-0.111,0.134
			c-0.247,0.328-0.344,0.659-0.289,0.993c0.054,0.335,0.262,0.639,0.623,0.911l1.664,1.256l-0.457,0.604l-3.34-2.521l0.438-0.58
			l0.56,0.424C21.793,24.156,21.764,23.89,21.817,23.607z"/>
	</g>
	<g>
		<path d="M26.161,24.264c-0.363,0.11-0.727,0.12-1.089,0.028c-0.362-0.09-0.69-0.278-0.986-0.564
			c-0.295-0.285-0.494-0.607-0.597-0.967s-0.104-0.722-0.004-1.087c0.1-0.364,0.296-0.696,0.585-0.995s0.612-0.503,0.972-0.613
			c0.36-0.109,0.721-0.119,1.083-0.027c0.362,0.09,0.691,0.277,0.986,0.562c0.296,0.286,0.494,0.609,0.597,0.969
			s0.106,0.722,0.01,1.086s-0.289,0.696-0.578,0.995S26.524,24.153,26.161,24.264z M27.031,22.541
			c0.061-0.239,0.052-0.48-0.025-0.723c-0.076-0.242-0.218-0.465-0.427-0.667c-0.207-0.2-0.435-0.335-0.68-0.404
			c-0.245-0.068-0.484-0.067-0.72,0.001s-0.446,0.2-0.633,0.393c-0.187,0.193-0.311,0.408-0.372,0.646
			c-0.062,0.238-0.056,0.479,0.02,0.723c0.075,0.245,0.217,0.468,0.424,0.668c0.209,0.202,0.437,0.337,0.683,0.403
			c0.247,0.066,0.489,0.066,0.726-0.001c0.237-0.067,0.45-0.197,0.637-0.391C26.849,22.996,26.972,22.779,27.031,22.541z"/>
	</g>
	<g>
		<path d="M29.452,16.423l1.118,4.429l-0.611,0.475l-4.013-2.183l0.624-0.483l3.192,1.77l-0.897-3.552L29.452,16.423z"/>
	</g>
	<g>
		<path d="M34.44,16.104l-2.942,1.692c0.225,0.295,0.513,0.472,0.863,0.528c0.352,0.056,0.704-0.019,1.06-0.224
			c0.434-0.249,0.699-0.596,0.797-1.039l0.605,0.215c-0.053,0.287-0.174,0.55-0.359,0.791c-0.188,0.24-0.431,0.447-0.731,0.62
			c-0.384,0.221-0.769,0.338-1.155,0.352c-0.388,0.013-0.744-0.075-1.068-0.267c-0.325-0.189-0.59-0.462-0.795-0.818
			c-0.201-0.352-0.305-0.713-0.31-1.086c-0.006-0.375,0.084-0.719,0.271-1.036c0.186-0.315,0.451-0.573,0.799-0.772
			c0.346-0.199,0.701-0.299,1.062-0.298c0.361,0.002,0.701,0.1,1.017,0.296c0.315,0.194,0.577,0.474,0.788,0.84
			C34.37,15.948,34.402,16.018,34.44,16.104z M31.167,16.356c-0.103,0.313-0.082,0.638,0.06,0.968l2.327-1.338
			c-0.213-0.285-0.48-0.463-0.805-0.535c-0.323-0.072-0.643-0.018-0.957,0.163C31.477,15.795,31.268,16.043,31.167,16.356z"/>
	</g>
	<g>
		<path d="M36.02,17.258c-0.327,0.033-0.601,0.018-0.82-0.047l0.068-0.674c0.221,0.053,0.467,0.065,0.74,0.04
			s0.535-0.089,0.783-0.19c0.615-0.249,0.852-0.549,0.709-0.899c-0.047-0.117-0.127-0.192-0.237-0.228
			c-0.11-0.034-0.233-0.043-0.371-0.025c-0.138,0.02-0.329,0.057-0.573,0.109c-0.332,0.078-0.61,0.125-0.834,0.141
			c-0.223,0.018-0.436-0.021-0.639-0.115c-0.203-0.094-0.359-0.277-0.47-0.551c-0.142-0.352-0.11-0.691,0.097-1.023
			c0.207-0.33,0.557-0.596,1.049-0.795c0.258-0.105,0.531-0.178,0.814-0.219c0.285-0.041,0.531-0.042,0.74-0.002l-0.074,0.678
			c-0.4-0.076-0.815-0.028-1.245,0.146c-0.298,0.12-0.505,0.261-0.62,0.423c-0.117,0.161-0.143,0.321-0.078,0.482
			c0.052,0.127,0.137,0.209,0.254,0.247c0.117,0.037,0.248,0.047,0.391,0.028c0.143-0.018,0.341-0.053,0.592-0.104
			c0.335-0.072,0.61-0.117,0.828-0.135c0.218-0.017,0.424,0.02,0.62,0.11c0.196,0.093,0.347,0.269,0.454,0.532
			c0.142,0.352,0.105,0.692-0.111,1.021c-0.216,0.329-0.582,0.599-1.1,0.808C36.67,17.145,36.347,17.225,36.02,17.258z"/>
	</g>
	<g>
		<path d="M43.423,11.335c0.349,0.119,0.642,0.32,0.878,0.603c0.236,0.283,0.392,0.633,0.467,1.047s0.053,0.797-0.067,1.147
			c-0.121,0.353-0.324,0.644-0.608,0.878c-0.282,0.233-0.624,0.387-1.023,0.459c-0.305,0.056-0.596,0.047-0.871-0.025
			c-0.275-0.073-0.518-0.209-0.724-0.406l0.118,0.652l-0.715,0.13l-1.048-5.764l0.746-0.136l0.412,2.269
			c0.126-0.249,0.303-0.45,0.531-0.607c0.229-0.156,0.489-0.262,0.785-0.315C42.703,11.193,43.077,11.216,43.423,11.335z
			 M43.565,14.516c0.188-0.16,0.322-0.361,0.403-0.603c0.082-0.243,0.097-0.506,0.045-0.792c-0.052-0.284-0.158-0.526-0.32-0.724
			c-0.161-0.198-0.358-0.337-0.589-0.417c-0.232-0.081-0.479-0.098-0.744-0.05c-0.259,0.047-0.483,0.149-0.675,0.308
			c-0.19,0.157-0.324,0.356-0.403,0.598s-0.093,0.505-0.041,0.789c0.052,0.286,0.157,0.527,0.316,0.727
			c0.159,0.198,0.355,0.339,0.589,0.422c0.235,0.083,0.481,0.101,0.74,0.054C43.151,14.779,43.377,14.676,43.565,14.516z"/>
	</g>
	<g>
		<path d="M46.67,10.8c0.251-0.139,0.562-0.217,0.929-0.234l0.034,0.734c-0.042-0.003-0.099-0.003-0.173,0.001
			c-0.41,0.02-0.728,0.156-0.948,0.412c-0.223,0.256-0.323,0.609-0.302,1.062l0.099,2.082l-0.757,0.035l-0.199-4.181l0.727-0.034
			l0.033,0.702C46.231,11.133,46.418,10.938,46.67,10.8z"/>
	</g>
	<g>
		<path d="M51.404,11.315c0.287,0.305,0.411,0.738,0.372,1.3L51.6,15.136l-0.717-0.05l0.039-0.551
			c-0.141,0.186-0.33,0.32-0.571,0.407c-0.24,0.086-0.521,0.118-0.842,0.096c-0.468-0.033-0.834-0.172-1.099-0.417
			c-0.266-0.245-0.385-0.552-0.359-0.92c0.025-0.367,0.181-0.653,0.464-0.858c0.283-0.204,0.716-0.286,1.299-0.245l1.197,0.083
			l0.011-0.149c0.022-0.326-0.055-0.582-0.231-0.768c-0.178-0.188-0.448-0.293-0.817-0.318c-0.246-0.018-0.49,0.007-0.733,0.071
			c-0.241,0.065-0.448,0.16-0.62,0.285l-0.275-0.589c0.226-0.158,0.494-0.273,0.799-0.344c0.306-0.071,0.626-0.095,0.962-0.071
			C50.683,10.838,51.116,11.01,51.404,11.315z M50.437,14.323c0.22-0.114,0.385-0.286,0.495-0.517l0.041-0.582l-1.165-0.081
			c-0.642-0.045-0.977,0.147-1.007,0.578c-0.015,0.21,0.056,0.382,0.211,0.513c0.153,0.133,0.376,0.209,0.664,0.229
			C49.966,14.483,50.22,14.437,50.437,14.323z"/>
	</g>
	<g>
		<path d="M53.302,11.163l0.746,0.132l-0.729,4.121l-0.746-0.133L53.302,11.163z M53.478,10.231c-0.08-0.11-0.108-0.232-0.084-0.367
			c0.023-0.135,0.092-0.241,0.205-0.321c0.113-0.078,0.241-0.104,0.388-0.079c0.145,0.025,0.257,0.093,0.337,0.2
			c0.079,0.107,0.107,0.229,0.083,0.363c-0.024,0.141-0.093,0.25-0.206,0.329c-0.112,0.079-0.241,0.104-0.387,0.079
			S53.557,10.342,53.478,10.231z"/>
	</g>
	<g>
		<path d="M58.665,13c0.211,0.385,0.232,0.863,0.062,1.433l-0.69,2.308l-0.728-0.218l0.665-2.225
			c0.116-0.388,0.111-0.708-0.017-0.961c-0.128-0.252-0.366-0.431-0.714-0.535c-0.394-0.118-0.738-0.095-1.033,0.066
			s-0.507,0.456-0.635,0.885l-0.618,2.065l-0.727-0.217l1.199-4.01l0.696,0.209l-0.181,0.604c0.207-0.163,0.453-0.263,0.735-0.299
			c0.283-0.036,0.583-0.007,0.901,0.089C58.092,12.348,58.452,12.615,58.665,13z"/>
	</g>
	<g>
		<path d="M63.376,14.353l-0.166,0.322l1.08,0.558l-0.286,0.555l-1.066-0.551l-1.633,3.165l-0.673-0.348l1.633-3.165l-0.632-0.325
			l0.286-0.555l0.632,0.326l0.17-0.33c0.19-0.369,0.449-0.606,0.774-0.71c0.326-0.104,0.684-0.057,1.072,0.144
			c0.149,0.078,0.28,0.168,0.392,0.273s0.196,0.217,0.254,0.336l-0.468,0.406c-0.094-0.195-0.237-0.344-0.429-0.443
			C63.914,13.805,63.6,13.918,63.376,14.353z"/>
	</g>
	<g>
		<path d="M68.164,17.75l-2.369,3.449l-0.593-0.406l0.357-0.521c-0.248,0.091-0.508,0.115-0.78,0.071
			c-0.273-0.044-0.531-0.149-0.774-0.316c-0.461-0.316-0.736-0.691-0.825-1.127c-0.092-0.436,0.032-0.901,0.372-1.396l1.363-1.985
			l0.626,0.43l-1.314,1.913c-0.229,0.335-0.322,0.642-0.28,0.924c0.043,0.281,0.215,0.525,0.514,0.73
			c0.33,0.227,0.659,0.306,0.987,0.237c0.327-0.068,0.617-0.285,0.867-0.65l1.225-1.783L68.164,17.75z"/>
	</g>
	<g>
		<path d="M71.506,21.433c0.012,0.438-0.189,0.873-0.603,1.301l-1.672,1.733l-0.547-0.527l1.612-1.671
			c0.281-0.292,0.424-0.578,0.426-0.861c0.003-0.282-0.127-0.551-0.389-0.803c-0.295-0.285-0.611-0.425-0.947-0.416
			c-0.338,0.009-0.661,0.173-0.972,0.495l-1.496,1.552l-0.545-0.526l2.905-3.012l0.522,0.504l-0.438,0.454
			c0.259-0.049,0.522-0.025,0.791,0.073c0.268,0.098,0.521,0.262,0.76,0.492C71.297,20.589,71.493,20.993,71.506,21.433z"/>
	</g>
	<g>
		<path d="M70.518,25.643c-0.055-0.378-0.01-0.739,0.134-1.086c0.144-0.348,0.379-0.645,0.706-0.892
			c0.327-0.248,0.677-0.395,1.05-0.438c0.372-0.044,0.731,0.011,1.078,0.168s0.648,0.405,0.906,0.745
			c0.229,0.303,0.372,0.618,0.43,0.946c0.058,0.331,0.021,0.648-0.111,0.952l-0.644-0.235c0.08-0.226,0.101-0.446,0.062-0.662
			c-0.037-0.215-0.128-0.418-0.271-0.606c-0.165-0.219-0.361-0.378-0.59-0.479c-0.229-0.101-0.47-0.134-0.723-0.097
			c-0.253,0.036-0.494,0.143-0.726,0.317c-0.234,0.178-0.404,0.383-0.508,0.616c-0.104,0.234-0.138,0.475-0.103,0.722
			c0.035,0.248,0.136,0.479,0.301,0.698c0.143,0.188,0.313,0.331,0.51,0.426c0.198,0.096,0.416,0.135,0.656,0.118l0.058,0.68
			c-0.329,0.045-0.646-0.005-0.949-0.149c-0.304-0.143-0.569-0.365-0.798-0.668C70.729,26.378,70.573,26.02,70.518,25.643z"/>
	</g>
	<g>
		<path d="M73.647,30.226c-0.138-0.048-0.269-0.129-0.394-0.245c-0.126-0.115-0.232-0.249-0.32-0.399
			c-0.212-0.363-0.278-0.702-0.2-1.017c0.08-0.314,0.301-0.576,0.665-0.789l1.985-1.157l-0.359-0.614l0.539-0.313l0.358,0.614
			l0.791-0.462l0.382,0.654l-0.791,0.462l0.604,1.037l-0.538,0.313l-0.604-1.037l-1.958,1.142c-0.195,0.114-0.316,0.25-0.364,0.409
			c-0.047,0.159-0.018,0.329,0.088,0.511c0.116,0.201,0.272,0.338,0.469,0.413L73.647,30.226z"/>
	</g>
	<g>
		<path d="M77.377,29.116l0.329,0.683l-3.77,1.816l-0.33-0.684L77.377,29.116z M78.236,28.715c0.042-0.129,0.126-0.223,0.249-0.282
			s0.25-0.066,0.381-0.021c0.129,0.046,0.227,0.135,0.29,0.268s0.075,0.262,0.035,0.391c-0.041,0.127-0.123,0.221-0.246,0.28
			c-0.128,0.062-0.257,0.069-0.387,0.024c-0.13-0.046-0.228-0.135-0.292-0.268C78.203,28.975,78.193,28.844,78.236,28.715z"/>
	</g>
	<g>
		<path d="M74.897,32.999c0.062-0.374,0.217-0.702,0.46-0.985c0.243-0.285,0.559-0.494,0.945-0.631
			c0.388-0.137,0.765-0.17,1.133-0.102c0.366,0.068,0.691,0.229,0.973,0.48c0.282,0.254,0.491,0.575,0.63,0.968
			c0.138,0.393,0.176,0.773,0.113,1.144c-0.062,0.371-0.215,0.698-0.457,0.981c-0.243,0.284-0.559,0.494-0.946,0.631
			s-0.765,0.171-1.132,0.102c-0.367-0.068-0.693-0.228-0.976-0.477c-0.284-0.249-0.493-0.569-0.632-0.962
			S74.833,33.373,74.897,32.999z M76.049,34.548c0.188,0.16,0.407,0.26,0.659,0.3c0.251,0.04,0.513,0.012,0.785-0.084
			c0.273-0.096,0.495-0.239,0.667-0.428c0.171-0.188,0.277-0.403,0.32-0.645c0.044-0.24,0.021-0.488-0.068-0.742
			c-0.089-0.252-0.226-0.459-0.411-0.621c-0.185-0.16-0.403-0.262-0.655-0.304c-0.253-0.043-0.516-0.017-0.788,0.08
			c-0.273,0.097-0.494,0.24-0.664,0.432c-0.171,0.19-0.278,0.407-0.324,0.648c-0.045,0.243-0.024,0.49,0.064,0.743
			C75.723,34.182,75.862,34.389,76.049,34.548z"/>
	</g>
	<g>
		<path d="M80.128,39.481c-0.25,0.361-0.666,0.594-1.252,0.698l-2.371,0.419l-0.133-0.747l2.286-0.404
			c0.398-0.07,0.684-0.219,0.851-0.447c0.168-0.227,0.221-0.52,0.157-0.877c-0.071-0.404-0.245-0.702-0.523-0.894
			c-0.276-0.192-0.636-0.248-1.076-0.17l-2.122,0.375l-0.132-0.746l4.12-0.729l0.126,0.715l-0.622,0.11
			c0.24,0.113,0.438,0.287,0.6,0.523c0.158,0.237,0.268,0.518,0.326,0.845C80.454,38.675,80.376,39.119,80.128,39.481z"/>
	</g>
	<g>
		<path d="M20.059,48.748l0.144,0.734l-5.139,1.001l-0.144-0.734L20.059,48.748z"/>
	</g>
	<g>
		<path d="M20.782,56.674c-0.17,0.373-0.521,0.658-1.055,0.855l-2.139,0.791l-0.249-0.673l2.062-0.763
			c0.36-0.133,0.602-0.316,0.723-0.551c0.121-0.232,0.124-0.503,0.01-0.812c-0.126-0.342-0.333-0.574-0.62-0.696
			c-0.287-0.123-0.63-0.11-1.026,0.036l-1.915,0.708l-0.249-0.673l2.062-0.763c0.359-0.133,0.6-0.316,0.722-0.549
			c0.12-0.234,0.124-0.505,0.011-0.813c-0.127-0.342-0.334-0.574-0.621-0.696s-0.629-0.11-1.026,0.036l-1.915,0.708l-0.249-0.673
			l3.718-1.374l0.238,0.645l-0.554,0.205c0.241,0.064,0.453,0.188,0.636,0.371c0.182,0.183,0.324,0.414,0.428,0.695
			c0.107,0.289,0.144,0.568,0.109,0.836c-0.033,0.268-0.141,0.504-0.32,0.709c0.268,0.06,0.508,0.193,0.723,0.398
			c0.213,0.205,0.379,0.465,0.494,0.777C20.951,55.879,20.953,56.299,20.782,56.674z"/>
	</g>
	<g>
		<path d="M23.497,60.742c0.018,0.348-0.055,0.676-0.221,0.982c-0.166,0.309-0.417,0.568-0.754,0.781
			c-0.338,0.213-0.682,0.328-1.033,0.346c-0.351,0.019-0.68-0.056-0.984-0.223c-0.307-0.167-0.562-0.413-0.766-0.737
			c-0.152-0.24-0.244-0.489-0.277-0.749c-0.034-0.258-0.006-0.514,0.083-0.765l-1.733,1.093l-0.383-0.606l4.58-2.888l0.367,0.581
			l-0.532,0.335c0.271,0.02,0.52,0.102,0.745,0.248c0.225,0.146,0.416,0.345,0.572,0.594C23.366,60.059,23.477,60.395,23.497,60.742
			z M20.752,61.99c0.206,0.109,0.431,0.156,0.672,0.143c0.242-0.015,0.479-0.095,0.711-0.241c0.231-0.146,0.406-0.325,0.523-0.537
			c0.116-0.212,0.169-0.433,0.159-0.666c-0.011-0.231-0.084-0.456-0.219-0.671c-0.134-0.211-0.305-0.37-0.51-0.479
			c-0.207-0.107-0.431-0.156-0.671-0.144c-0.239,0.013-0.476,0.092-0.707,0.237c-0.231,0.146-0.407,0.325-0.524,0.536
			c-0.118,0.21-0.173,0.433-0.162,0.668c0.01,0.234,0.081,0.458,0.214,0.669C20.374,61.721,20.546,61.883,20.752,61.99z"/>
	</g>
	<g>
		<path d="M25.202,62.876c0.248,0.112,0.482,0.305,0.704,0.574l-0.536,0.441c-0.021-0.033-0.056-0.078-0.1-0.132
			c-0.247-0.3-0.529-0.462-0.851-0.486c-0.319-0.023-0.645,0.1-0.976,0.372l-1.525,1.254l-0.456-0.554l3.062-2.518l0.437,0.531
			l-0.515,0.423C24.703,62.732,24.955,62.764,25.202,62.876z"/>
	</g>
	<g>
		<path d="M24.225,66.955c-0.106-0.344-0.116-0.688-0.03-1.031c0.085-0.344,0.262-0.655,0.532-0.936
			c0.27-0.28,0.574-0.47,0.914-0.568c0.34-0.098,0.683-0.101,1.028-0.006c0.346,0.094,0.66,0.276,0.944,0.55s0.479,0.58,0.584,0.919
			c0.105,0.34,0.115,0.683,0.029,1.025c-0.084,0.345-0.262,0.656-0.531,0.937c-0.271,0.28-0.573,0.47-0.915,0.567
			c-0.34,0.099-0.683,0.103-1.027,0.013c-0.346-0.091-0.66-0.271-0.944-0.545S24.331,67.298,24.225,66.955z M25.859,67.775
			c0.228,0.055,0.455,0.047,0.685-0.027c0.229-0.073,0.439-0.208,0.629-0.406c0.19-0.197,0.318-0.412,0.382-0.645
			c0.065-0.231,0.063-0.46-0.002-0.682c-0.066-0.224-0.19-0.422-0.374-0.599s-0.388-0.294-0.612-0.351
			c-0.226-0.058-0.453-0.051-0.686,0.021c-0.23,0.071-0.441,0.206-0.632,0.403c-0.189,0.198-0.316,0.414-0.379,0.647
			c-0.062,0.234-0.061,0.464,0.003,0.688c0.064,0.224,0.188,0.424,0.372,0.601S25.633,67.719,25.859,67.775z"/>
	</g>
	<g>
		<path d="M32.226,68.716l-3.74,2.175l-0.592-0.434l0.94-4.224l0.603,0.441l-0.778,3.369l3-1.743L32.226,68.716z"/>
	</g>
	<g>
		<path d="M34.371,72.402l-2.824-1.539c-0.127,0.328-0.126,0.647,0.002,0.959c0.128,0.311,0.363,0.56,0.704,0.746
			c0.416,0.227,0.827,0.27,1.234,0.127l0.125,0.598c-0.257,0.098-0.53,0.131-0.816,0.1c-0.287-0.031-0.574-0.126-0.863-0.284
			c-0.368-0.2-0.652-0.454-0.855-0.76c-0.201-0.306-0.306-0.637-0.314-0.993c-0.007-0.356,0.083-0.705,0.27-1.047
			c0.184-0.336,0.424-0.6,0.724-0.788c0.298-0.189,0.622-0.288,0.969-0.294c0.347-0.007,0.688,0.081,1.021,0.262
			c0.332,0.182,0.588,0.419,0.766,0.712s0.266,0.615,0.266,0.967c-0.002,0.351-0.098,0.702-0.289,1.052
			C34.462,72.268,34.422,72.328,34.371,72.402z M32.546,69.883c-0.304,0.072-0.555,0.249-0.752,0.527l2.233,1.217
			c0.125-0.312,0.137-0.617,0.034-0.914s-0.305-0.527-0.606-0.692C33.152,69.855,32.849,69.811,32.546,69.883z"/>
	</g>
	<g>
		<path d="M34.774,74.415c-0.248-0.19-0.427-0.378-0.536-0.564l0.484-0.423c0.118,0.18,0.279,0.35,0.484,0.51
			c0.206,0.159,0.427,0.285,0.665,0.377c0.585,0.227,0.942,0.172,1.072-0.162c0.043-0.111,0.037-0.215-0.017-0.311
			s-0.134-0.182-0.241-0.258c-0.105-0.076-0.262-0.176-0.465-0.297c-0.28-0.162-0.503-0.31-0.668-0.443
			c-0.164-0.133-0.286-0.298-0.365-0.494s-0.068-0.424,0.033-0.685c0.129-0.335,0.372-0.55,0.729-0.644
			c0.357-0.095,0.771-0.051,1.239,0.131c0.247,0.096,0.482,0.221,0.705,0.377s0.394,0.316,0.512,0.479l-0.491,0.42
			c-0.226-0.312-0.544-0.547-0.952-0.705c-0.285-0.111-0.519-0.148-0.703-0.112c-0.186,0.035-0.308,0.13-0.366,0.283
			c-0.047,0.12-0.043,0.232,0.014,0.334c0.058,0.103,0.141,0.193,0.251,0.274c0.111,0.079,0.271,0.184,0.478,0.312
			c0.277,0.166,0.497,0.314,0.657,0.443c0.162,0.129,0.28,0.288,0.356,0.479c0.076,0.189,0.066,0.41-0.031,0.662
			c-0.129,0.334-0.376,0.545-0.737,0.632c-0.363,0.087-0.791,0.035-1.284-0.156C35.296,74.757,35.02,74.603,34.774,74.415z"/>
	</g>
	<g>
		<path d="M44.063,73.154c0.271,0.219,0.465,0.493,0.583,0.822c0.117,0.328,0.142,0.689,0.073,1.082
			c-0.068,0.394-0.214,0.727-0.436,0.999s-0.497,0.467-0.826,0.582c-0.328,0.114-0.682,0.14-1.06,0.073
			c-0.289-0.05-0.545-0.152-0.767-0.308c-0.221-0.154-0.392-0.354-0.512-0.598l-0.107,0.619l-0.678-0.118l0.951-5.467l0.707,0.123
			l-0.375,2.151c0.193-0.179,0.418-0.301,0.672-0.365s0.521-0.073,0.801-0.024C43.469,72.793,43.793,72.935,44.063,73.154z
			 M43.151,76.027c0.219-0.08,0.403-0.215,0.555-0.404c0.152-0.188,0.252-0.418,0.299-0.688c0.047-0.27,0.031-0.519-0.049-0.748
			c-0.079-0.229-0.207-0.417-0.387-0.564c-0.179-0.147-0.395-0.243-0.645-0.287c-0.246-0.043-0.479-0.024-0.7,0.054
			c-0.222,0.078-0.406,0.211-0.555,0.4c-0.15,0.189-0.249,0.419-0.296,0.688c-0.047,0.271-0.032,0.521,0.046,0.749
			c0.076,0.229,0.204,0.417,0.387,0.567c0.181,0.15,0.395,0.247,0.641,0.29C42.697,76.127,42.932,76.108,43.151,76.027z"/>
	</g>
	<g>
		<path d="M46.977,73.276c0.249-0.108,0.548-0.154,0.896-0.139l-0.031,0.695c-0.039-0.007-0.095-0.012-0.164-0.015
			c-0.389-0.019-0.698,0.084-0.931,0.305c-0.232,0.222-0.359,0.547-0.379,0.976l-0.09,1.972l-0.717-0.033l0.182-3.96l0.687,0.032
			l-0.031,0.665C46.535,73.551,46.727,73.385,46.977,73.276z"/>
	</g>
	<g>
		<path d="M51.151,73.481c0.31,0.251,0.48,0.642,0.515,1.174l0.155,2.388l-0.679,0.044l-0.033-0.521
			c-0.107,0.191-0.269,0.343-0.483,0.455c-0.216,0.111-0.476,0.176-0.778,0.195c-0.443,0.029-0.805-0.055-1.084-0.251
			c-0.28-0.196-0.432-0.469-0.454-0.817c-0.022-0.348,0.086-0.637,0.325-0.864c0.24-0.228,0.637-0.36,1.188-0.396l1.135-0.074
			l-0.01-0.141c-0.02-0.309-0.125-0.539-0.314-0.692c-0.189-0.151-0.458-0.216-0.807-0.193c-0.233,0.016-0.461,0.068-0.68,0.16
			c-0.219,0.091-0.4,0.206-0.547,0.346l-0.333-0.518c0.192-0.178,0.429-0.318,0.706-0.424c0.278-0.105,0.577-0.169,0.896-0.189
			C50.416,73.125,50.845,73.232,51.151,73.481z M50.628,76.428c0.19-0.135,0.324-0.317,0.399-0.547l-0.036-0.553L49.887,75.4
			c-0.606,0.039-0.897,0.264-0.871,0.672c0.013,0.199,0.102,0.35,0.263,0.454c0.162,0.105,0.38,0.148,0.652,0.13
			C50.205,76.639,50.436,76.562,50.628,76.428z"/>
	</g>
	<g>
		<path d="M52.192,71.915c-0.104-0.074-0.168-0.174-0.189-0.303c-0.021-0.127,0.007-0.244,0.082-0.35
			c0.076-0.106,0.183-0.171,0.32-0.193s0.26,0.001,0.365,0.071c0.105,0.071,0.168,0.17,0.189,0.299
			c0.021,0.133-0.005,0.252-0.08,0.357c-0.077,0.107-0.184,0.172-0.321,0.194S52.299,71.988,52.192,71.915z M52.329,72.802
			l0.708-0.117l0.648,3.911l-0.708,0.117L52.329,72.802z"/>
	</g>
	<g>
		<path d="M57.315,72.074c0.365,0.201,0.624,0.57,0.777,1.113l0.619,2.195l-0.69,0.195l-0.598-2.116
			c-0.104-0.37-0.272-0.623-0.502-0.76c-0.23-0.138-0.511-0.158-0.843-0.065c-0.373,0.106-0.638,0.299-0.793,0.578
			c-0.153,0.278-0.173,0.622-0.059,1.029l0.556,1.966l-0.691,0.195l-1.077-3.815l0.662-0.188l0.163,0.576
			c0.083-0.235,0.229-0.439,0.437-0.613c0.208-0.172,0.463-0.301,0.766-0.386C56.526,71.843,56.95,71.873,57.315,72.074z"/>
	</g>
	<g>
		<path d="M60.823,69.905l0.15,0.309l1.035-0.505l0.26,0.531l-1.022,0.498l1.478,3.032l-0.645,0.315L60.6,71.054l-0.605,0.294
			l-0.258-0.531l0.604-0.294l-0.153-0.315c-0.173-0.354-0.207-0.685-0.101-0.992c0.104-0.307,0.345-0.55,0.717-0.731
			c0.144-0.069,0.286-0.118,0.429-0.143s0.275-0.025,0.398-0.003l0.043,0.586c-0.201-0.04-0.395-0.015-0.578,0.074
			C60.712,69.187,60.62,69.488,60.823,69.905z"/>
	</g>
	<g>
		<path d="M65.344,67.672l2.145,3.334l-0.572,0.368l-0.324-0.504c-0.011,0.251-0.085,0.487-0.224,0.71
			c-0.139,0.222-0.325,0.408-0.561,0.56c-0.443,0.285-0.873,0.389-1.287,0.308c-0.413-0.081-0.773-0.36-1.081-0.838l-1.234-1.919
			l0.604-0.389l1.189,1.85c0.207,0.322,0.441,0.517,0.703,0.583s0.537,0.006,0.827-0.181c0.318-0.205,0.508-0.462,0.569-0.774
			c0.06-0.312-0.023-0.645-0.25-0.996l-1.108-1.723L65.344,67.672z"/>
	</g>
	<g>
		<path d="M68.83,65.068c0.416,0.021,0.812,0.238,1.187,0.658l1.521,1.701l-0.534,0.479l-1.466-1.638
			c-0.257-0.287-0.519-0.44-0.785-0.463c-0.268-0.021-0.53,0.082-0.786,0.312c-0.29,0.26-0.441,0.549-0.458,0.868
			c-0.016,0.317,0.117,0.636,0.4,0.951l1.361,1.521l-0.534,0.479l-2.644-2.953l0.513-0.459l0.399,0.445
			c-0.029-0.248,0.012-0.495,0.122-0.743c0.111-0.246,0.284-0.474,0.518-0.684C68.019,65.207,68.415,65.049,68.83,65.068z"/>
	</g>
	<g>
		<path d="M72.924,65.641c-0.337,0.133-0.68,0.17-1.031,0.112c-0.35-0.058-0.675-0.211-0.974-0.459
			c-0.3-0.249-0.51-0.54-0.632-0.874c-0.12-0.334-0.146-0.678-0.076-1.031s0.234-0.686,0.492-0.996
			c0.229-0.276,0.489-0.477,0.781-0.601c0.29-0.125,0.592-0.158,0.9-0.103l-0.078,0.644c-0.226-0.023-0.434,0.005-0.624,0.086
			s-0.358,0.208-0.502,0.381c-0.166,0.199-0.27,0.415-0.313,0.647c-0.044,0.233-0.022,0.461,0.066,0.687
			c0.088,0.225,0.238,0.426,0.449,0.601c0.215,0.179,0.44,0.29,0.679,0.336c0.237,0.044,0.466,0.024,0.688-0.062
			c0.22-0.086,0.412-0.229,0.578-0.428c0.144-0.173,0.238-0.36,0.282-0.562c0.046-0.203,0.035-0.412-0.03-0.63l0.613-0.2
			c0.112,0.294,0.135,0.597,0.067,0.907c-0.067,0.312-0.215,0.604-0.444,0.881C73.557,65.288,73.261,65.51,72.924,65.641z"/>
	</g>
	<g>
		<path d="M76.393,60.608c0.019,0.136,0.005,0.283-0.041,0.438c-0.044,0.155-0.112,0.302-0.202,0.439
			c-0.218,0.334-0.478,0.534-0.776,0.601c-0.3,0.066-0.616-0.01-0.949-0.229l-1.822-1.191l-0.368,0.563l-0.494-0.323l0.368-0.562
			l-0.727-0.475l0.393-0.602l0.727,0.475l0.622-0.951l0.494,0.323l-0.622,0.951l1.797,1.175c0.18,0.118,0.346,0.163,0.501,0.137
			c0.154-0.027,0.286-0.125,0.396-0.292c0.12-0.184,0.171-0.374,0.15-0.571L76.393,60.608z"/>
	</g>
	<g>
		<path d="M72.756,57.834c-0.124,0.038-0.242,0.025-0.355-0.037s-0.188-0.156-0.225-0.281c-0.037-0.125-0.021-0.249,0.046-0.371
			c0.067-0.123,0.161-0.203,0.281-0.242c0.121-0.039,0.238-0.027,0.352,0.035c0.119,0.064,0.196,0.16,0.231,0.285
			c0.038,0.125,0.022,0.249-0.045,0.371C72.973,57.717,72.879,57.797,72.756,57.834z M73.536,58.275l0.346-0.629l3.475,1.908
			l-0.346,0.629L73.536,58.275z"/>
	</g>
	<g>
		<path d="M78.087,57.479c-0.283,0.222-0.6,0.354-0.951,0.398c-0.351,0.044-0.706-0.009-1.063-0.16
			c-0.359-0.151-0.646-0.367-0.86-0.649c-0.213-0.282-0.339-0.602-0.375-0.958s0.022-0.716,0.175-1.079
			c0.153-0.362,0.369-0.654,0.648-0.875c0.279-0.22,0.595-0.353,0.945-0.396c0.353-0.044,0.707,0.01,1.066,0.16
			c0.357,0.151,0.644,0.368,0.857,0.65c0.214,0.281,0.341,0.601,0.381,0.955c0.04,0.355-0.017,0.714-0.17,1.077
			C78.588,56.965,78.37,57.258,78.087,57.479z M78.264,55.66c-0.029-0.232-0.12-0.442-0.271-0.63s-0.353-0.335-0.604-0.441
			c-0.253-0.106-0.499-0.148-0.739-0.124c-0.24,0.022-0.452,0.105-0.636,0.246c-0.184,0.143-0.326,0.33-0.425,0.564
			s-0.134,0.467-0.106,0.697c0.027,0.231,0.115,0.441,0.266,0.632c0.149,0.19,0.352,0.339,0.604,0.445
			c0.252,0.105,0.498,0.146,0.739,0.12c0.24-0.025,0.455-0.108,0.641-0.249c0.188-0.141,0.329-0.328,0.428-0.562
			C78.26,56.124,78.295,55.892,78.264,55.66z"/>
	</g>
	<g>
		<path d="M77.128,49.571c0.354-0.219,0.805-0.261,1.352-0.125l2.215,0.548l-0.173,0.697l-2.134-0.527
			c-0.374-0.093-0.677-0.072-0.909,0.06c-0.233,0.133-0.391,0.366-0.474,0.7c-0.093,0.377-0.057,0.701,0.109,0.975
			c0.166,0.271,0.455,0.459,0.866,0.561l1.982,0.49l-0.172,0.697l-3.848-0.952l0.165-0.668l0.581,0.144
			c-0.164-0.189-0.271-0.417-0.317-0.684c-0.047-0.266-0.032-0.551,0.043-0.855C76.536,50.143,76.772,49.789,77.128,49.571z"/>
	</g>
	<path d="M81.909,44.865c0,1.115-0.904,2.019-2.019,2.019c-1.114,0-2.018-0.904-2.018-2.019c0-1.115,0.904-2.019,2.018-2.019
		C81.005,42.845,81.909,43.749,81.909,44.865"/>
	<path d="M18.497,44.865c0,1.115-0.904,2.019-2.019,2.019c-1.114,0-2.018-0.904-2.018-2.019c0-1.115,0.904-2.019,2.018-2.019
		C17.592,42.845,18.497,43.749,18.497,44.865"/>
	<path d="M47.245,52.8c0,0.652-0.024,1.306,0.008,1.957c0.022,0.48-0.189,0.75-0.595,0.958c-1.538,0.789-3.43,0.007-3.929-1.697
		c-0.145-0.497-0.328-0.71-0.857-0.75c-0.855-0.064-1.541-0.497-2.026-1.215c-0.233-0.343-0.255-0.556,0.282-0.62
		c1.169-0.137,2.139-0.678,2.672-1.757c0.243-0.493,0.34-1.081,0.385-1.636c0.015-0.189-0.316-0.554-0.514-0.573
		c-0.206-0.019-0.446,0.279-0.662,0.448c-0.032,0.024-0.029,0.103-0.029,0.157c0.008,1.357-1.288,2.197-2.328,2.097
		c-1.504-0.147-2.666-1.254-2.629-2.714c0.022-0.814-0.145-1.362-0.73-1.962c-0.786-0.809-0.902-1.884-0.502-2.971
		c0.179-0.488,0.323-0.711,0.892-0.252c0.564,0.458,1.303,0.737,2.007,0.958c0.213,0.066,0.568-0.321,0.857-0.5
		c-0.206-0.233-0.387-0.632-0.627-0.673c-1.185-0.201-1.859-0.995-1.925-1.903c-0.088-1.22,0.504-2.349,1.639-2.846
		c0.519-0.226,0.787-0.451,0.823-1.08c0.027-0.471,0.323-0.982,0.63-1.37c0.667-0.845,0.94-0.759,1.549,0.073
		c0.389,0.527,0.943,0.95,1.475,1.348c0.351,0.264,0.798,0.167,0.933-0.265c0.066-0.213-0.122-0.673-0.318-0.772
		c-1.519-0.764-1.325-1.877-0.544-2.969c0.843-1.178,2.83-1.475,3.77-0.593c0.196,0.184,0.272,0.573,0.279,0.87
		c0.027,1.276,0.002,2.553,0.008,3.831c0.003,0.46,0.081,0.923,0.691,0.887c0.547-0.032,0.6-0.488,0.605-0.902
		c0.015-1.332-0.024-2.665,0.034-3.995c0.014-0.301,0.26-0.713,0.52-0.862c1.418-0.809,3.319-0.144,3.819,1.411
		c0.243,0.759,0.629,0.977,1.333,1.093c1.019,0.171,1.686,0.83,1.985,1.828c0.343,1.146-0.019,1.957-1.112,2.464
		c-0.406,0.189-0.884,0.353-0.63,0.916c0.257,0.575,0.798,0.468,1.179,0.198c0.585-0.412,1.144-0.891,1.612-1.43
		c0.311-0.36,0.473-0.346,0.75-0.037c0.556,0.624,0.855,1.374,0.706,2.175c-0.112,0.602,0.088,0.906,0.493,1.286
		c0.96,0.906,1.2,2.183,0.679,3.363c-0.529,1.195-1.399,1.918-2.778,1.857c-0.422-0.019-0.858,0.079-0.762,0.573
		c0.052,0.264,0.448,0.556,0.745,0.645c0.343,0.105,0.76,0.051,1.127-0.027c0.473-0.101,0.456,0.127,0.36,0.433
		c-0.265,0.833-0.838,1.404-1.642,1.691c-0.46,0.162-0.6,0.397-0.634,0.872c-0.105,1.421-1.259,2.454-2.666,2.462
		c-1.068,0.007-1.825-0.647-2.067-1.815c-0.095-0.451-0.169-0.919-0.782-0.782c-0.576,0.13-0.546,0.62-0.468,1.056
		c0.203,1.144,0.809,2.031,1.879,2.499c0.635,0.277,0.546,0.52,0.154,0.921c-0.784,0.803-1.734,0.982-2.775,0.74
		c-0.732-0.169-1.149-0.559-1.08-1.438c0.088-1.134,0.02-2.281,0.019-3.423c0-0.162,0.054-0.368-0.024-0.48
		c-0.169-0.238-0.406-0.431-0.615-0.64c-0.22,0.226-0.602,0.436-0.632,0.686c-0.086,0.723-0.03,1.462-0.03,2.195
		C47.24,52.8,47.242,52.8,47.245,52.8 M46.123,48.51c0.09,0.052,0.181,0.105,0.27,0.157c0.11-0.188,0.196-0.394,0.331-0.559
		c1.044-1.283,2.107-2.552,3.143-3.839c0.245-0.304,0.414-0.669,0.618-1.005c-0.39-0.057-0.781-0.174-1.168-0.159
		c-0.607,0.022-0.671-0.223-0.526-0.733c0.291-1.016,0.547-2.041,0.798-3.069c0.046-0.184-0.003-0.39-0.008-0.586
		c-0.169,0.108-0.377,0.184-0.5,0.331c-1.081,1.288-2.156,2.58-3.211,3.89c-0.24,0.297-0.39,0.666-0.583,1.002
		c0.363,0.052,0.733,0.172,1.092,0.142c0.728-0.064,0.732,0.259,0.568,0.814c-0.299,1.012-0.559,2.038-0.818,3.062
		C46.086,48.131,46.123,48.326,46.123,48.51"/>
	<path d="M47.099,28.256c0.019-0.243-0.042-0.536,0.073-0.716c0.155-0.242,0.463-0.564,0.676-0.544
		c0.272,0.024,0.654,0.311,0.738,0.568c0.13,0.394,0.142,0.885,0.024,1.281c-0.095,0.321-0.421,0.735-0.71,0.796
		c-0.507,0.108-0.749-0.319-0.779-0.813c-0.014-0.189-0.003-0.38-0.003-0.569C47.112,28.256,47.106,28.256,47.099,28.256"/>
	<path d="M32.543,44.353c-0.189,0-0.433,0.074-0.559-0.015c-0.277-0.196-0.639-0.443-0.705-0.728
		c-0.108-0.47,0.264-0.737,0.732-0.769c0.379-0.027,0.796-0.103,1.13,0.02c0.319,0.12,0.728,0.431,0.789,0.722
		c0.105,0.507-0.313,0.755-0.816,0.774c-0.191,0.007-0.38,0.002-0.571,0.002V44.353z"/>
	<path d="M63.143,44.361c-0.135,0-0.272,0.003-0.407,0c-0.519-0.019-0.938-0.208-0.933-0.789c0.003-0.539,0.416-0.716,0.894-0.738
		c0.324-0.015,0.651-0.014,0.977,0.002c0.495,0.02,0.924,0.26,0.82,0.771c-0.059,0.291-0.487,0.534-0.791,0.735
		c-0.132,0.088-0.37,0.015-0.559,0.015C63.143,44.357,63.143,44.359,63.143,44.361"/>
	<path d="M48.64,58.918c0,0.191,0.022,0.384-0.005,0.569c-0.066,0.449-0.302,0.848-0.781,0.728c-0.286-0.071-0.596-0.424-0.705-0.72
		c-0.122-0.336-0.047-0.752-0.03-1.13c0.024-0.495,0.274-0.924,0.782-0.814c0.289,0.064,0.527,0.498,0.725,0.806
		C48.712,58.492,48.64,58.727,48.64,58.918"/>
	<path d="M41.42,30.862c-0.201,0.272-0.313,0.576-0.514,0.654c-0.233,0.091-0.679,0.091-0.794-0.057
		c-0.36-0.461-0.651-0.992-0.874-1.536c-0.071-0.172,0.09-0.58,0.26-0.676c0.213-0.122,0.681-0.149,0.801-0.012
		C40.719,29.713,41.035,30.281,41.42,30.862"/>
	<path d="M34.138,34.792c0.581,0.368,1.154,0.674,1.642,1.081c0.135,0.113,0.117,0.602-0.014,0.792
		c-0.13,0.188-0.542,0.362-0.74,0.289c-0.498-0.182-0.994-0.451-1.396-0.798c-0.177-0.154-0.218-0.598-0.149-0.867
		C33.532,35.1,33.87,34.985,34.138,34.792"/>
	<path d="M60.54,37.163c-0.274-0.265-0.581-0.429-0.642-0.661c-0.061-0.233,0.032-0.637,0.21-0.782
		c0.392-0.318,0.858-0.576,1.337-0.743c0.213-0.074,0.627,0.052,0.765,0.23c0.14,0.182,0.177,0.684,0.047,0.796
		C61.753,36.428,61.165,36.754,60.54,37.163"/>
	<path d="M62.374,51.487c-0.003,0.576-0.455,0.933-0.943,0.737c-0.471-0.191-0.938-0.441-1.328-0.76
		c-0.176-0.145-0.282-0.563-0.204-0.781c0.078-0.216,0.502-0.527,0.637-0.471c0.608,0.255,1.174,0.617,1.739,0.967
		C62.359,51.23,62.355,51.423,62.374,51.487"/>
	<path d="M40.082,58.093c-0.652,0.017-1.019-0.426-0.83-0.921c0.182-0.473,0.416-0.96,0.75-1.33
		c0.171-0.189,0.693-0.279,0.907-0.155c0.206,0.118,0.358,0.607,0.289,0.869c-0.112,0.429-0.395,0.825-0.657,1.2
		C40.417,57.932,40.173,58.028,40.082,58.093"/>
	<path d="M56.694,29.833c-0.379,0.583-0.71,1.168-1.127,1.681c-0.103,0.127-0.544,0.108-0.732-0.005
		c-0.188-0.113-0.409-0.5-0.343-0.644c0.262-0.58,0.596-1.139,0.983-1.644c0.098-0.127,0.522-0.101,0.738-0.01
		C56.398,29.289,56.498,29.564,56.694,29.833"/>
	<path d="M35.935,51.041c-0.064,0.096-0.152,0.341-0.328,0.466c-0.372,0.265-0.767,0.546-1.195,0.664
		c-0.269,0.076-0.816-0.052-0.882-0.226c-0.103-0.27-0.008-0.754,0.193-0.97c0.299-0.321,0.749-0.527,1.164-0.713
		C35.393,50.035,35.908,50.376,35.935,51.041"/>
	<path d="M56.724,57.376c-0.25,0.275-0.404,0.591-0.63,0.657c-0.231,0.066-0.635-0.027-0.784-0.203
		c-0.328-0.385-0.6-0.843-0.776-1.316c-0.079-0.208,0.051-0.618,0.226-0.765c0.177-0.145,0.679-0.201,0.784-0.078
		C55.975,56.171,56.31,56.754,56.724,57.376"/>
</g>
</svg>
