<?xml version="1.0" encoding="utf-8"?>
<!-- Generator: Adobe Illustrator 28.0.0, SVG Export Plug-In . SVG Version: 6.00 Build 0)  -->
<svg version="1.1" id="Layer_1" xmlns="http://www.w3.org/2000/svg" xmlns:xlink="http://www.w3.org/1999/xlink" x="0px" y="0px"
	 viewBox="0 0 95.745 85.787" enable-background="new 0 0 95.745 85.787" xml:space="preserve">
<g>
	<path d="M86.327,42.905c0.046,21.097-17.112,38.329-38.226,38.447C26.801,81.471,9.528,64.218,9.419,43.105
		C9.307,21.776,26.636,4.433,47.876,4.434C69.086,4.434,86.384,21.705,86.327,42.905 M84.9,42.893
		C84.917,22.817,68.876,6.325,48.716,5.877c-20.647-0.458-37.59,15.955-37.861,36.524C10.585,62.996,27.08,79.803,47.68,79.918
		C68.28,80.033,84.912,63.365,84.9,42.893"/>
	<path d="M73.691,42.945c-0.073,14.214-11.577,25.875-26.07,25.75c-14.047-0.123-25.586-11.548-25.544-25.877
		c0.042-14.289,11.609-25.745,25.838-25.727C62.226,17.11,73.679,28.722,73.691,42.945 M72.226,42.904
		c0.046-13.464-10.909-24.316-24.25-24.37C34.509,18.48,23.537,29.42,23.519,42.852c-0.02,13.396,10.831,24.322,24.233,24.402
		C61.143,67.331,72.272,56.427,72.226,42.904"/>
	<g>
		<path d="M28.432,18.937l0.571-0.498l1.416,1.625c-0.057,0.351-0.183,0.69-0.377,1.02c-0.194,0.331-0.44,0.625-0.738,0.885
			c-0.421,0.367-0.88,0.604-1.378,0.714c-0.499,0.109-0.984,0.086-1.459-0.069c-0.474-0.155-0.888-0.436-1.241-0.842
			c-0.353-0.404-0.573-0.853-0.665-1.347c-0.091-0.492-0.046-0.978,0.135-1.456c0.18-0.479,0.481-0.902,0.906-1.272
			c0.333-0.291,0.684-0.5,1.051-0.627c0.366-0.129,0.737-0.17,1.111-0.126l-0.048,0.69c-0.613-0.03-1.156,0.159-1.628,0.57
			c-0.318,0.277-0.543,0.594-0.676,0.95c-0.133,0.357-0.164,0.72-0.095,1.088c0.07,0.369,0.238,0.705,0.504,1.011
			c0.264,0.302,0.572,0.513,0.928,0.632c0.355,0.12,0.721,0.141,1.093,0.059c0.374-0.08,0.716-0.258,1.029-0.53
			c0.374-0.325,0.622-0.698,0.743-1.12L28.432,18.937z"/>
	</g>
	<g>
		<path d="M31.951,19.497c-0.38,0.014-0.732-0.068-1.061-0.249s-0.598-0.445-0.811-0.797s-0.322-0.714-0.33-1.087
			c-0.008-0.374,0.083-0.725,0.272-1.053c0.188-0.326,0.462-0.598,0.817-0.813s0.721-0.33,1.097-0.346
			c0.376-0.015,0.728,0.068,1.056,0.249c0.327,0.18,0.597,0.444,0.81,0.796s0.323,0.714,0.331,1.088s-0.082,0.725-0.268,1.053
			c-0.186,0.327-0.457,0.6-0.812,0.815C32.697,19.369,32.33,19.483,31.951,19.497z M33.231,18.052
			c0.118-0.215,0.171-0.451,0.159-0.705c-0.013-0.253-0.094-0.505-0.244-0.753c-0.149-0.247-0.335-0.435-0.554-0.563
			c-0.22-0.129-0.452-0.189-0.696-0.184c-0.245,0.008-0.482,0.08-0.712,0.22c-0.229,0.139-0.405,0.315-0.524,0.529
			s-0.175,0.448-0.164,0.704c0.009,0.256,0.09,0.508,0.239,0.754c0.15,0.248,0.336,0.437,0.558,0.563
			c0.222,0.126,0.456,0.188,0.702,0.184c0.247-0.005,0.484-0.077,0.714-0.216S33.113,18.269,33.231,18.052z"/>
	</g>
	<g>
		<path d="M35.756,17.351c-0.377-0.045-0.714-0.182-1.01-0.411c-0.295-0.229-0.521-0.534-0.676-0.915
			c-0.155-0.379-0.207-0.754-0.156-1.124s0.195-0.703,0.434-0.997c0.237-0.293,0.549-0.518,0.934-0.676
			c0.386-0.157,0.764-0.214,1.138-0.17c0.374,0.043,0.708,0.18,1.003,0.409c0.296,0.229,0.521,0.534,0.676,0.913
			c0.156,0.381,0.209,0.756,0.157,1.126c-0.05,0.37-0.192,0.704-0.428,0.999c-0.235,0.294-0.544,0.521-0.93,0.678
			C36.512,17.341,36.131,17.396,35.756,17.351z M37.245,16.122c0.151-0.193,0.239-0.418,0.268-0.67
			c0.027-0.254-0.014-0.515-0.124-0.783c-0.109-0.268-0.262-0.482-0.459-0.643c-0.196-0.162-0.416-0.258-0.659-0.289
			c-0.243-0.032-0.489,0.004-0.737,0.105c-0.249,0.102-0.449,0.248-0.6,0.44c-0.152,0.193-0.243,0.416-0.273,0.67
			c-0.029,0.254,0.01,0.515,0.119,0.782c0.11,0.269,0.265,0.483,0.464,0.644c0.198,0.16,0.421,0.258,0.665,0.29
			c0.243,0.035,0.49,0,0.738-0.102S37.095,16.319,37.245,16.122z"/>
	</g>
	<g>
		<path d="M42.205,9.518l1.3,5.713l-0.708,0.161l-0.146-0.646c-0.113,0.263-0.282,0.481-0.507,0.657
			c-0.226,0.176-0.488,0.298-0.791,0.367c-0.396,0.09-0.77,0.083-1.122-0.021c-0.353-0.104-0.654-0.292-0.902-0.568
			c-0.249-0.275-0.42-0.617-0.514-1.029c-0.094-0.41-0.087-0.792,0.019-1.146c0.104-0.353,0.296-0.653,0.568-0.899
			c0.273-0.245,0.607-0.413,1.003-0.503c0.293-0.066,0.575-0.073,0.846-0.019c0.271,0.055,0.515,0.17,0.728,0.35l-0.512-2.249
			L42.205,9.518z M41.926,14.767c0.184-0.167,0.309-0.374,0.377-0.619s0.07-0.509,0.007-0.792c-0.064-0.281-0.181-0.519-0.349-0.71
			c-0.168-0.19-0.369-0.321-0.606-0.392s-0.484-0.075-0.741-0.017c-0.262,0.059-0.482,0.171-0.664,0.337
			c-0.182,0.165-0.308,0.37-0.378,0.616c-0.071,0.245-0.075,0.51-0.011,0.791c0.064,0.283,0.182,0.52,0.353,0.711
			c0.169,0.189,0.372,0.322,0.607,0.395c0.236,0.073,0.484,0.08,0.746,0.021C41.523,15.05,41.743,14.936,41.926,14.767z"/>
	</g>
	<g>
		<path d="M46.781,10.482l0.014,0.362l1.215-0.048l0.025,0.624l-1.199,0.047l0.141,3.558l-0.757,0.03l-0.141-3.558l-0.71,0.028
			l-0.025-0.624l0.71-0.028l-0.015-0.37c-0.016-0.416,0.092-0.75,0.324-1.002c0.233-0.252,0.566-0.385,1.004-0.402
			c0.168-0.007,0.327,0.009,0.476,0.045s0.276,0.091,0.386,0.165l-0.206,0.586C47.845,9.77,47.646,9.712,47.43,9.72
			C46.978,9.739,46.762,9.993,46.781,10.482z"/>
	</g>
	<g>
		<path d="M48.86,14.636c-0.317-0.209-0.556-0.481-0.717-0.818c-0.162-0.338-0.228-0.711-0.196-1.12s0.152-0.769,0.364-1.077
			c0.21-0.309,0.486-0.54,0.832-0.696c0.345-0.156,0.724-0.218,1.139-0.187s0.779,0.15,1.094,0.356
			c0.313,0.206,0.552,0.478,0.713,0.814c0.163,0.337,0.229,0.71,0.197,1.119s-0.152,0.769-0.365,1.077
			c-0.21,0.309-0.485,0.543-0.828,0.701c-0.342,0.159-0.72,0.222-1.135,0.19S49.178,14.845,48.86,14.636z M50.743,14.205
			c0.221-0.107,0.401-0.268,0.538-0.482c0.139-0.213,0.219-0.465,0.24-0.753c0.022-0.289-0.02-0.549-0.123-0.782
			c-0.104-0.231-0.257-0.416-0.46-0.553c-0.204-0.138-0.439-0.216-0.707-0.236s-0.513,0.021-0.734,0.126
			c-0.221,0.104-0.403,0.264-0.542,0.478c-0.141,0.214-0.222,0.465-0.244,0.754c-0.021,0.288,0.021,0.549,0.127,0.781
			c0.105,0.232,0.261,0.419,0.464,0.558c0.203,0.141,0.438,0.22,0.706,0.24S50.52,14.313,50.743,14.205z"/>
	</g>
	<g>
		<path d="M55.052,11.728c0.277-0.072,0.598-0.071,0.958,0.003l-0.147,0.72c-0.04-0.014-0.096-0.028-0.168-0.043
			c-0.402-0.082-0.743-0.027-1.021,0.166c-0.278,0.192-0.464,0.511-0.554,0.954l-0.418,2.042l-0.742-0.151l0.839-4.101l0.712,0.146
			l-0.142,0.688C54.545,11.941,54.773,11.8,55.052,11.728z"/>
	</g>
	<g>
		<path d="M57.297,16.481c-0.261-0.201-0.449-0.4-0.564-0.598l0.513-0.444c0.124,0.19,0.294,0.369,0.51,0.539
			c0.217,0.169,0.449,0.303,0.699,0.4c0.618,0.242,0.996,0.186,1.134-0.168c0.046-0.117,0.041-0.227-0.015-0.328
			c-0.058-0.101-0.142-0.191-0.255-0.272c-0.111-0.081-0.276-0.187-0.49-0.315c-0.295-0.171-0.529-0.328-0.702-0.469
			c-0.174-0.142-0.304-0.316-0.386-0.523s-0.071-0.449,0.036-0.724c0.138-0.353,0.396-0.578,0.774-0.677
			c0.377-0.098,0.813-0.051,1.309,0.143c0.26,0.102,0.507,0.235,0.742,0.4c0.234,0.166,0.414,0.334,0.54,0.508l-0.521,0.44
			c-0.237-0.33-0.572-0.579-1.004-0.748c-0.299-0.116-0.546-0.157-0.741-0.12c-0.194,0.037-0.323,0.137-0.387,0.298
			c-0.05,0.128-0.046,0.245,0.014,0.353c0.06,0.108,0.147,0.205,0.264,0.29c0.117,0.086,0.284,0.196,0.502,0.332
			c0.293,0.177,0.524,0.333,0.693,0.47c0.171,0.138,0.295,0.307,0.375,0.507c0.079,0.201,0.067,0.434-0.036,0.698
			c-0.138,0.354-0.397,0.574-0.781,0.666c-0.383,0.09-0.834,0.033-1.354-0.17C57.846,16.844,57.555,16.681,57.297,16.481z"/>
	</g>
	<g>
		<path d="M62.645,16.881l-1.15,0.279l-0.559,0.999l-0.661-0.37l2.858-5.113l0.661,0.37l-1.834,3.28l3.01-0.706l0.799,0.446
			l-2.381,0.65l0.49,3.087l-0.813-0.454L62.645,16.881z"/>
	</g>
	<g>
		<path d="M66.58,16.696l0.619,0.437l-2.409,3.421l-0.619-0.437L66.58,16.696z M67.135,15.927c-0.024-0.134,0.002-0.256,0.081-0.368
			c0.079-0.111,0.187-0.18,0.321-0.202c0.137-0.023,0.264,0.007,0.385,0.092c0.12,0.085,0.193,0.192,0.221,0.324
			c0.026,0.131,0,0.252-0.079,0.364c-0.081,0.116-0.19,0.187-0.325,0.21c-0.137,0.023-0.265-0.007-0.385-0.092
			C67.232,16.17,67.16,16.061,67.135,15.927z"/>
	</g>
	<g>
		<path d="M70.629,20.336c0.027,0.438-0.156,0.879-0.552,1.323l-1.604,1.796l-0.565-0.505l1.546-1.731
			c0.271-0.302,0.401-0.595,0.393-0.878c-0.009-0.282-0.148-0.545-0.42-0.787c-0.306-0.273-0.628-0.399-0.963-0.378
			c-0.336,0.021-0.654,0.198-0.952,0.532l-1.436,1.607l-0.565-0.505l2.787-3.121l0.542,0.483l-0.421,0.471
			c0.258-0.06,0.522-0.045,0.794,0.041c0.271,0.088,0.531,0.242,0.778,0.463C70.387,19.501,70.599,19.898,70.629,20.336z"/>
	</g>
	<g>
		<path d="M28.884,67.877l0.568,0.502l-1.426,1.617c-0.354-0.012-0.709-0.093-1.062-0.242s-0.677-0.355-0.973-0.616
			c-0.418-0.369-0.714-0.793-0.888-1.272c-0.174-0.48-0.214-0.964-0.123-1.456c0.094-0.489,0.316-0.937,0.672-1.339
			c0.354-0.403,0.771-0.682,1.248-0.837c0.478-0.154,0.965-0.174,1.462-0.058c0.498,0.116,0.959,0.36,1.381,0.733
			c0.332,0.292,0.584,0.611,0.759,0.959c0.175,0.347,0.265,0.708,0.27,1.085l-0.69,0.044c-0.05-0.613-0.309-1.127-0.779-1.541
			c-0.316-0.278-0.659-0.46-1.03-0.545c-0.37-0.085-0.733-0.068-1.09,0.05c-0.356,0.116-0.669,0.327-0.937,0.632
			c-0.265,0.3-0.433,0.634-0.506,1.002c-0.071,0.368-0.043,0.731,0.085,1.09c0.129,0.36,0.35,0.678,0.661,0.952
			c0.372,0.328,0.773,0.524,1.207,0.591L28.884,67.877z"/>
	</g>
	<g>
		<path d="M29.577,71.393c-0.187-0.331-0.275-0.683-0.266-1.056c0.009-0.374,0.122-0.736,0.336-1.086
			c0.214-0.351,0.485-0.615,0.813-0.793c0.328-0.18,0.682-0.26,1.06-0.241s0.743,0.136,1.098,0.353
			c0.355,0.217,0.626,0.488,0.812,0.815s0.273,0.677,0.264,1.051c-0.01,0.373-0.121,0.735-0.335,1.086
			c-0.214,0.35-0.486,0.614-0.814,0.793s-0.681,0.261-1.058,0.246c-0.376-0.015-0.741-0.131-1.097-0.348
			C30.035,71.996,29.764,71.724,29.577,71.393z M31.448,71.867c0.246,0.006,0.479-0.056,0.7-0.183
			c0.22-0.128,0.405-0.315,0.557-0.562s0.233-0.497,0.246-0.751c0.014-0.254-0.039-0.488-0.157-0.703
			c-0.119-0.214-0.292-0.392-0.521-0.531c-0.229-0.141-0.466-0.215-0.711-0.223s-0.479,0.051-0.701,0.178
			c-0.223,0.126-0.408,0.312-0.56,0.56s-0.233,0.498-0.243,0.754c-0.013,0.255,0.041,0.491,0.158,0.708
			c0.118,0.217,0.291,0.395,0.52,0.535C30.965,71.788,31.202,71.861,31.448,71.867z"/>
	</g>
	<g>
		<path d="M34.097,73.82c-0.236-0.297-0.379-0.631-0.428-1.001c-0.049-0.371,0.006-0.746,0.162-1.125
			c0.157-0.38,0.384-0.683,0.681-0.91s0.633-0.362,1.009-0.403s0.756,0.018,1.141,0.178c0.383,0.158,0.692,0.385,0.928,0.679
			c0.234,0.294,0.376,0.626,0.424,0.996c0.05,0.37-0.006,0.745-0.162,1.125c-0.157,0.379-0.383,0.683-0.681,0.91
			c-0.296,0.228-0.631,0.364-1.005,0.408c-0.375,0.044-0.755-0.013-1.139-0.172C34.642,74.345,34.334,74.118,34.097,73.82z
			 M36.019,73.996c0.244-0.033,0.465-0.13,0.662-0.29s0.352-0.374,0.463-0.642c0.11-0.268,0.152-0.528,0.126-0.78
			c-0.025-0.254-0.114-0.477-0.265-0.67s-0.35-0.342-0.598-0.444c-0.249-0.103-0.494-0.139-0.737-0.108
			c-0.244,0.03-0.465,0.125-0.665,0.284s-0.354,0.373-0.465,0.641c-0.111,0.268-0.152,0.528-0.124,0.782s0.117,0.479,0.268,0.675
			c0.149,0.195,0.348,0.345,0.597,0.447C35.529,73.994,35.775,74.029,36.019,73.996z"/>
	</g>
	<g>
		<path d="M43.553,70.961l-1.317,5.708l-0.707-0.163l0.149-0.646c-0.218,0.188-0.464,0.312-0.743,0.371
			c-0.279,0.061-0.569,0.055-0.872-0.015c-0.396-0.091-0.729-0.26-1.001-0.507c-0.272-0.246-0.462-0.548-0.565-0.904
			s-0.108-0.739-0.014-1.149c0.095-0.411,0.267-0.752,0.516-1.023c0.248-0.272,0.551-0.459,0.903-0.562s0.727-0.107,1.122-0.017
			c0.293,0.067,0.55,0.185,0.77,0.352c0.221,0.167,0.389,0.377,0.502,0.631l0.519-2.247L43.553,70.961z M41.015,75.566
			c0.238-0.071,0.44-0.203,0.609-0.395c0.168-0.19,0.284-0.427,0.35-0.709c0.064-0.282,0.064-0.545-0.004-0.791
			c-0.067-0.245-0.192-0.451-0.376-0.617c-0.183-0.166-0.402-0.279-0.659-0.339c-0.262-0.061-0.51-0.056-0.745,0.015
			c-0.234,0.07-0.438,0.2-0.608,0.391c-0.17,0.19-0.289,0.426-0.354,0.708c-0.065,0.282-0.062,0.546,0.008,0.792
			c0.069,0.246,0.195,0.453,0.375,0.621c0.18,0.169,0.4,0.283,0.662,0.344C40.53,75.645,40.777,75.638,41.015,75.566z"/>
	</g>
	<g>
		<path d="M46.747,72.448l-0.015,0.362l1.215,0.05l-0.025,0.623l-1.199-0.049l-0.146,3.558l-0.758-0.031l0.146-3.558l-0.71-0.029
			l0.025-0.623l0.71,0.029l0.016-0.371c0.017-0.416,0.151-0.739,0.403-0.972c0.252-0.231,0.596-0.338,1.032-0.32
			c0.168,0.007,0.326,0.034,0.472,0.082c0.146,0.049,0.269,0.114,0.37,0.197l-0.251,0.566c-0.169-0.139-0.361-0.212-0.577-0.221
			C47.004,71.723,46.767,71.957,46.747,72.448z"/>
	</g>
	<g>
		<path d="M49.289,77.007c-0.345-0.159-0.621-0.393-0.831-0.702c-0.211-0.309-0.331-0.668-0.361-1.078
			c-0.031-0.409,0.034-0.782,0.198-1.119c0.161-0.337,0.4-0.608,0.718-0.813c0.317-0.206,0.683-0.324,1.098-0.355
			c0.415-0.03,0.793,0.032,1.135,0.188s0.617,0.391,0.829,0.698c0.209,0.31,0.33,0.669,0.361,1.078
			c0.03,0.41-0.036,0.783-0.198,1.119c-0.163,0.338-0.401,0.609-0.716,0.817s-0.679,0.329-1.094,0.359
			C50.013,77.231,49.634,77.165,49.289,77.007z M51.086,76.298c0.203-0.139,0.356-0.324,0.461-0.556
			c0.104-0.232,0.146-0.493,0.124-0.782c-0.021-0.288-0.102-0.54-0.238-0.754c-0.138-0.214-0.316-0.373-0.538-0.479
			c-0.221-0.103-0.466-0.146-0.734-0.126c-0.268,0.021-0.502,0.099-0.707,0.233c-0.203,0.138-0.359,0.322-0.465,0.555
			c-0.107,0.231-0.149,0.493-0.128,0.781c0.021,0.289,0.102,0.54,0.242,0.755c0.139,0.213,0.32,0.373,0.542,0.48
			c0.223,0.108,0.467,0.152,0.734,0.132C50.647,76.518,50.883,76.439,51.086,76.298z"/>
	</g>
	<g>
		<path d="M54.213,72.305c0.228-0.175,0.521-0.3,0.883-0.374l0.147,0.72c-0.043,0.004-0.1,0.012-0.173,0.027
			c-0.401,0.082-0.693,0.268-0.873,0.554c-0.181,0.286-0.225,0.651-0.135,1.095l0.418,2.042l-0.742,0.152l-0.84-4.099l0.712-0.146
			l0.142,0.688C53.831,72.702,53.985,72.482,54.213,72.305z"/>
	</g>
	<g>
		<path d="M58.89,75.052c-0.327,0.028-0.6,0.01-0.818-0.059l0.076-0.673c0.219,0.056,0.465,0.071,0.739,0.049
			c0.274-0.021,0.536-0.082,0.786-0.18c0.617-0.241,0.857-0.539,0.719-0.892c-0.045-0.117-0.123-0.193-0.233-0.23
			c-0.11-0.035-0.234-0.046-0.372-0.028c-0.137,0.017-0.328,0.052-0.574,0.103c-0.333,0.072-0.611,0.116-0.835,0.13
			c-0.224,0.015-0.437-0.026-0.638-0.123s-0.355-0.282-0.463-0.557c-0.138-0.353-0.102-0.693,0.109-1.022
			c0.211-0.327,0.563-0.589,1.059-0.783c0.26-0.101,0.532-0.169,0.817-0.207c0.284-0.038,0.532-0.036,0.74,0.006l-0.083,0.677
			c-0.398-0.08-0.814-0.037-1.246,0.132c-0.299,0.116-0.508,0.254-0.626,0.414c-0.119,0.159-0.147,0.32-0.083,0.482
			c0.049,0.127,0.133,0.21,0.25,0.248c0.117,0.04,0.247,0.051,0.391,0.035c0.143-0.016,0.342-0.049,0.594-0.098
			c0.334-0.067,0.611-0.109,0.828-0.124c0.218-0.014,0.424,0.025,0.619,0.119c0.194,0.094,0.344,0.272,0.447,0.537
			c0.138,0.354,0.097,0.692-0.123,1.019c-0.221,0.326-0.59,0.592-1.109,0.795C59.543,74.946,59.219,75.022,58.89,75.052z"/>
	</g>
	<g>
		<path d="M63.106,71.32l-0.364,1.128l0.561,0.999l-0.661,0.371l-2.866-5.109l0.661-0.371l1.839,3.277l0.971-2.936l0.799-0.447
			l-0.689,2.37l2.888,1.194l-0.812,0.457L63.106,71.32z"/>
	</g>
	<g>
		<path d="M63.952,66.954c-0.134-0.021-0.241-0.088-0.32-0.199c-0.079-0.112-0.107-0.236-0.084-0.371
			c0.022-0.137,0.095-0.246,0.215-0.332c0.12-0.085,0.247-0.117,0.38-0.1c0.132,0.019,0.238,0.084,0.317,0.195
			c0.082,0.116,0.112,0.242,0.089,0.379c-0.023,0.135-0.095,0.245-0.215,0.33C64.213,66.943,64.086,66.975,63.952,66.954z
			 M64.49,67.734l0.618-0.438l2.42,3.414l-0.618,0.438L64.49,67.734z"/>
	</g>
	<g>
		<path d="M68.828,64.731c0.44,0.02,0.857,0.251,1.255,0.693l1.609,1.791l-0.563,0.507l-1.551-1.727
			c-0.271-0.302-0.549-0.465-0.83-0.486c-0.281-0.022-0.559,0.088-0.829,0.33c-0.306,0.274-0.466,0.579-0.482,0.916
			c-0.016,0.337,0.126,0.672,0.425,1.004l1.44,1.604l-0.564,0.507l-2.796-3.113l0.541-0.485l0.422,0.471
			c-0.031-0.264,0.012-0.524,0.128-0.785s0.298-0.501,0.545-0.723C67.972,64.878,68.389,64.71,68.828,64.731z"/>
	</g>
	<path d="M81.909,44.865c0,1.115-0.904,2.019-2.019,2.019c-1.114,0-2.018-0.904-2.018-2.019c0-1.115,0.904-2.019,2.018-2.019
		C81.005,42.845,81.909,43.75,81.909,44.865"/>
	<path d="M18.496,44.865c0,1.115-0.904,2.019-2.019,2.019c-1.114,0-2.018-0.904-2.018-2.019c0-1.115,0.904-2.019,2.018-2.019
		C17.592,42.845,18.496,43.75,18.496,44.865"/>
	<path d="M37.077,42.915c0.267-0.076,0.471-0.135,0.688-0.196c0.201-1.651,0.51-3.248,1.156-4.763
		c1.031-2.42,2.717-4.138,5.281-4.904c0.365-0.11,0.629-0.274,0.858-0.605c1.019-1.47,2.528-2.185,4.214-2.553
		c0.853-0.186,1.73-0.265,2.628-0.397c-0.566-0.346-1.215-0.477-1.855-0.588c-3.271-0.569-6.311-0.063-9.006,1.992
		c-0.13,0.098-0.304,0.204-0.455,0.198c-0.169-0.007-0.402-0.095-0.483-0.225c-0.081-0.132-0.069-0.392,0.01-0.536
		c0.101-0.181,0.302-0.314,0.478-0.443c2.036-1.472,4.295-2.231,6.825-2.269c2.672-0.039,5.125,0.591,7.3,2.161
		c2.508,1.811,4.008,4.299,4.698,7.28c0.468,2.016,0.563,4.052,0.088,6.092c-0.042,0.188-0.022,0.46,0.086,0.605
		c1.134,1.502,0.346,3.44-0.624,4.39c-0.157,0.154-0.311,0.336-0.505,0.419c-0.749,0.316-0.918,0.955-1.083,1.668
		c-0.625,2.695-1.842,5.081-3.895,6.985c-1.909,1.773-4.15,2.634-6.764,2.317c-1.776-0.216-3.292-1.031-4.606-2.224
		c-2.256-2.046-3.493-4.657-4.125-7.584c-0.095-0.443-0.262-0.723-0.659-0.961c-1.007-0.602-1.636-1.49-1.899-2.658
		c-0.181-0.794-0.054-1.507,0.379-2.165c0.204-0.313,0.237-0.575,0.157-0.945c-0.473-2.19-0.314-4.363,0.259-6.516
		c0.037-0.139,0.074-0.324,0.176-0.39c0.166-0.106,0.397-0.206,0.576-0.172c0.13,0.027,0.286,0.259,0.313,0.419
		c0.032,0.204-0.039,0.431-0.091,0.642c-0.455,1.874-0.564,3.758-0.206,5.661C37.001,42.719,37.033,42.785,37.077,42.915
		 M47.778,58.555c0.436-0.051,0.877-0.073,1.305-0.161c1.769-0.362,3.178-1.332,4.363-2.653c1.729-1.93,2.648-4.243,3.111-6.752
		c0.086-0.466,0.25-0.745,0.681-0.928c0.547-0.233,1.048-0.583,1.32-1.115c0.238-0.468,0.449-0.988,0.499-1.502
		c0.079-0.84-0.544-1.433-1.495-1.582c-0.771-0.12-0.779-0.128-0.909-0.88c-0.02-0.12-0.024-0.243-0.047-0.362
		c-0.188-0.98-0.397-1.955-0.561-2.937c-0.179-1.076-0.804-1.658-1.822-2.024c-2.702-0.978-5.463-1.404-8.331-1.181
		c-1.767,0.137-3.457,0.536-5.068,1.291c-0.64,0.299-1.027,0.725-1.235,1.419c-0.37,1.244-0.613,2.503-0.76,3.788
		c-0.086,0.765-0.155,0.793-0.901,0.872c-1.066,0.113-1.686,0.975-1.462,2.016c0.223,1.031,0.833,1.754,1.773,2.19
		c0.417,0.194,0.652,0.443,0.691,0.928c0.034,0.433,0.159,0.86,0.274,1.283c0.691,2.523,1.847,4.774,3.888,6.484
		C44.443,57.883,45.987,58.537,47.778,58.555 M58.397,42.94c0.049-0.127,0.086-0.191,0.1-0.26c0.357-1.877,0.279-3.748-0.169-5.595
		c-0.559-2.312-1.68-4.307-3.486-5.892c-0.404-0.355-0.826-0.571-1.386-0.541c-0.657,0.034-1.321-0.027-1.979,0.017
		c-1.445,0.098-2.862,0.343-4.126,1.112c-0.341,0.21-0.651,0.473-1.012,0.74c1.051,0.047,2.001,0.051,2.942,0.139
		c3.503,0.326,5.951,2.117,7.317,5.365c0.629,1.495,0.936,3.07,1.124,4.716C57.947,42.808,58.17,42.874,58.397,42.94 M41.023,36.458
		c4.606-1.653,9.028-1.369,13.559,0.145c-1.038-1.35-2.264-2.144-3.739-2.565c-1.669-0.477-3.373-0.542-5.078-0.26
		C43.932,34.081,42.327,34.836,41.023,36.458"/>
	<path d="M39.129,54.936c-0.22,0.226-0.336,0.443-0.512,0.512c-1.436,0.575-2.181,1.729-2.675,3.107
		c-0.101,0.287-0.238,0.556-0.6,0.541c-0.318-0.014-0.441-0.257-0.536-0.52c-0.057-0.161-0.122-0.319-0.189-0.475
		c-0.495-1.156-1.191-2.126-2.416-2.604c-0.247-0.096-0.416-0.24-0.422-0.529c-0.007-0.292,0.159-0.455,0.404-0.546
		c1.32-0.497,1.997-1.573,2.524-2.786c0.039-0.09,0.061-0.186,0.093-0.277c0.091-0.26,0.196-0.502,0.534-0.515
		c0.37-0.015,0.497,0.242,0.613,0.522c0.14,0.336,0.267,0.681,0.438,1c0.485,0.901,1.125,1.641,2.111,2.04
		C38.714,54.493,38.878,54.72,39.129,54.936 M35.397,56.964c0.23-0.308,0.485-0.673,0.767-1.017
		c0.291-0.355,0.607-0.689,0.889-1.007c-0.547-0.639-1.136-1.323-1.685-1.963c-0.564,0.659-1.142,1.333-1.698,1.98
		C34.229,55.607,34.795,56.264,35.397,56.964"/>
	<path d="M40.156,32.259c-0.213,0.226-0.328,0.438-0.502,0.517c-0.875,0.39-1.303,1.132-1.627,1.965
		c-0.044,0.113-0.073,0.235-0.137,0.336c-0.248,0.39-0.708,0.384-0.933-0.019c-0.083-0.147-0.113-0.321-0.181-0.477
		c-0.323-0.75-0.728-1.413-1.517-1.789c-0.558-0.267-0.559-0.762-0.019-1.032c0.798-0.399,1.24-1.065,1.551-1.854
		c0.027-0.068,0.047-0.139,0.071-0.206c0.103-0.287,0.235-0.561,0.595-0.542c0.313,0.015,0.441,0.259,0.541,0.52
		c0.095,0.25,0.189,0.5,0.308,0.738c0.275,0.558,0.657,1.01,1.23,1.301C39.75,31.826,39.912,32.041,40.156,32.259 M36.531,32.267
		c0.309,0.373,0.61,0.735,0.907,1.093c0.321-0.389,0.612-0.738,0.897-1.087c-0.309-0.377-0.598-0.728-0.904-1.1
		C37.129,31.542,36.84,31.892,36.531,32.267"/>
	<path d="M63.822,51.849c-0.181,0.211-0.282,0.429-0.448,0.509c-0.863,0.407-1.315,1.129-1.617,1.982
		c-0.041,0.115-0.081,0.233-0.144,0.336c-0.253,0.409-0.684,0.409-0.923-0.012c-0.12-0.21-0.184-0.449-0.282-0.673
		c-0.299-0.688-0.723-1.254-1.418-1.607c-0.571-0.292-0.603-0.769-0.059-1.026c0.843-0.397,1.272-1.1,1.6-1.908
		c0.054-0.133,0.09-0.282,0.169-0.4c0.255-0.392,0.698-0.367,0.929,0.047c0.059,0.105,0.095,0.223,0.139,0.338
		c0.311,0.816,0.733,1.534,1.58,1.92C63.522,51.433,63.631,51.644,63.822,51.849 M60.225,51.857c0.326,0.372,0.632,0.723,0.945,1.08
		c0.328-0.402,0.602-0.738,0.877-1.078c-0.311-0.379-0.6-0.73-0.892-1.087C60.843,51.136,60.559,51.467,60.225,51.857"/>
	<path d="M63.347,31.245c-0.196,0.204-0.313,0.397-0.485,0.493c-0.573,0.316-0.882,0.818-1.093,1.406
		c-0.041,0.115-0.076,0.235-0.134,0.34c-0.255,0.453-0.708,0.456-0.961,0.007c-0.059-0.105-0.086-0.226-0.13-0.34
		c-0.225-0.578-0.531-1.076-1.095-1.411c-0.512-0.304-0.514-0.708-0.005-1c0.571-0.326,0.867-0.833,1.098-1.406
		c0.044-0.113,0.052-0.265,0.132-0.335c0.152-0.13,0.341-0.287,0.52-0.296c0.144-0.007,0.338,0.164,0.433,0.306
		c0.132,0.199,0.181,0.449,0.286,0.669c0.211,0.449,0.499,0.825,0.956,1.068C63.039,30.837,63.154,31.038,63.347,31.245
		 M60.663,31.186c0.198,0.257,0.348,0.453,0.517,0.673c0.191-0.252,0.319-0.419,0.473-0.622c-0.169-0.21-0.326-0.404-0.507-0.627
		C60.954,30.84,60.803,31.019,60.663,31.186"/>
	<path d="M51.548,51.706c-0.946,1.347-2.266,1.94-3.832,1.935c-1.539-0.007-2.832-0.607-3.738-1.877
		c0.328-0.738,0.573-0.818,1.078-0.343c0.529,0.497,1.115,0.869,1.823,1.034c1.318,0.308,2.457-0.044,3.447-0.941
		c0.035-0.032,0.068-0.071,0.105-0.103C50.921,50.978,51.11,51.015,51.548,51.706"/>
	<path d="M51.716,40.841c0.816-0.02,1.511,0.382,2.05,1.073c0.115,0.147,0.223,0.346,0.223,0.52c0.002,0.164-0.106,0.399-0.24,0.475
		c-0.135,0.076-0.379,0.042-0.537-0.029c-0.142-0.064-0.228-0.245-0.343-0.372c-0.755-0.84-1.86-0.821-2.606,0.046
		c-0.047,0.056-0.081,0.122-0.127,0.179c-0.208,0.274-0.471,0.343-0.769,0.174c-0.281-0.161-0.314-0.466-0.079-0.83
		C49.835,41.231,50.621,40.82,51.716,40.841"/>
	<path d="M46.402,42.529c-0.118,0.135-0.215,0.338-0.367,0.395c-0.155,0.059-0.385,0.017-0.541-0.061
		c-0.14-0.069-0.218-0.253-0.335-0.379c-0.711-0.755-1.724-0.774-2.457-0.044c-0.103,0.103-0.191,0.221-0.287,0.331
		c-0.206,0.233-0.463,0.292-0.715,0.113c-0.291-0.204-0.281-0.49-0.106-0.774c0.348-0.563,0.855-0.924,1.47-1.144
		c1.136-0.404,2.599,0.14,3.17,1.176C46.292,42.247,46.329,42.362,46.402,42.529"/>
	<path d="M43.832,46.641c-0.711-0.008-1.408-0.198-2.021-0.642c-0.338-0.245-0.426-0.553-0.265-0.811
		c0.157-0.253,0.473-0.309,0.843-0.081c1.017,0.627,2.016,0.61,3.033,0.003c0.382-0.226,0.657-0.176,0.838,0.09
		c0.188,0.27,0.115,0.529-0.255,0.798C45.372,46.455,44.65,46.643,43.832,46.641"/>
	<path d="M51.568,46.642c-0.695-0.005-1.372-0.171-1.979-0.576c-0.466-0.311-0.575-0.58-0.362-0.882
		c0.191-0.27,0.463-0.296,0.904-0.034c0.814,0.483,1.654,0.547,2.524,0.199c0.179-0.071,0.336-0.198,0.51-0.286
		c0.291-0.145,0.586-0.167,0.771,0.144c0.177,0.301,0.054,0.564-0.215,0.76C53.091,46.432,52.376,46.637,51.568,46.642"/>
</g>
</svg>
