<?xml version="1.0" encoding="utf-8"?>
<!-- Generator: Adobe Illustrator 28.0.0, SVG Export Plug-In . SVG Version: 6.00 Build 0)  -->
<svg version="1.1" id="Layer_1" xmlns="http://www.w3.org/2000/svg" xmlns:xlink="http://www.w3.org/1999/xlink" x="0px" y="0px"
	 viewBox="0 0 95.745 85.787" enable-background="new 0 0 95.745 85.787" xml:space="preserve">
<g>
	<path d="M86.327,42.905c0.046,21.097-17.112,38.329-38.226,38.447C26.801,81.471,9.528,64.218,9.419,43.105
		C9.307,21.776,26.636,4.433,47.876,4.434C69.086,4.434,86.384,21.705,86.327,42.905 M84.9,42.893
		C84.917,22.817,68.876,6.325,48.716,5.877c-20.647-0.458-37.59,15.955-37.861,36.524C10.585,62.996,27.08,79.803,47.68,79.918
		C68.28,80.033,84.912,63.365,84.9,42.893"/>
	<path d="M73.691,42.945c-0.073,14.214-11.575,25.875-26.07,25.75c-14.047-0.123-25.586-11.548-25.544-25.877
		c0.042-14.289,11.609-25.745,25.838-25.727C62.226,17.11,73.679,28.722,73.691,42.945 M72.226,42.904
		c0.047-13.464-10.909-24.316-24.25-24.37C34.509,18.48,23.537,29.42,23.519,42.852c-0.02,13.396,10.831,24.322,24.233,24.402
		C61.143,67.331,72.272,56.427,72.226,42.904"/>
	<path d="M45.197,46.41c0.828-0.872,1.776-1.47,2.987-1.514c1.744-0.064,3.437,1.105,4.094,2.803
		c0.64,1.659,0.134,3.532-1.225,4.758c-0.564,0.507-1.08,1.083-1.543,1.685c-0.465,0.603-0.642,1.326-0.635,2.104
		c0.017,1.942,0.007,3.883,0.002,5.823c0,0.193,0.012,0.417-0.078,0.568c-0.085,0.139-0.306,0.284-0.455,0.27
		c-0.145-0.012-0.287-0.208-0.404-0.346c-0.047-0.054-0.027-0.171-0.027-0.26c0-2.136-0.039-4.273,0.017-6.409
		c0.047-1.779,1.137-3.009,2.396-4.115c0.997-0.875,1.497-1.957,1.168-3.283c-0.35-1.401-1.262-2.301-2.687-2.582
		c-1.256-0.248-2.2,0.362-2.981,1.277c-0.59,0.691-0.695,0.696-1.291,0c-0.872-1.016-1.926-1.626-3.293-1.206
		c-1.399,0.427-2.247,1.428-2.447,2.878c-0.166,1.208,0.389,2.156,1.281,2.952c0.634,0.566,1.244,1.166,1.798,1.808
		c0.455,0.525,0.602,1.191,0.598,1.894c-0.008,2.19-0.002,4.38-0.003,6.57c0,0.161,0.039,0.363-0.041,0.468
		c-0.123,0.162-0.333,0.343-0.512,0.35c-0.13,0.005-0.308-0.238-0.394-0.407c-0.066-0.128-0.024-0.314-0.024-0.473
		c0-2.067-0.029-4.133,0.014-6.198c0.019-0.865-0.245-1.573-0.831-2.17c-0.372-0.38-0.764-0.749-1.186-1.071
		c-1.443-1.103-2.058-3.043-1.467-4.721c0.634-1.798,2.334-3.016,4.142-2.969C43.182,44.918,43.934,45.291,45.197,46.41"/>
	<path d="M47.832,40.657c-0.61-0.091-1.164-0.125-1.691-0.264c-1.936-0.509-3.077-2.291-2.9-4.468
		c0.149-1.823,1.632-3.322,3.499-3.549c1.075-0.13,2.156-0.23,3.217-0.429c0.887-0.166,1.639-0.64,2.298-1.276
		c2.078-2.001,4.172-3.984,6.259-5.975c0.078-0.074,0.155-0.149,0.233-0.22c0.233-0.21,0.529-0.27,0.691-0.005
		c0.1,0.167,0.083,0.547-0.044,0.684c-0.526,0.578-1.112,1.102-1.678,1.642c-1.534,1.462-3.101,2.889-4.591,4.393
		c-1.352,1.364-3.016,1.877-4.848,2.051c-0.635,0.061-1.289,0.059-1.901,0.216c-1.467,0.375-2.285,1.666-2.18,3.303
		c0.093,1.414,1.166,2.592,2.584,2.775c0.47,0.061,0.955,0.017,1.433,0.005c0.495-0.012,0.669,0.177,0.637,0.667
		c-0.029,0.441-0.081,0.896-0.015,1.328c0.262,1.703,1.688,2.825,3.359,2.687c1.715-0.142,2.879-1.413,2.913-3.163
		c0.017-0.887,0.02-1.778,0.1-2.661c0.076-0.858,0.453-1.593,1.098-2.19c0.431-0.399,0.835-0.826,1.249-1.244
		c0.24-0.242,0.512-0.37,0.786-0.088c0.275,0.284,0.127,0.549-0.113,0.786c-0.355,0.35-0.683,0.732-1.063,1.051
		c-0.804,0.676-1.059,1.571-1.102,2.562c-0.039,0.887,0.046,1.795-0.111,2.658c-0.38,2.109-2.247,3.457-4.346,3.249
		c-2.18-0.216-3.719-1.844-3.773-3.988C47.828,41.022,47.832,40.846,47.832,40.657"/>
	<path d="M64.47,29.612c-0.13,0.174-0.216,0.33-0.338,0.444c-1.35,1.262-2.707,2.519-4.061,3.778
		c-0.238,0.221-0.502,0.399-0.786,0.105c-0.296-0.308-0.128-0.578,0.134-0.82c1.357-1.257,2.705-2.523,4.076-3.761
		c0.15-0.135,0.438-0.176,0.652-0.157C64.257,29.21,64.348,29.447,64.47,29.612"/>
	<path d="M42.015,37.891c0.127,0.101,0.326,0.182,0.368,0.314c0.049,0.154,0.029,0.441-0.074,0.517
		c-1.533,1.139-1.746,2.692-1.475,4.431c0.025,0.157-0.218,0.443-0.397,0.512c-0.115,0.044-0.433-0.162-0.504-0.324
		c-0.681-1.571,0.242-4.4,1.698-5.279C41.734,38,41.853,37.962,42.015,37.891"/>
	<path d="M57.433,45.903c0.226,0.074,0.363,0.112,0.493,0.162c1.183,0.47,2.371,0.931,3.545,1.424
		c0.203,0.084,0.424,0.279,0.504,0.477c0.12,0.304-0.259,0.645-0.588,0.519c-1.369-0.529-2.731-1.078-4.079-1.654
		c-0.135-0.057-0.257-0.355-0.233-0.517C57.099,46.155,57.318,46.026,57.433,45.903"/>
	<path d="M36.718,39.71c-1.487-0.296-2.815-0.544-4.13-0.845c-0.157-0.035-0.365-0.379-0.335-0.539
		c0.029-0.155,0.357-0.392,0.515-0.365c1.33,0.226,2.655,0.488,3.971,0.787c0.167,0.037,0.395,0.358,0.377,0.522
		C37.095,39.451,36.823,39.603,36.718,39.71"/>
	<path d="M45.32,36.613c0.046-1.277,0.721-2.214,1.92-2.611c0.308-0.101,0.627-0.149,0.774,0.211c0.155,0.384-0.09,0.573-0.429,0.71
		c-1.068,0.428-1.428,1.095-1.218,2.22c0.025,0.139,0.115,0.301,0.071,0.409c-0.076,0.188-0.211,0.451-0.363,0.48
		c-0.157,0.032-0.468-0.134-0.526-0.284C45.413,37.392,45.389,36.995,45.32,36.613"/>
	<path d="M35.891,32.254c0.169,0.134,0.346,0.226,0.456,0.37c0.757,0.988,1.501,1.987,2.246,2.984
		c0.188,0.252,0.275,0.532-0.014,0.754c-0.301,0.233-0.563,0.103-0.772-0.177c-0.745-0.997-1.502-1.985-2.225-2.998
		c-0.113-0.157-0.122-0.429-0.088-0.634C35.511,32.447,35.725,32.372,35.891,32.254"/>
	<path d="M50.184,49.073c-0.166,0.482-0.318,0.967-0.499,1.443c-0.127,0.333-0.394,0.488-0.723,0.321
		c-0.309-0.157-0.308-0.441-0.155-0.735c0.081-0.157,0.154-0.319,0.211-0.487c0.269-0.787,0.111-1.277-0.556-1.768
		c-0.101-0.073-0.259-0.115-0.301-0.211c-0.091-0.204-0.231-0.493-0.152-0.635c0.078-0.137,0.441-0.235,0.618-0.172
		C49.508,47.138,50.106,48.081,50.184,49.073"/>
	<path d="M33.394,46.114c-0.098-0.091-0.345-0.215-0.358-0.358c-0.015-0.182,0.106-0.465,0.259-0.559
		c0.465-0.289,0.972-0.509,1.462-0.754c0.554-0.279,1.097-0.59,1.671-0.811c0.177-0.069,0.449,0.112,0.679,0.177
		c-0.071,0.215-0.078,0.544-0.221,0.624c-1.043,0.566-2.111,1.083-3.173,1.612C33.65,46.075,33.574,46.075,33.394,46.114"/>
	<path d="M58.012,53.722c-0.088,0.09-0.215,0.324-0.36,0.338c-0.186,0.017-0.475-0.095-0.564-0.243
		c-0.318-0.531-0.573-1.098-0.85-1.653c-0.245-0.492-0.527-0.97-0.711-1.484c-0.066-0.179,0.111-0.446,0.177-0.673
		c0.213,0.068,0.542,0.073,0.62,0.215c0.573,1.06,1.097,2.146,1.634,3.224C57.981,53.492,57.979,53.549,58.012,53.722"/>
	<path d="M58.264,43.734c-0.11-0.096-0.357-0.215-0.358-0.336c-0.003-0.21,0.086-0.519,0.243-0.615
		c0.541-0.331,1.129-0.59,1.698-0.875c0.475-0.238,0.938-0.514,1.435-0.688c0.177-0.063,0.443,0.125,0.669,0.199
		c-0.076,0.211-0.088,0.537-0.235,0.617c-1.043,0.566-2.112,1.08-3.173,1.609C58.481,43.677,58.41,43.688,58.264,43.734"/>
	<g>
		<path d="M15.539,33.658c0.432-0.313,0.939-0.396,1.521-0.248c0.582,0.147,0.987,0.462,1.219,0.943
			c0.231,0.482,0.257,1.071,0.081,1.766l-0.336,1.323l1.623,0.412l-0.194,0.765l-5.357-1.359l0.53-2.09
			C14.801,34.476,15.107,33.972,15.539,33.658z M17.661,34.783c-0.142-0.307-0.406-0.51-0.795-0.608
			c-0.387-0.099-0.718-0.047-0.988,0.156c-0.271,0.202-0.469,0.547-0.592,1.031l-0.33,1.301l2.403,0.61l0.33-1.301
			C17.812,35.488,17.801,35.091,17.661,34.783z"/>
	</g>
	<g>
		<path d="M17.566,31.085c-0.021-0.285,0.038-0.6,0.176-0.941l0.682,0.274c-0.021,0.037-0.045,0.09-0.073,0.158
			c-0.153,0.381-0.159,0.726-0.021,1.034c0.14,0.31,0.42,0.548,0.84,0.718l1.933,0.778l-0.284,0.703l-3.881-1.564l0.272-0.674
			l0.65,0.264C17.686,31.622,17.588,31.372,17.566,31.085z"/>
	</g>
	<g>
		<path d="M21.895,30.625c-0.322,0.2-0.671,0.304-1.045,0.311c-0.373,0.006-0.739-0.091-1.099-0.29s-0.634-0.459-0.827-0.779
			c-0.192-0.32-0.287-0.67-0.285-1.048c0.002-0.379,0.104-0.749,0.306-1.113c0.202-0.363,0.462-0.645,0.78-0.845
			c0.319-0.199,0.665-0.302,1.039-0.308c0.374-0.007,0.739,0.09,1.099,0.289s0.635,0.46,0.827,0.779
			c0.192,0.321,0.29,0.67,0.291,1.047s-0.099,0.748-0.301,1.111C22.479,30.143,22.216,30.424,21.895,30.625z M22.288,28.735
			c-0.005-0.245-0.075-0.476-0.212-0.69c-0.137-0.214-0.332-0.393-0.585-0.533c-0.253-0.14-0.507-0.211-0.762-0.214
			s-0.485,0.06-0.695,0.188c-0.209,0.128-0.378,0.309-0.509,0.543c-0.13,0.235-0.194,0.475-0.192,0.721
			c0.003,0.245,0.071,0.476,0.207,0.692s0.33,0.396,0.583,0.535c0.253,0.141,0.508,0.212,0.764,0.212s0.488-0.062,0.7-0.189
			c0.212-0.126,0.383-0.307,0.513-0.541C22.231,29.222,22.293,28.982,22.288,28.735z"/>
	</g>
	<g>
		<path d="M25.403,20.057c0.433-0.031,0.876,0.15,1.328,0.544l1.815,1.582l-0.498,0.571l-1.75-1.524
			c-0.306-0.267-0.598-0.396-0.875-0.39c-0.277,0.006-0.529,0.14-0.758,0.401c-0.252,0.29-0.363,0.599-0.331,0.926
			c0.032,0.328,0.217,0.641,0.554,0.934l1.625,1.416l-0.498,0.571l-1.75-1.524c-0.306-0.267-0.598-0.396-0.875-0.391
			s-0.529,0.141-0.758,0.402c-0.253,0.289-0.363,0.598-0.331,0.926c0.031,0.328,0.216,0.64,0.553,0.933l1.625,1.416l-0.498,0.571
			l-3.154-2.749l0.478-0.548l0.471,0.41c-0.062-0.256-0.057-0.516,0.021-0.776c0.077-0.262,0.22-0.511,0.427-0.749
			c0.215-0.246,0.454-0.421,0.72-0.524c0.265-0.104,0.537-0.125,0.819-0.062c-0.079-0.278-0.078-0.567,0.004-0.87
			c0.081-0.302,0.238-0.587,0.47-0.853C24.581,20.302,24.971,20.089,25.403,20.057z"/>
	</g>
	<g>
		<path d="M29.705,21.29c-0.376,0.051-0.736,0.003-1.079-0.145c-0.344-0.146-0.638-0.385-0.885-0.714
			c-0.245-0.329-0.391-0.679-0.435-1.05c-0.045-0.372,0.012-0.729,0.168-1.073c0.157-0.345,0.402-0.641,0.734-0.89
			c0.333-0.249,0.687-0.399,1.059-0.451s0.73-0.004,1.074,0.144c0.343,0.147,0.638,0.386,0.883,0.714
			c0.247,0.33,0.392,0.68,0.437,1.05c0.044,0.372-0.011,0.729-0.163,1.074c-0.154,0.345-0.396,0.642-0.729,0.891
			S30.08,21.24,29.705,21.29z M30.838,19.727c0.098-0.227,0.127-0.465,0.09-0.716c-0.037-0.253-0.143-0.494-0.316-0.727
			c-0.172-0.231-0.375-0.401-0.605-0.507c-0.231-0.107-0.468-0.146-0.711-0.114c-0.244,0.031-0.473,0.127-0.688,0.287
			c-0.215,0.161-0.372,0.354-0.47,0.578c-0.099,0.225-0.13,0.463-0.096,0.717c0.035,0.253,0.14,0.496,0.312,0.728
			c0.174,0.232,0.377,0.4,0.61,0.506c0.233,0.104,0.472,0.143,0.717,0.113c0.244-0.027,0.475-0.123,0.689-0.284
			C30.586,20.148,30.743,19.954,30.838,19.727z"/>
	</g>
	<g>
		<path d="M34.887,17.837c-0.049,0.137-0.133,0.268-0.25,0.392s-0.252,0.229-0.402,0.314c-0.366,0.208-0.706,0.271-1.02,0.188
			c-0.312-0.084-0.573-0.308-0.781-0.675l-1.133-1.998l-0.618,0.351l-0.308-0.543l0.617-0.351l-0.451-0.797l0.659-0.374l0.452,0.797
			l1.043-0.592l0.309,0.543l-1.044,0.592l1.117,1.971c0.112,0.197,0.247,0.32,0.405,0.37s0.329,0.022,0.512-0.082
			c0.202-0.114,0.341-0.269,0.418-0.464L34.887,17.837z"/>
	</g>
	<g>
		<path d="M37.928,14.728l-3.134,1.308c0.186,0.321,0.449,0.532,0.79,0.634c0.342,0.1,0.701,0.069,1.08-0.089
			c0.462-0.192,0.769-0.503,0.92-0.931l0.575,0.289c-0.089,0.278-0.241,0.523-0.458,0.739c-0.215,0.215-0.482,0.391-0.803,0.524
			c-0.408,0.171-0.805,0.238-1.19,0.201c-0.386-0.035-0.728-0.167-1.026-0.398c-0.299-0.229-0.526-0.532-0.686-0.911
			c-0.155-0.374-0.213-0.746-0.17-1.117c0.041-0.372,0.174-0.702,0.398-0.992c0.223-0.291,0.52-0.513,0.889-0.667
			s0.734-0.208,1.093-0.161s0.683,0.187,0.972,0.421c0.287,0.233,0.514,0.544,0.676,0.933
			C37.875,14.563,37.901,14.636,37.928,14.728z M34.647,14.566c-0.141,0.298-0.161,0.621-0.062,0.967l2.477-1.034
			c-0.174-0.31-0.418-0.52-0.729-0.632s-0.636-0.099-0.972,0.041C35.026,14.048,34.787,14.268,34.647,14.566z"/>
	</g>
	<g>
		<path d="M39.348,16.172c-0.329-0.008-0.599-0.058-0.808-0.149l0.151-0.66c0.212,0.08,0.455,0.124,0.729,0.133
			c0.274,0.008,0.542-0.021,0.802-0.091c0.641-0.17,0.912-0.438,0.815-0.804c-0.032-0.123-0.102-0.208-0.207-0.256
			c-0.105-0.049-0.228-0.072-0.366-0.071c-0.139,0.002-0.332,0.015-0.582,0.036c-0.339,0.036-0.621,0.048-0.844,0.037
			c-0.224-0.012-0.431-0.076-0.62-0.195c-0.189-0.118-0.322-0.319-0.397-0.604c-0.098-0.366-0.022-0.701,0.224-1.004
			c0.247-0.302,0.627-0.521,1.141-0.658c0.27-0.071,0.548-0.108,0.835-0.114s0.532,0.024,0.735,0.09l-0.159,0.664
			c-0.387-0.127-0.806-0.131-1.253-0.012c-0.311,0.083-0.533,0.196-0.669,0.341c-0.136,0.146-0.182,0.303-0.137,0.471
			c0.035,0.132,0.108,0.224,0.221,0.275c0.111,0.052,0.24,0.078,0.384,0.078c0.145,0,0.345-0.01,0.602-0.029
			c0.34-0.029,0.619-0.04,0.837-0.03c0.218,0.011,0.418,0.072,0.602,0.188c0.183,0.115,0.311,0.31,0.384,0.584
			c0.097,0.366,0.019,0.7-0.237,0.999s-0.652,0.521-1.192,0.665C40.007,16.142,39.677,16.18,39.348,16.172z"/>
	</g>
	<g>
		<path d="M48.832,12.596c0.195,0.226,0.3,0.518,0.315,0.876c0.021,0.478-0.142,0.854-0.49,1.128
			c-0.35,0.273-0.868,0.426-1.558,0.456l-2.634,0.117l-0.245-5.521l2.477-0.11c0.632-0.028,1.124,0.077,1.481,0.313
			c0.354,0.237,0.542,0.58,0.562,1.026c0.013,0.289-0.043,0.542-0.168,0.759c-0.123,0.215-0.297,0.385-0.519,0.505
			C48.379,12.22,48.639,12.371,48.832,12.596z M45.037,10.255l0.079,1.767l1.617-0.072c0.405-0.018,0.713-0.105,0.924-0.265
			c0.213-0.16,0.312-0.385,0.3-0.674c-0.014-0.29-0.133-0.504-0.357-0.644c-0.225-0.141-0.54-0.202-0.945-0.185L45.037,10.255z
			 M48.04,14.153c0.22-0.157,0.323-0.394,0.31-0.709c-0.027-0.615-0.491-0.903-1.391-0.863l-1.814,0.081l0.081,1.838l1.814-0.081
			C47.488,14.399,47.821,14.311,48.04,14.153z"/>
	</g>
	<g>
		<path d="M50.477,14.842c-0.306-0.224-0.531-0.508-0.677-0.853c-0.145-0.345-0.192-0.721-0.141-1.128
			c0.051-0.407,0.189-0.761,0.415-1.059c0.227-0.298,0.515-0.516,0.866-0.655c0.352-0.139,0.733-0.182,1.146-0.13
			s0.771,0.188,1.074,0.409c0.305,0.221,0.528,0.504,0.674,0.849c0.146,0.344,0.192,0.72,0.142,1.128
			c-0.052,0.407-0.189,0.76-0.416,1.058c-0.226,0.298-0.513,0.518-0.863,0.659c-0.349,0.143-0.729,0.188-1.143,0.136
			S50.784,15.067,50.477,14.842z M52.377,14.504c0.228-0.097,0.414-0.248,0.562-0.456c0.147-0.206,0.24-0.453,0.276-0.74
			s0.007-0.55-0.085-0.787c-0.093-0.236-0.236-0.429-0.433-0.575s-0.428-0.236-0.694-0.271c-0.267-0.033-0.513-0.003-0.739,0.091
			s-0.416,0.244-0.565,0.45c-0.151,0.207-0.244,0.453-0.28,0.741c-0.036,0.287-0.007,0.549,0.089,0.786
			c0.094,0.238,0.24,0.432,0.436,0.58c0.196,0.149,0.428,0.241,0.693,0.274C51.905,14.631,52.151,14.6,52.377,14.504z"/>
	</g>
	<g>
		<path d="M58.536,13.007c0.213,0.384,0.234,0.861,0.066,1.432l-0.684,2.31l-0.728-0.215l0.659-2.227
			c0.114-0.389,0.108-0.708-0.02-0.961c-0.129-0.252-0.368-0.43-0.716-0.532c-0.394-0.117-0.738-0.094-1.032,0.068
			c-0.296,0.163-0.508,0.459-0.635,0.888l-0.611,2.067l-0.727-0.215l1.188-4.013l0.697,0.206l-0.18,0.605
			c0.207-0.164,0.452-0.264,0.735-0.301c0.282-0.038,0.582-0.01,0.9,0.085C57.96,12.356,58.322,12.623,58.536,13.007z"/>
	</g>
	<g>
		<path d="M63.058,17.059l-3.059-1.474c-0.118,0.353-0.101,0.689,0.052,1.011c0.152,0.322,0.413,0.572,0.782,0.75
			c0.451,0.217,0.888,0.24,1.308,0.069l0.165,0.623c-0.267,0.116-0.553,0.166-0.856,0.148c-0.304-0.019-0.612-0.103-0.925-0.254
			c-0.398-0.191-0.712-0.443-0.942-0.756c-0.229-0.312-0.356-0.656-0.383-1.031c-0.027-0.375,0.049-0.747,0.227-1.117
			c0.176-0.365,0.417-0.654,0.722-0.87s0.641-0.336,1.007-0.36c0.365-0.026,0.729,0.049,1.089,0.222
			c0.36,0.174,0.642,0.41,0.846,0.71c0.203,0.299,0.313,0.635,0.331,1.005c0.017,0.37-0.065,0.746-0.248,1.125
			C63.147,16.912,63.108,16.978,63.058,17.059z M60.999,14.499c-0.315,0.093-0.57,0.291-0.764,0.596l2.419,1.165
			c0.115-0.336,0.11-0.658-0.014-0.966c-0.123-0.308-0.348-0.541-0.676-0.698C61.639,14.439,61.317,14.407,60.999,14.499z"/>
	</g>
	<g>
		<path d="M71.415,18.665l-3.492,4.284l-0.611-0.498l1.557-1.91l-2.461-2.006l-1.557,1.91l-0.612-0.499l3.492-4.284l0.612,0.499
			l-1.502,1.842l2.461,2.006l1.502-1.842L71.415,18.665z"/>
	</g>
	<g>
		<path d="M72.328,25.231l-2.215-2.572c-0.249,0.277-0.366,0.592-0.356,0.948c0.011,0.354,0.151,0.688,0.419,0.999
			c0.326,0.379,0.716,0.575,1.171,0.587l-0.098,0.637c-0.291,0-0.574-0.069-0.845-0.207c-0.271-0.137-0.521-0.338-0.747-0.602
			c-0.288-0.335-0.477-0.691-0.561-1.069c-0.087-0.377-0.066-0.744,0.06-1.098c0.125-0.355,0.344-0.666,0.654-0.934
			c0.308-0.265,0.644-0.435,1.01-0.51c0.365-0.076,0.722-0.052,1.067,0.071c0.345,0.123,0.648,0.336,0.909,0.638
			c0.261,0.304,0.424,0.634,0.491,0.989c0.066,0.355,0.033,0.707-0.099,1.054c-0.132,0.346-0.357,0.657-0.677,0.932
			C72.468,25.132,72.407,25.178,72.328,25.231z M71.464,22.063c-0.326-0.041-0.64,0.039-0.938,0.24l1.752,2.034
			c0.24-0.261,0.365-0.559,0.374-0.89c0.01-0.332-0.104-0.636-0.341-0.911C72.075,22.263,71.792,22.104,71.464,22.063z"/>
	</g>
	<g>
		<path d="M75.996,27.357c-0.074,0.412-0.349,0.77-0.824,1.072l-2.131,1.357l-0.386-0.606l0.466-0.297
			c-0.232-0.002-0.454-0.073-0.667-0.216c-0.212-0.143-0.404-0.35-0.577-0.62c-0.252-0.396-0.357-0.772-0.318-1.132
			c0.04-0.359,0.215-0.638,0.526-0.836c0.311-0.197,0.632-0.243,0.966-0.137c0.332,0.105,0.655,0.406,0.97,0.898l0.645,1.012
			l0.126-0.08c0.275-0.175,0.436-0.39,0.48-0.643s-0.032-0.535-0.229-0.846c-0.133-0.209-0.298-0.391-0.494-0.547
			c-0.195-0.156-0.396-0.266-0.599-0.33l0.311-0.571c0.262,0.087,0.513,0.235,0.752,0.438c0.238,0.203,0.448,0.447,0.629,0.731
			C75.953,26.495,76.071,26.945,75.996,27.357z M73.004,28.368c0.222,0.108,0.458,0.14,0.709,0.093l0.492-0.314l-0.627-0.985
			c-0.346-0.542-0.7-0.696-1.064-0.465c-0.178,0.113-0.273,0.271-0.287,0.474c-0.016,0.203,0.056,0.427,0.211,0.67
			C72.594,28.084,72.782,28.261,73.004,28.368z"/>
	</g>
	<g>
		<path d="M78.657,27.847l0.338,0.678l-5.242,2.615l-0.338-0.678L78.657,27.847z"/>
	</g>
	<g>
		<path d="M75.366,34.417c-0.129-0.067-0.246-0.168-0.354-0.301c-0.106-0.133-0.191-0.28-0.256-0.441
			c-0.156-0.392-0.172-0.736-0.047-1.035s0.383-0.526,0.773-0.682l2.135-0.85l-0.262-0.66l0.579-0.23l0.263,0.66l0.852-0.339
			l0.279,0.704l-0.851,0.339l0.444,1.115l-0.58,0.23l-0.443-1.115l-2.105,0.838c-0.211,0.083-0.352,0.2-0.422,0.351
			s-0.066,0.323,0.011,0.519c0.085,0.215,0.22,0.373,0.402,0.478L75.366,34.417z"/>
	</g>
	<g>
		<path d="M79.758,37.218c-0.223,0.378-0.623,0.64-1.2,0.783l-2.337,0.582l-0.184-0.736l2.253-0.561
			c0.394-0.099,0.666-0.266,0.818-0.505c0.151-0.238,0.185-0.534,0.097-0.887c-0.099-0.397-0.294-0.683-0.583-0.854
			c-0.29-0.173-0.651-0.204-1.086-0.096l-2.092,0.521l-0.183-0.735l5.685-1.415l0.183,0.735l-2.198,0.547
			c0.232,0.105,0.433,0.268,0.603,0.489c0.168,0.221,0.291,0.484,0.367,0.791C80.029,36.393,79.982,36.84,79.758,37.218z"/>
	</g>
	<g>
		<path d="M21.079,54.182c-0.19,0.469-0.556,0.79-1.098,0.964c-0.542,0.172-1.026,0.123-1.452-0.148
			c-0.428-0.272-0.744-0.731-0.951-1.377l-0.394-1.232l-1.511,0.482l-0.228-0.713l4.986-1.594l0.622,1.945
			C21.261,53.156,21.269,53.712,21.079,54.182z M18.81,54.341c0.269,0.176,0.583,0.207,0.944,0.092
			c0.36-0.116,0.6-0.323,0.716-0.622s0.103-0.674-0.041-1.125l-0.388-1.211l-2.236,0.715l0.387,1.211
			C18.336,53.852,18.541,54.165,18.81,54.341z"/>
	</g>
	<g>
		<path d="M21.211,56.72c0.212,0.17,0.392,0.414,0.539,0.729l-0.629,0.296c-0.012-0.037-0.033-0.089-0.062-0.151
			c-0.165-0.352-0.4-0.58-0.703-0.682c-0.305-0.104-0.65-0.063-1.039,0.119l-1.788,0.838l-0.305-0.65l3.589-1.682l0.293,0.622
			l-0.604,0.282C20.762,56.456,20.999,56.55,21.211,56.72z"/>
	</g>
	<g>
		<path d="M19.028,60.376c-0.018-0.359,0.059-0.694,0.226-1.006c0.167-0.313,0.416-0.57,0.747-0.775
			c0.33-0.205,0.672-0.314,1.026-0.324c0.354-0.012,0.687,0.07,0.998,0.248c0.312,0.175,0.571,0.431,0.778,0.765
			c0.208,0.336,0.32,0.682,0.339,1.036c0.019,0.355-0.057,0.689-0.225,1.001c-0.167,0.313-0.416,0.57-0.746,0.775
			c-0.331,0.205-0.673,0.313-1.026,0.324c-0.354,0.011-0.688-0.069-1-0.242s-0.572-0.427-0.78-0.763
			C19.157,61.081,19.045,60.734,19.028,60.376z M20.409,61.574c0.206,0.111,0.43,0.159,0.67,0.145
			c0.24-0.014,0.477-0.094,0.71-0.238s0.409-0.32,0.529-0.531c0.12-0.208,0.175-0.429,0.166-0.661s-0.08-0.456-0.214-0.673
			c-0.134-0.216-0.304-0.379-0.507-0.489c-0.204-0.111-0.427-0.162-0.669-0.149c-0.242,0.012-0.479,0.09-0.713,0.234
			c-0.232,0.145-0.408,0.322-0.526,0.533c-0.119,0.212-0.175,0.436-0.167,0.668c0.006,0.233,0.077,0.457,0.211,0.674
			C20.034,61.302,20.203,61.464,20.409,61.574z"/>
	</g>
	<g>
		<path d="M28.112,66.183c-0.011,0.41-0.223,0.811-0.637,1.2l-1.66,1.563l-0.492-0.522l1.601-1.507
			c0.279-0.264,0.429-0.526,0.448-0.789c0.021-0.262-0.082-0.512-0.307-0.752c-0.25-0.265-0.531-0.398-0.844-0.398
			c-0.312,0-0.623,0.145-0.932,0.436l-1.485,1.399l-0.492-0.522l1.601-1.508c0.279-0.263,0.429-0.526,0.449-0.788
			s-0.082-0.513-0.309-0.752c-0.25-0.265-0.53-0.398-0.842-0.399c-0.312,0.001-0.623,0.146-0.932,0.437l-1.485,1.399l-0.492-0.522
			l2.885-2.718l0.472,0.5l-0.43,0.405c0.247-0.034,0.49-0.004,0.729,0.094c0.238,0.097,0.461,0.254,0.666,0.473
			c0.212,0.225,0.354,0.467,0.427,0.726c0.074,0.261,0.068,0.52-0.017,0.778c0.269-0.049,0.542-0.021,0.819,0.085
			c0.278,0.105,0.531,0.279,0.76,0.522C27.956,65.385,28.121,65.771,28.112,66.183z"/>
	</g>
	<g>
		<path d="M27.851,70.213c-0.157-0.323-0.219-0.661-0.187-1.014c0.031-0.353,0.159-0.688,0.383-1.006
			c0.225-0.317,0.497-0.552,0.819-0.7c0.321-0.148,0.659-0.203,1.015-0.163c0.356,0.04,0.694,0.174,1.017,0.4
			c0.322,0.228,0.562,0.501,0.717,0.821c0.156,0.319,0.218,0.656,0.186,1.009c-0.031,0.353-0.16,0.688-0.384,1.006
			c-0.225,0.317-0.496,0.552-0.818,0.7c-0.321,0.148-0.658,0.204-1.014,0.168c-0.355-0.037-0.694-0.169-1.017-0.396
			C28.245,70.812,28.007,70.537,27.851,70.213z M29.59,70.776c0.232,0.021,0.457-0.022,0.672-0.13
			c0.217-0.107,0.403-0.273,0.561-0.497c0.158-0.225,0.252-0.456,0.279-0.695c0.029-0.238-0.006-0.464-0.105-0.674
			c-0.099-0.21-0.252-0.388-0.46-0.535c-0.208-0.146-0.428-0.23-0.658-0.253c-0.231-0.022-0.457,0.02-0.675,0.125
			c-0.217,0.105-0.405,0.271-0.562,0.494c-0.158,0.225-0.251,0.457-0.277,0.698c-0.025,0.24,0.01,0.467,0.108,0.679
			c0.097,0.212,0.25,0.392,0.458,0.538S29.358,70.755,29.59,70.776z"/>
	</g>
	<g>
		<path d="M33.311,73.673c-0.135,0.029-0.281,0.028-0.439-0.002c-0.16-0.032-0.312-0.087-0.456-0.164
			c-0.352-0.189-0.572-0.43-0.664-0.723c-0.093-0.293-0.044-0.615,0.146-0.967l1.03-1.917l-0.593-0.318l0.279-0.521l0.593,0.318
			l0.411-0.764l0.632,0.34l-0.411,0.764l1.001,0.538l-0.279,0.521l-1.001-0.538l-1.017,1.891c-0.102,0.189-0.131,0.359-0.092,0.511
			c0.04,0.152,0.149,0.275,0.324,0.37c0.194,0.104,0.388,0.138,0.582,0.101L33.311,73.673z"/>
	</g>
	<g>
		<path d="M37.955,73.807l-2.988-1.188c-0.088,0.341-0.049,0.658,0.116,0.951c0.165,0.294,0.428,0.513,0.789,0.656
			c0.439,0.176,0.854,0.168,1.24-0.021l0.196,0.577c-0.244,0.128-0.511,0.194-0.799,0.197s-0.585-0.056-0.892-0.178
			c-0.389-0.155-0.702-0.372-0.94-0.651c-0.236-0.28-0.38-0.596-0.431-0.948c-0.05-0.353-0.003-0.71,0.141-1.071
			c0.142-0.356,0.351-0.646,0.624-0.87s0.583-0.36,0.927-0.408c0.344-0.049,0.691-0.003,1.044,0.138
			c0.352,0.141,0.635,0.345,0.846,0.614c0.213,0.27,0.338,0.579,0.381,0.928c0.041,0.35-0.014,0.709-0.16,1.079
			C38.029,73.662,37.996,73.728,37.955,73.807z M35.839,71.525c-0.292,0.109-0.52,0.314-0.682,0.614l2.362,0.94
			c0.086-0.325,0.062-0.629-0.076-0.912c-0.137-0.282-0.365-0.487-0.685-0.615C36.439,71.425,36.133,71.416,35.839,71.525z"/>
	</g>
	<g>
		<path d="M38.646,75.649c-0.269-0.158-0.469-0.323-0.599-0.496l0.429-0.477c0.14,0.164,0.319,0.312,0.542,0.446
			c0.224,0.134,0.458,0.232,0.705,0.295c0.609,0.154,0.957,0.058,1.046-0.29c0.029-0.116,0.012-0.218-0.053-0.307
			c-0.066-0.089-0.155-0.164-0.271-0.227s-0.283-0.143-0.498-0.239c-0.298-0.127-0.536-0.247-0.717-0.359
			c-0.179-0.112-0.32-0.262-0.422-0.446c-0.103-0.186-0.119-0.414-0.05-0.685c0.088-0.348,0.304-0.59,0.646-0.727
			c0.344-0.137,0.76-0.143,1.248-0.019c0.256,0.065,0.505,0.161,0.744,0.289c0.24,0.128,0.429,0.267,0.565,0.413l-0.437,0.477
			c-0.262-0.283-0.606-0.479-1.031-0.586c-0.296-0.075-0.532-0.084-0.711-0.026c-0.18,0.058-0.289,0.165-0.33,0.325
			c-0.031,0.125-0.014,0.235,0.055,0.33s0.163,0.175,0.282,0.241s0.29,0.151,0.512,0.254c0.295,0.131,0.531,0.252,0.706,0.36
			c0.175,0.109,0.312,0.253,0.411,0.433c0.098,0.179,0.115,0.399,0.049,0.66c-0.089,0.348-0.308,0.587-0.656,0.717
			c-0.35,0.13-0.781,0.13-1.293-0.001C39.205,75.926,38.914,75.807,38.646,75.649z"/>
	</g>
	<g>
		<path d="M48.682,75.038c0.165,0.229,0.239,0.514,0.225,0.853c-0.021,0.453-0.207,0.794-0.558,1.023
			c-0.353,0.229-0.854,0.328-1.507,0.3l-2.495-0.111l0.231-5.229l2.346,0.104c0.598,0.026,1.055,0.167,1.37,0.42
			c0.315,0.254,0.464,0.592,0.445,1.016c-0.013,0.274-0.087,0.508-0.223,0.701s-0.312,0.338-0.531,0.433
			C48.286,74.646,48.518,74.809,48.682,75.038z M47.805,76.441c0.22-0.13,0.337-0.345,0.35-0.644
			c0.026-0.583-0.388-0.893-1.239-0.931l-1.718-0.076l-0.077,1.741l1.718,0.076C47.262,76.626,47.583,76.572,47.805,76.441z
			 M45.299,72.512l-0.074,1.673l1.531,0.068c0.384,0.017,0.682-0.041,0.894-0.173c0.214-0.134,0.326-0.337,0.339-0.61
			c0.012-0.274-0.083-0.486-0.283-0.638s-0.491-0.235-0.875-0.253L45.299,72.512z"/>
	</g>
	<g>
		<path d="M50.768,76.813c-0.332-0.137-0.604-0.347-0.814-0.631c-0.213-0.284-0.341-0.619-0.386-1.005
			c-0.046-0.387,0.001-0.743,0.143-1.068c0.139-0.325,0.355-0.591,0.646-0.799c0.292-0.206,0.634-0.334,1.024-0.38
			c0.392-0.046,0.752-0.001,1.082,0.133c0.329,0.135,0.6,0.343,0.811,0.627c0.213,0.284,0.341,0.62,0.387,1.007
			c0.045,0.386-0.002,0.741-0.144,1.066c-0.139,0.326-0.354,0.593-0.643,0.803c-0.289,0.209-0.629,0.337-1.021,0.383
			C51.463,76.995,51.1,76.95,50.768,76.813z M52.44,76.07c0.188-0.14,0.325-0.322,0.414-0.545c0.089-0.225,0.117-0.473,0.086-0.744
			c-0.032-0.272-0.117-0.507-0.257-0.704c-0.138-0.196-0.313-0.341-0.528-0.431c-0.214-0.091-0.447-0.121-0.7-0.092
			c-0.252,0.03-0.473,0.113-0.658,0.251c-0.188,0.138-0.328,0.318-0.42,0.542c-0.091,0.225-0.121,0.473-0.089,0.745
			c0.031,0.271,0.118,0.506,0.26,0.703c0.141,0.196,0.319,0.342,0.534,0.435c0.213,0.094,0.447,0.125,0.699,0.095
			C52.034,76.295,52.253,76.211,52.44,76.07z"/>
	</g>
	<g>
		<path d="M57.226,72.061c0.364,0.201,0.622,0.572,0.773,1.115l0.613,2.197l-0.692,0.193l-0.59-2.117
			c-0.104-0.371-0.271-0.624-0.5-0.762c-0.23-0.138-0.51-0.159-0.842-0.067c-0.375,0.104-0.64,0.296-0.795,0.574
			s-0.176,0.622-0.062,1.03l0.549,1.967l-0.691,0.193l-1.065-3.817l0.662-0.186l0.161,0.576c0.085-0.234,0.231-0.438,0.438-0.611
			c0.209-0.172,0.464-0.3,0.767-0.385C56.437,71.828,56.862,71.859,57.226,72.061z"/>
	</g>
	<g>
		<path d="M62.897,71.86l-2.928,1.329c0.186,0.299,0.441,0.492,0.767,0.576c0.326,0.085,0.666,0.047,1.021-0.113
			c0.431-0.195,0.712-0.499,0.844-0.908l0.553,0.256c-0.077,0.267-0.215,0.504-0.412,0.714c-0.197,0.211-0.446,0.383-0.746,0.519
			c-0.381,0.174-0.754,0.249-1.121,0.227c-0.365-0.022-0.694-0.139-0.982-0.347c-0.289-0.208-0.514-0.489-0.674-0.843
			c-0.16-0.351-0.225-0.701-0.195-1.055c0.029-0.352,0.145-0.669,0.348-0.951c0.204-0.28,0.479-0.499,0.823-0.656
			c0.345-0.156,0.688-0.218,1.029-0.184s0.652,0.158,0.932,0.369c0.28,0.213,0.503,0.501,0.667,0.864
			C62.844,71.706,62.87,71.774,62.897,71.86z M59.787,71.802c-0.124,0.286-0.135,0.593-0.03,0.916l2.314-1.051
			c-0.174-0.287-0.41-0.479-0.709-0.576c-0.299-0.097-0.605-0.074-0.918,0.068C60.13,71.301,59.911,71.515,59.787,71.802z"/>
	</g>
	<g>
		<path d="M66.63,64.754l3.173,4.164l-0.596,0.453l-1.413-1.855l-2.392,1.822l1.414,1.855l-0.595,0.453l-3.173-4.164l0.595-0.453
			l1.364,1.79l2.391-1.822l-1.363-1.79L66.63,64.754z"/>
	</g>
	<g>
		<path d="M72.275,63.886l-2.198,2.347c0.286,0.206,0.595,0.285,0.928,0.24c0.334-0.047,0.634-0.211,0.899-0.495
			c0.324-0.346,0.469-0.733,0.434-1.162l0.609,0.027c0.03,0.274-0.006,0.546-0.109,0.815c-0.102,0.27-0.265,0.524-0.489,0.765
			c-0.287,0.306-0.604,0.519-0.95,0.638c-0.347,0.118-0.695,0.137-1.04,0.056c-0.348-0.083-0.662-0.257-0.946-0.522
			c-0.28-0.263-0.475-0.562-0.583-0.899c-0.107-0.336-0.122-0.674-0.041-1.012s0.251-0.646,0.51-0.922s0.553-0.465,0.88-0.562
			c0.329-0.1,0.663-0.104,1.003-0.015c0.34,0.09,0.654,0.271,0.947,0.544C72.166,63.765,72.216,63.817,72.275,63.886z
			 M69.377,65.021c-0.006,0.312,0.103,0.599,0.322,0.859l1.738-1.855c-0.271-0.199-0.562-0.287-0.876-0.262
			c-0.313,0.024-0.588,0.161-0.823,0.412S69.383,64.708,69.377,65.021z"/>
	</g>
	<g>
		<path d="M72.922,60.082c0.388-0.081,0.8,0.031,1.234,0.34l1.953,1.385l-0.394,0.555l-0.427-0.303
			c0.081,0.204,0.097,0.425,0.048,0.662s-0.162,0.48-0.338,0.729c-0.257,0.362-0.549,0.59-0.878,0.683
			c-0.329,0.094-0.636,0.04-0.921-0.162c-0.285-0.201-0.44-0.467-0.466-0.797c-0.026-0.33,0.12-0.722,0.44-1.173l0.657-0.928
			l-0.115-0.082c-0.253-0.179-0.497-0.242-0.735-0.191c-0.237,0.052-0.458,0.22-0.659,0.504c-0.136,0.191-0.237,0.4-0.304,0.629
			c-0.067,0.228-0.092,0.442-0.076,0.644l-0.611-0.068c-0.017-0.262,0.022-0.533,0.115-0.815c0.094-0.282,0.232-0.554,0.417-0.814
			C72.181,60.43,72.534,60.165,72.922,60.082z M74.879,62.346c0.016-0.233-0.043-0.452-0.175-0.655l-0.45-0.319l-0.64,0.903
			c-0.352,0.496-0.361,0.862-0.027,1.099c0.162,0.115,0.335,0.144,0.518,0.083c0.184-0.059,0.354-0.201,0.513-0.425
			C74.776,62.808,74.863,62.579,74.879,62.346z"/>
	</g>
	<g>
		<path d="M72.072,57.813l0.354-0.624l4.827,2.736l-0.354,0.624L72.072,57.813z"/>
	</g>
	<g>
		<path d="M78.635,56.587c0.036,0.133,0.044,0.279,0.021,0.439c-0.021,0.16-0.067,0.314-0.137,0.463
			c-0.169,0.361-0.397,0.597-0.684,0.705c-0.288,0.107-0.612,0.077-0.974-0.091l-1.973-0.921l-0.284,0.609l-0.535-0.25l0.284-0.609
			l-0.785-0.367l0.304-0.65l0.786,0.367l0.48-1.03l0.535,0.25l-0.48,1.03l1.945,0.907c0.194,0.091,0.365,0.112,0.515,0.063
			s0.267-0.163,0.352-0.344c0.093-0.199,0.115-0.395,0.067-0.588L78.635,56.587z"/>
	</g>
	<g>
		<path d="M76.817,51.453c0.369-0.194,0.821-0.205,1.357-0.034l2.173,0.694l-0.219,0.685l-2.094-0.669
			c-0.366-0.117-0.669-0.117-0.911-0.002c-0.24,0.117-0.414,0.34-0.519,0.667c-0.118,0.37-0.104,0.697,0.044,0.98
			c0.147,0.282,0.423,0.488,0.827,0.617l1.944,0.621l-0.218,0.684l-5.285-1.688l0.218-0.684l2.045,0.653
			c-0.135-0.2-0.216-0.432-0.242-0.693c-0.025-0.263,0.007-0.536,0.098-0.821C76.189,51.983,76.45,51.646,76.817,51.453z"/>
	</g>
	<path d="M81.909,44.865c0,1.115-0.904,2.019-2.019,2.019c-1.114,0-2.018-0.904-2.018-2.019c0-1.115,0.904-2.019,2.018-2.019
		C81.005,42.845,81.909,43.75,81.909,44.865"/>
	<path d="M18.497,44.865c0,1.115-0.904,2.019-2.019,2.019c-1.114,0-2.018-0.904-2.018-2.019c0-1.115,0.904-2.019,2.018-2.019
		C17.592,42.845,18.497,43.75,18.497,44.865"/>
</g>
</svg>
