<?xml version="1.0" encoding="utf-8"?>
<!-- Generator: Adobe Illustrator 28.0.0, SVG Export Plug-In . SVG Version: 6.00 Build 0)  -->
<svg version="1.1" id="Layer_1" xmlns="http://www.w3.org/2000/svg" xmlns:xlink="http://www.w3.org/1999/xlink" x="0px" y="0px"
	 viewBox="0 0 95.745 85.787" enable-background="new 0 0 95.745 85.787" xml:space="preserve">
<g>
	<path d="M86.327,42.905c0.046,21.097-17.112,38.329-38.226,38.447C26.801,81.471,9.528,64.218,9.419,43.105
		C9.307,21.776,26.636,4.433,47.876,4.434C69.086,4.434,86.384,21.705,86.327,42.905 M84.9,42.893
		C84.917,22.817,68.876,6.325,48.716,5.877c-20.647-0.458-37.59,15.955-37.861,36.524C10.585,62.996,27.08,79.803,47.68,79.918
		C68.28,80.033,84.912,63.365,84.9,42.893"/>
	<path d="M73.691,42.945c-0.073,14.214-11.575,25.875-26.07,25.75c-14.047-0.123-25.586-11.548-25.544-25.877
		c0.042-14.289,11.609-25.745,25.838-25.727C62.226,17.11,73.679,28.722,73.691,42.945 M72.226,42.904
		c0.047-13.464-10.909-24.316-24.25-24.37C34.509,18.48,23.537,29.42,23.519,42.852c-0.02,13.396,10.831,24.322,24.233,24.402
		C61.143,67.331,72.272,56.427,72.226,42.904"/>
	<g>
		<path d="M24.726,22.811c0.298-0.002,0.589,0.107,0.872,0.327c0.378,0.293,0.559,0.662,0.541,1.104
			c-0.018,0.443-0.237,0.938-0.66,1.481l-1.617,2.083l-4.366-3.389l1.521-1.959c0.388-0.498,0.786-0.807,1.197-0.924
			c0.411-0.118,0.793-0.039,1.146,0.235c0.229,0.177,0.385,0.384,0.47,0.619c0.084,0.234,0.101,0.476,0.048,0.723
			C24.146,22.913,24.429,22.813,24.726,22.811z M20.485,24.187l1.397,1.084l0.992-1.278c0.249-0.32,0.382-0.612,0.396-0.877
			s-0.092-0.485-0.319-0.663c-0.229-0.178-0.471-0.227-0.723-0.146c-0.252,0.08-0.503,0.281-0.752,0.601L20.485,24.187z
			 M25.4,24.423c0.021-0.27-0.092-0.5-0.342-0.694c-0.485-0.377-1.005-0.211-1.558,0.5l-1.113,1.435l1.453,1.128l1.113-1.435
			C25.228,25.003,25.377,24.692,25.4,24.423z"/>
	</g>
	<g>
		<path d="M27.625,23.078c-0.369,0.087-0.731,0.074-1.088-0.039c-0.357-0.112-0.673-0.32-0.951-0.623
			c-0.276-0.303-0.455-0.638-0.535-1.002c-0.081-0.365-0.061-0.727,0.062-1.084c0.122-0.359,0.336-0.678,0.644-0.958
			c0.307-0.28,0.643-0.466,1.009-0.553c0.364-0.089,0.726-0.076,1.083,0.037c0.355,0.112,0.672,0.32,0.949,0.623
			s0.456,0.638,0.537,1.002c0.08,0.365,0.061,0.728-0.057,1.086c-0.119,0.356-0.331,0.677-0.638,0.957
			C28.332,22.805,27.995,22.988,27.625,23.078z M28.6,21.41c0.074-0.235,0.079-0.476,0.018-0.723
			c-0.062-0.246-0.189-0.477-0.386-0.69c-0.194-0.214-0.413-0.362-0.653-0.446c-0.24-0.083-0.479-0.098-0.718-0.042
			c-0.239,0.054-0.458,0.172-0.656,0.354c-0.198,0.181-0.335,0.388-0.41,0.621c-0.076,0.232-0.085,0.474-0.024,0.722
			c0.059,0.249,0.188,0.48,0.382,0.693c0.196,0.215,0.414,0.362,0.657,0.443c0.241,0.082,0.484,0.096,0.725,0.043
			c0.24-0.052,0.46-0.169,0.658-0.35C28.389,21.853,28.526,21.645,28.6,21.41z"/>
	</g>
	<g>
		<path d="M31.063,20.183c-0.379,0.028-0.735-0.04-1.07-0.206c-0.334-0.167-0.614-0.422-0.842-0.765
			c-0.227-0.342-0.352-0.699-0.374-1.071c-0.023-0.374,0.054-0.729,0.229-1.062c0.176-0.335,0.438-0.616,0.783-0.846
			c0.348-0.23,0.708-0.36,1.082-0.391c0.375-0.031,0.729,0.038,1.064,0.205c0.334,0.166,0.615,0.42,0.842,0.762
			c0.227,0.344,0.352,0.701,0.375,1.074c0.022,0.373-0.052,0.727-0.225,1.063c-0.172,0.334-0.432,0.618-0.778,0.848
			S31.44,20.151,31.063,20.183z M32.283,18.686c0.11-0.221,0.153-0.457,0.131-0.711c-0.022-0.253-0.114-0.5-0.274-0.742
			c-0.159-0.24-0.352-0.422-0.576-0.541s-0.459-0.171-0.704-0.154c-0.244,0.018-0.479,0.1-0.702,0.248s-0.391,0.332-0.502,0.55
			c-0.11,0.22-0.156,0.456-0.136,0.71c0.021,0.255,0.11,0.504,0.271,0.744c0.16,0.242,0.354,0.422,0.58,0.54s0.463,0.17,0.709,0.154
			c0.246-0.014,0.48-0.095,0.705-0.243C32.007,19.092,32.173,18.906,32.283,18.686z"/>
	</g>
	<g>
		<path d="M34.495,18.17c-0.324,0.053-0.598,0.054-0.82,0.002l0.026-0.677c0.223,0.04,0.47,0.036,0.741-0.006
			c0.271-0.041,0.528-0.12,0.771-0.236c0.598-0.286,0.814-0.6,0.651-0.941c-0.055-0.114-0.138-0.185-0.251-0.213
			c-0.111-0.028-0.236-0.029-0.372-0.002c-0.136,0.026-0.324,0.075-0.565,0.144c-0.326,0.099-0.602,0.162-0.823,0.191
			c-0.222,0.031-0.437,0.006-0.646-0.076c-0.207-0.081-0.375-0.254-0.502-0.521c-0.164-0.342-0.152-0.685,0.033-1.027
			c0.188-0.343,0.52-0.629,1-0.858c0.251-0.12,0.518-0.209,0.799-0.268s0.527-0.075,0.738-0.047l-0.032,0.681
			c-0.403-0.052-0.815,0.021-1.233,0.222c-0.29,0.139-0.488,0.292-0.594,0.459c-0.107,0.168-0.123,0.331-0.048,0.487
			c0.06,0.123,0.147,0.2,0.268,0.23s0.25,0.031,0.392,0.005c0.143-0.026,0.338-0.074,0.586-0.14
			c0.328-0.093,0.602-0.154,0.816-0.186c0.217-0.029,0.425-0.007,0.627,0.073c0.2,0.08,0.361,0.247,0.484,0.503
			c0.164,0.342,0.148,0.684-0.047,1.025c-0.196,0.341-0.545,0.633-1.049,0.874C35.137,18.016,34.82,18.116,34.495,18.17z"/>
	</g>
	<g>
		<path d="M39.641,15.816c-0.073,0.127-0.179,0.241-0.316,0.342s-0.288,0.181-0.452,0.237c-0.397,0.139-0.743,0.139-1.036,0.001
			c-0.293-0.137-0.51-0.404-0.648-0.803l-0.756-2.168l-0.672,0.233l-0.205-0.59l0.671-0.233l-0.302-0.865l0.716-0.249l0.302,0.864
			l1.133-0.396l0.205,0.59l-1.133,0.396l0.746,2.139c0.074,0.214,0.186,0.359,0.332,0.438c0.147,0.076,0.319,0.08,0.519,0.011
			c0.219-0.076,0.384-0.204,0.494-0.383L39.641,15.816z"/>
	</g>
	<g>
		<path d="M40.912,10.151l0.774-0.15l1.049,5.427l-0.774,0.15L40.912,10.151z"/>
	</g>
	<g>
		<path d="M50.312,11.236c0.314,0.299,0.478,0.749,0.491,1.349l0.053,2.407l-0.757,0.017l-0.051-2.32
			c-0.01-0.405-0.109-0.709-0.301-0.91c-0.192-0.2-0.461-0.297-0.809-0.289c-0.385,0.008-0.687,0.134-0.908,0.379
			s-0.327,0.591-0.317,1.038l0.048,2.154l-0.758,0.017l-0.051-2.32c-0.01-0.405-0.109-0.709-0.301-0.909
			c-0.19-0.201-0.46-0.298-0.808-0.29c-0.384,0.008-0.687,0.134-0.907,0.38c-0.222,0.244-0.327,0.59-0.317,1.037l0.048,2.154
			l-0.758,0.017l-0.093-4.183l0.727-0.016l0.015,0.623c0.147-0.22,0.344-0.389,0.588-0.508c0.245-0.117,0.526-0.181,0.842-0.188
			c0.326-0.007,0.616,0.053,0.872,0.178c0.255,0.126,0.454,0.313,0.597,0.563c0.153-0.245,0.368-0.439,0.646-0.583
			c0.278-0.142,0.595-0.218,0.947-0.226C49.577,10.796,49.996,10.938,50.312,11.236z"/>
	</g>
	<g>
		<path d="M58.528,12.824c0.225,0.37,0.267,0.847,0.122,1.43l-0.578,2.337l-0.736-0.182l0.558-2.253
			c0.098-0.394,0.08-0.713-0.052-0.957c-0.133-0.244-0.367-0.408-0.704-0.491c-0.374-0.093-0.699-0.049-0.977,0.129
			c-0.276,0.179-0.47,0.483-0.577,0.918l-0.518,2.093l-0.735-0.182l0.558-2.254c0.097-0.393,0.08-0.712-0.052-0.956
			c-0.132-0.243-0.367-0.408-0.704-0.491c-0.373-0.093-0.699-0.049-0.976,0.129s-0.47,0.484-0.577,0.918l-0.518,2.093l-0.735-0.182
			l1.005-4.062l0.705,0.175l-0.149,0.605c0.2-0.173,0.434-0.285,0.7-0.336c0.268-0.05,0.555-0.037,0.861,0.039
			c0.316,0.078,0.582,0.211,0.796,0.4c0.213,0.188,0.356,0.421,0.429,0.699c0.212-0.196,0.471-0.328,0.776-0.394
			s0.631-0.056,0.973,0.029C57.933,12.205,58.301,12.454,58.528,12.824z"/>
	</g>
	<g>
		<path d="M64.178,14.932l-1.862,3.748l-0.644-0.32l0.281-0.565c-0.232,0.125-0.487,0.186-0.764,0.181
			c-0.277-0.006-0.547-0.074-0.811-0.205c-0.501-0.248-0.826-0.582-0.976-1.001c-0.15-0.419-0.093-0.896,0.174-1.434l1.071-2.157
			l0.68,0.338l-1.033,2.079c-0.18,0.362-0.229,0.681-0.147,0.953s0.285,0.49,0.61,0.652c0.358,0.178,0.695,0.21,1.011,0.096
			c0.314-0.113,0.571-0.368,0.769-0.765l0.962-1.938L64.178,14.932z"/>
	</g>
	<g>
		<path d="M68.273,18.342c0.072,0.434-0.066,0.891-0.416,1.372l-1.416,1.947l-0.613-0.446l1.365-1.877
			c0.238-0.328,0.34-0.632,0.302-0.912c-0.036-0.28-0.201-0.528-0.495-0.741c-0.332-0.241-0.665-0.335-0.997-0.281
			c-0.333,0.055-0.631,0.263-0.894,0.625l-1.268,1.743l-0.612-0.445l2.461-3.385l0.587,0.428l-0.372,0.511
			c0.251-0.085,0.515-0.099,0.794-0.039s0.553,0.188,0.821,0.383C67.95,17.536,68.201,17.909,68.273,18.342z"/>
	</g>
	<g>
		<path d="M69.851,19.148l0.558,0.513l-2.833,3.08l-0.558-0.513L69.851,19.148z M70.501,18.459
			c-0.009-0.136,0.034-0.254,0.127-0.354c0.092-0.101,0.208-0.154,0.346-0.16c0.138-0.005,0.26,0.042,0.368,0.142
			c0.109,0.1,0.168,0.217,0.178,0.35c0.009,0.134-0.033,0.251-0.125,0.352c-0.097,0.104-0.214,0.16-0.352,0.166
			c-0.137,0.006-0.26-0.041-0.369-0.141C70.566,18.713,70.508,18.595,70.501,18.459z"/>
	</g>
	<g>
		<path d="M70.041,24.98c-0.145-0.017-0.29-0.066-0.438-0.152s-0.281-0.192-0.399-0.319c-0.286-0.309-0.425-0.625-0.417-0.949
			c0.008-0.323,0.167-0.629,0.476-0.915l1.685-1.563l-0.484-0.521l0.458-0.424l0.483,0.521l0.671-0.623l0.516,0.556l-0.671,0.623
			l0.816,0.88l-0.457,0.424l-0.816-0.88l-1.661,1.542c-0.166,0.153-0.256,0.313-0.267,0.479c-0.012,0.165,0.054,0.324,0.196,0.479
			c0.158,0.17,0.341,0.27,0.548,0.301L70.041,24.98z"/>
	</g>
	<g>
		<path d="M75.789,26.086l-4.911,1.088c-0.449,0.108-0.815,0.116-1.098,0.026c-0.281-0.09-0.521-0.271-0.721-0.543
			c-0.122-0.166-0.213-0.345-0.273-0.538c-0.062-0.195-0.078-0.381-0.051-0.557l0.65-0.075c-0.038,0.296,0.027,0.559,0.195,0.787
			c0.109,0.148,0.239,0.243,0.392,0.286c0.151,0.041,0.353,0.033,0.603-0.026l0.314-0.064l2.274-3.961l0.467,0.636l-1.834,3.158
			l3.554-0.814L75.789,26.086z"/>
	</g>
	<g>
		<path d="M24.503,64.354c-0.074,0.289-0.254,0.542-0.538,0.759c-0.381,0.291-0.783,0.372-1.207,0.241
			c-0.424-0.129-0.845-0.469-1.264-1.017l-1.602-2.095l4.392-3.356l1.506,1.971c0.383,0.501,0.579,0.966,0.588,1.394
			c0.009,0.427-0.165,0.777-0.521,1.049c-0.229,0.176-0.469,0.273-0.718,0.295c-0.249,0.021-0.486-0.024-0.711-0.137
			C24.552,63.767,24.578,64.065,24.503,64.354z M22.773,64.594c0.255,0.091,0.508,0.04,0.759-0.151
			c0.489-0.374,0.461-0.919-0.086-1.635l-1.104-1.443l-1.462,1.117l1.104,1.443C22.255,64.28,22.518,64.503,22.773,64.594z
			 M24.255,59.902l-1.405,1.074l0.983,1.287c0.246,0.32,0.495,0.523,0.747,0.606c0.252,0.082,0.493,0.036,0.723-0.14
			c0.23-0.176,0.339-0.396,0.324-0.661c-0.013-0.265-0.143-0.559-0.389-0.88L24.255,59.902z"/>
	</g>
	<g>
		<path d="M24.555,67.295c-0.118-0.36-0.136-0.723-0.053-1.087c0.082-0.365,0.264-0.698,0.542-0.999
			c0.279-0.302,0.597-0.508,0.954-0.618c0.356-0.11,0.719-0.12,1.085-0.028c0.368,0.093,0.703,0.279,1.009,0.562
			c0.305,0.282,0.517,0.602,0.634,0.958c0.119,0.356,0.136,0.718,0.054,1.082s-0.263,0.697-0.542,0.999
			c-0.278,0.301-0.597,0.507-0.954,0.618c-0.357,0.11-0.719,0.121-1.086,0.033c-0.366-0.088-0.702-0.273-1.007-0.556
			C24.885,67.977,24.674,67.656,24.555,67.295z M26.297,68.127c0.24,0.054,0.48,0.04,0.722-0.041c0.24-0.083,0.46-0.229,0.656-0.442
			s0.326-0.442,0.389-0.688c0.063-0.247,0.059-0.486-0.016-0.72s-0.21-0.442-0.407-0.624c-0.197-0.183-0.415-0.301-0.653-0.357
			c-0.238-0.056-0.479-0.045-0.723,0.036c-0.242,0.081-0.462,0.227-0.658,0.439s-0.326,0.442-0.387,0.69
			c-0.062,0.248-0.056,0.49,0.017,0.726c0.072,0.236,0.207,0.445,0.404,0.628C25.838,67.955,26.057,68.073,26.297,68.127z"/>
	</g>
	<g>
		<path d="M28.4,70.677c-0.174-0.338-0.247-0.692-0.223-1.065s0.151-0.73,0.38-1.071s0.51-0.595,0.845-0.76
			c0.336-0.165,0.691-0.231,1.068-0.197c0.377,0.033,0.737,0.165,1.083,0.396s0.604,0.515,0.777,0.848
			c0.173,0.334,0.246,0.688,0.222,1.061s-0.15,0.73-0.379,1.071c-0.229,0.342-0.511,0.595-0.846,0.76
			c-0.336,0.165-0.691,0.232-1.067,0.203c-0.376-0.03-0.736-0.16-1.082-0.392S28.574,71.015,28.4,70.677z M30.25,71.227
			c0.246,0.016,0.48-0.036,0.707-0.154c0.225-0.119,0.417-0.299,0.578-0.539c0.161-0.241,0.254-0.488,0.278-0.741
			c0.022-0.253-0.021-0.489-0.13-0.708s-0.275-0.403-0.5-0.553c-0.223-0.149-0.456-0.232-0.701-0.251
			c-0.244-0.018-0.48,0.031-0.707,0.148c-0.228,0.117-0.422,0.297-0.583,0.537c-0.161,0.241-0.252,0.488-0.273,0.743
			c-0.022,0.254,0.022,0.493,0.13,0.714c0.109,0.222,0.275,0.406,0.498,0.556S30.005,71.211,30.25,71.227z"/>
	</g>
	<g>
		<path d="M32.307,73.242c-0.242-0.221-0.415-0.434-0.515-0.639l0.546-0.403c0.108,0.199,0.264,0.391,0.467,0.577
			c0.202,0.185,0.424,0.336,0.666,0.453c0.597,0.289,0.979,0.263,1.143-0.078c0.056-0.114,0.059-0.224,0.011-0.328
			c-0.049-0.105-0.126-0.203-0.231-0.293c-0.105-0.089-0.262-0.206-0.465-0.352c-0.281-0.193-0.503-0.369-0.664-0.523
			c-0.162-0.154-0.276-0.338-0.344-0.551c-0.065-0.214-0.035-0.453,0.094-0.719c0.165-0.341,0.438-0.546,0.823-0.614
			c0.384-0.068,0.815,0.013,1.294,0.244c0.252,0.121,0.487,0.273,0.709,0.457c0.221,0.183,0.387,0.366,0.498,0.548l-0.553,0.399
			c-0.213-0.349-0.526-0.623-0.943-0.825c-0.289-0.14-0.532-0.199-0.73-0.178c-0.197,0.022-0.333,0.111-0.408,0.268
			c-0.06,0.123-0.064,0.24-0.014,0.353c0.051,0.113,0.131,0.216,0.24,0.31s0.269,0.218,0.475,0.37
			c0.278,0.198,0.496,0.373,0.655,0.522c0.159,0.15,0.27,0.328,0.333,0.534c0.064,0.207,0.034,0.438-0.09,0.693
			c-0.164,0.341-0.442,0.542-0.831,0.603s-0.833-0.031-1.336-0.273C32.828,73.647,32.551,73.463,32.307,73.242z"/>
	</g>
	<g>
		<path d="M38.131,75.377c-0.137,0.053-0.289,0.074-0.459,0.067c-0.172-0.007-0.339-0.04-0.503-0.099
			c-0.396-0.141-0.666-0.355-0.809-0.646c-0.145-0.29-0.145-0.634-0.004-1.031l0.767-2.166l-0.67-0.236l0.208-0.588l0.67,0.236
			l0.306-0.863l0.715,0.254l-0.306,0.863l1.131,0.4l-0.208,0.588l-1.131-0.4l-0.756,2.136c-0.076,0.214-0.081,0.396-0.014,0.548
			c0.065,0.152,0.198,0.263,0.396,0.332c0.219,0.078,0.427,0.082,0.625,0.013L38.131,75.377z"/>
	</g>
	<g>
		<path d="M42.042,70.952l0.773,0.152l-1.065,5.423l-0.773-0.152L42.042,70.952z"/>
	</g>
	<g>
		<path d="M50.11,73.5c0.3,0.313,0.443,0.771,0.428,1.37l-0.061,2.407l-0.758-0.019l0.059-2.32c0.01-0.405-0.076-0.714-0.257-0.924
			c-0.182-0.21-0.445-0.319-0.793-0.327c-0.385-0.01-0.693,0.102-0.926,0.336c-0.232,0.233-0.354,0.574-0.365,1.021l-0.055,2.154
			l-0.758-0.02l0.059-2.32c0.01-0.405-0.076-0.713-0.257-0.923s-0.445-0.319-0.792-0.328c-0.385-0.01-0.694,0.102-0.926,0.337
			c-0.232,0.233-0.354,0.574-0.365,1.021l-0.055,2.154l-0.758-0.02l0.105-4.183l0.727,0.019l-0.016,0.623
			c0.158-0.212,0.362-0.372,0.612-0.479s0.533-0.156,0.849-0.148c0.326,0.009,0.613,0.082,0.863,0.22
			c0.249,0.137,0.439,0.334,0.569,0.591c0.164-0.238,0.389-0.422,0.674-0.552c0.284-0.13,0.604-0.189,0.956-0.181
			C49.397,73.024,49.809,73.188,50.11,73.5z"/>
	</g>
	<g>
		<path d="M58.033,71.784c0.372,0.222,0.63,0.625,0.774,1.207l0.578,2.338l-0.736,0.183l-0.557-2.254
			c-0.098-0.395-0.262-0.668-0.492-0.822s-0.515-0.189-0.852-0.106c-0.373,0.093-0.642,0.281-0.803,0.569
			c-0.163,0.286-0.189,0.647-0.082,1.081l0.518,2.093l-0.736,0.182L55.087,74c-0.098-0.393-0.262-0.667-0.492-0.821
			s-0.515-0.189-0.852-0.106c-0.373,0.093-0.642,0.281-0.803,0.569c-0.162,0.286-0.19,0.647-0.083,1.081l0.518,2.093l-0.734,0.182
			l-1.006-4.062l0.705-0.174l0.15,0.605c0.096-0.246,0.25-0.454,0.463-0.624c0.214-0.168,0.474-0.292,0.78-0.367
			c0.316-0.079,0.614-0.084,0.891-0.017s0.512,0.207,0.706,0.419c0.094-0.272,0.262-0.509,0.503-0.71
			c0.24-0.2,0.531-0.344,0.874-0.429C57.218,71.513,57.661,71.562,58.033,71.784z"/>
	</g>
	<g>
		<path d="M62.53,69.021l1.868,3.745l-0.644,0.321l-0.281-0.565c-0.041,0.261-0.146,0.499-0.316,0.719
			c-0.172,0.217-0.389,0.392-0.652,0.522c-0.5,0.249-0.962,0.308-1.387,0.176c-0.425-0.133-0.771-0.468-1.038-1.004l-1.075-2.155
			l0.678-0.338l1.037,2.077c0.181,0.363,0.404,0.594,0.672,0.692c0.267,0.1,0.562,0.067,0.888-0.095
			c0.357-0.178,0.586-0.428,0.686-0.748s0.05-0.677-0.147-1.073l-0.965-1.936L62.53,69.021z"/>
	</g>
	<g>
		<path d="M66.466,66.802c0.435,0.065,0.827,0.337,1.178,0.817l1.419,1.945l-0.612,0.447l-1.368-1.875
			c-0.238-0.327-0.498-0.517-0.775-0.568c-0.278-0.051-0.564,0.03-0.857,0.244c-0.332,0.242-0.523,0.529-0.573,0.863
			c-0.05,0.333,0.057,0.68,0.32,1.041l1.271,1.741l-0.613,0.447l-2.465-3.381l0.586-0.428l0.373,0.511
			c-0.004-0.266,0.064-0.521,0.207-0.768s0.347-0.469,0.615-0.664C65.6,66.862,66.032,66.738,66.466,66.802z"/>
	</g>
	<g>
		<path d="M66.759,64.785c-0.136-0.003-0.251-0.056-0.344-0.156c-0.093-0.1-0.136-0.219-0.131-0.357
			c0.005-0.137,0.062-0.256,0.17-0.356c0.108-0.1,0.23-0.148,0.363-0.147c0.134,0.001,0.248,0.053,0.342,0.153
			c0.096,0.104,0.142,0.225,0.136,0.363c-0.005,0.137-0.062,0.256-0.17,0.355C67.017,64.74,66.895,64.789,66.759,64.785z
			 M67.394,65.489l0.557-0.515l2.842,3.071l-0.557,0.515L67.394,65.489z"/>
	</g>
	<g>
		<path d="M73.19,65.125c-0.005,0.146-0.044,0.297-0.118,0.45c-0.073,0.154-0.169,0.295-0.286,0.423
			c-0.285,0.31-0.589,0.474-0.913,0.49c-0.323,0.018-0.641-0.117-0.95-0.402l-1.69-1.555l-0.48,0.523l-0.46-0.423l0.48-0.523
			l-0.674-0.62l0.514-0.558l0.674,0.62l0.812-0.884l0.46,0.423l-0.812,0.884l1.667,1.533c0.167,0.153,0.333,0.229,0.499,0.229
			c0.165-0.001,0.319-0.079,0.462-0.234c0.157-0.171,0.242-0.36,0.255-0.57L73.19,65.125z"/>
	</g>
	<g>
		<path d="M72.714,59.093l2.524,4.353c0.238,0.396,0.356,0.741,0.356,1.037c-0.001,0.296-0.101,0.58-0.299,0.852
			c-0.121,0.166-0.266,0.307-0.432,0.424c-0.167,0.116-0.338,0.188-0.514,0.217l-0.269-0.597c0.293-0.054,0.523-0.195,0.69-0.425
			c0.108-0.149,0.159-0.303,0.154-0.46c-0.006-0.156-0.074-0.346-0.208-0.566l-0.156-0.28l-4.464-0.969l0.466-0.638l3.565,0.793
			l-1.854-3.141L72.714,59.093z"/>
	</g>
	<path d="M81.909,44.865c0,1.115-0.904,2.019-2.019,2.019c-1.114,0-2.018-0.904-2.018-2.019c0-1.115,0.904-2.019,2.018-2.019
		C81.005,42.845,81.909,43.749,81.909,44.865"/>
	<path d="M18.497,44.865c0,1.115-0.904,2.019-2.019,2.019c-1.114,0-2.018-0.904-2.018-2.019c0-1.115,0.904-2.019,2.018-2.019
		C17.592,42.845,18.497,43.749,18.497,44.865"/>
	<path d="M66.11,48.934c-0.059,0.507-0.1,1.009-0.182,1.506c-0.066,0.389-0.302,0.581-0.61,0.569
		c-0.309-0.012-0.522-0.23-0.586-0.607c-0.015-0.086,0.002-0.176-0.012-0.262c-0.078-0.483-0.419-0.723-0.899-0.608
		c-0.448,0.106-0.799,0.355-0.983,0.799c-0.243,0.586-0.483,1.173-0.727,1.759c-0.206,0.495-0.122,0.951,0.203,1.359
		c0.306,0.384,0.64,0.409,1.031,0.112c0.017-0.014,0.029-0.034,0.046-0.047c0.446-0.358,0.71-0.392,0.968-0.123
		c0.237,0.247,0.252,0.583-0.079,0.945c-0.62,0.678-1.288,1.313-1.945,1.953c-0.105,0.101-0.27,0.201-0.402,0.194
		c-0.201-0.01-0.441-0.062-0.586-0.189c-0.198-0.171-0.171-0.434-0.042-0.667c0.022-0.037,0.052-0.071,0.083-0.103
		c0.272-0.277,0.512-0.564,0.253-0.98c-0.23-0.367-0.823-0.612-1.274-0.507c-0.169,0.041-0.33,0.118-0.493,0.182
		c-0.466,0.189-0.928,0.394-1.399,0.568c-0.52,0.191-0.847,0.546-0.955,1.081c-0.101,0.492,0.142,0.806,0.637,0.869
		c0.044,0.005,0.088-0.007,0.132-0.002c0.46,0.052,0.733,0.279,0.733,0.605c0,0.306-0.233,0.529-0.662,0.61
		c-0.96,0.181-1.921,0.184-2.883,0.007c-0.485-0.09-0.696-0.302-0.674-0.651c0.02-0.328,0.24-0.509,0.689-0.568
		c0.733-0.098,0.97-0.505,0.684-1.186c-0.164-0.389-0.465-0.622-0.852-0.771c-0.492-0.188-0.98-0.382-1.458-0.6
		c-0.502-0.23-0.978-0.223-1.436,0.084c-0.428,0.286-0.482,0.718-0.155,1.124c0.069,0.086,0.194,0.154,0.211,0.245
		c0.037,0.201,0.078,0.429,0.014,0.61c-0.09,0.26-0.351,0.321-0.608,0.262c-0.144-0.034-0.287-0.11-0.409-0.198
		c-0.767-0.561-1.44-1.222-1.994-1.996c-0.076-0.106-0.191-0.231-0.182-0.341c0.014-0.203,0.047-0.465,0.181-0.581
		c0.13-0.117,0.394-0.105,0.598-0.105c0.09,0,0.181,0.113,0.265,0.181c0.58,0.455,1.039,0.338,1.325-0.341
		c0.161-0.387,0.128-0.765-0.037-1.147c-0.22-0.5-0.446-1-0.629-1.516c-0.181-0.507-0.532-0.798-1.029-0.924
		c-0.507-0.128-0.862,0.132-0.926,0.647c-0.076,0.605-0.26,0.86-0.612,0.85c-0.343-0.008-0.553-0.321-0.635-0.874
		c-0.123-0.833-0.147-1.663,0.003-2.492c0.032-0.171,0.054-0.35,0.118-0.509c0.101-0.248,0.323-0.414,0.571-0.329
		c0.201,0.068,0.363,0.269,0.52,0.431c0.047,0.049,0.02,0.169,0.03,0.255c0.069,0.674,0.426,0.919,1.075,0.716
		c0.399-0.123,0.681-0.394,0.843-0.777c0.24-0.564,0.475-1.132,0.701-1.702c0.182-0.458,0.157-0.902-0.135-1.313
		c-0.311-0.431-0.711-0.48-1.129-0.144c-0.051,0.041-0.088,0.098-0.137,0.142c-0.247,0.22-0.51,0.243-0.776,0.041
		c-0.259-0.198-0.294-0.497-0.106-0.825c0.044-0.076,0.095-0.15,0.155-0.213c0.632-0.635,1.267-1.271,1.903-1.903
		c0.062-0.061,0.142-0.105,0.216-0.15c0.282-0.176,0.551-0.142,0.774,0.096c0.233,0.248,0.221,0.541-0.005,0.769
		c-0.304,0.311-0.515,0.64-0.25,1.043c0.264,0.399,0.688,0.526,1.157,0.483c0.108-0.01,0.221-0.022,0.321-0.063
		c0.629-0.255,1.267-0.493,1.879-0.784c0.466-0.221,0.742-0.61,0.73-1.156c-0.01-0.428-0.201-0.647-0.618-0.71
		c-0.086-0.012-0.176,0-0.264-0.007c-0.324-0.022-0.536-0.182-0.583-0.515c-0.046-0.311,0.135-0.583,0.509-0.657
		c0.449-0.09,0.912-0.154,1.37-0.155c0.547-0.003,1.097,0.047,1.641,0.115c0.456,0.056,0.694,0.326,0.669,0.671
		c-0.022,0.321-0.245,0.495-0.698,0.546c-0.718,0.081-0.972,0.527-0.678,1.195c0.157,0.362,0.417,0.6,0.789,0.743
		c0.532,0.204,1.043,0.465,1.582,0.642c0.301,0.1,0.661,0.164,0.958,0.095c0.772-0.181,1.066-0.843,0.497-1.404
		c-0.326-0.323-0.314-0.618-0.081-0.87c0.226-0.243,0.519-0.253,0.887,0.003c0.798,0.559,1.489,1.234,2.051,2.029
		c0.108,0.154,0.196,0.355,0.203,0.537c0.017,0.441-0.448,0.705-0.835,0.49c-0.112-0.063-0.198-0.172-0.301-0.252
		c-0.39-0.297-0.804-0.253-1.088,0.14c-0.304,0.421-0.367,0.877-0.152,1.369c0.237,0.541,0.453,1.09,0.678,1.637
		c0.221,0.536,0.674,0.86,1.21,0.86c0.458,0,0.642-0.154,0.711-0.603c0.014-0.086-0.002-0.176,0.012-0.262
		c0.068-0.392,0.265-0.598,0.578-0.61c0.313-0.012,0.554,0.179,0.615,0.559C66.01,47.883,66.051,48.409,66.11,48.934 M56.068,48.559
		c-0.526-0.024-0.914,0.306-0.941,0.798c-0.029,0.515,0.389,0.982,0.911,1.019c0.541,0.037,0.97-0.326,0.985-0.833
		C57.038,49.034,56.598,48.581,56.068,48.559 M61.014,46.692c0.007-0.549-0.458-1.225-0.95-1.386
		c-0.458-0.149-0.728,0.047-0.73,0.527c0,0.514,0.428,1.164,0.897,1.364C60.706,47.4,61.007,47.206,61.014,46.692 M59.574,51.594
		c0,0.394,0.226,0.571,0.595,0.438c0.487-0.179,0.794-0.542,0.918-1.039c0.095-0.379-0.193-0.634-0.578-0.549
		C60.052,50.545,59.572,51.134,59.574,51.594 M56.49,44.828c-0.47-0.554-1.274-0.612-1.742-0.155
		c-0.265,0.26-0.213,0.564,0.127,0.738C55.434,45.698,56.124,45.462,56.49,44.828 M52.84,49.303
		c-0.069-0.211-0.098-0.439-0.211-0.612c-0.079-0.122-0.27-0.226-0.414-0.228c-0.1-0.002-0.238,0.166-0.297,0.287
		c-0.177,0.37-0.074,0.725,0.147,1.039c0.176,0.248,0.431,0.247,0.583,0.003C52.737,49.651,52.775,49.477,52.84,49.303
		 M56.45,53.415c-0.321-0.63-0.727-0.728-1.191-0.318C55.547,53.682,55.846,53.772,56.45,53.415"/>
	<path d="M34.943,33.595v0.737c0,2.658-0.059,5.318,0.012,7.972c0.167,6.146,2.959,10.752,8.41,13.599
		c2.442,1.276,1.817,1.152,4.373,0.02c0.215-0.096,0.424-0.203,0.662-0.316c0.238,0.453,0.449,0.853,0.705,1.338
		c-0.544,0.264-1.043,0.526-1.556,0.75c-2.002,0.874-2.023,0.909-3.978,0.02c-5.419-2.459-8.746-6.607-9.883-12.464
		c-0.157-0.814-0.24-1.654-0.248-2.482c-0.029-3.207-0.012-6.414-0.012-9.622c0-0.022-0.002-0.044,0-0.066
		c0.012-0.791,0.235-1.014,1.01-1.043c3.123-0.112,6.13-0.76,9.006-1.984c0.524-0.223,1.027-0.497,1.521-0.781
		c0.38-0.221,0.711-0.242,1.105-0.015c2.43,1.409,5.088,2.126,7.842,2.523c0.931,0.135,1.876,0.188,2.815,0.257
		c0.652,0.047,0.906,0.277,0.909,0.94c0.01,1.582,0.008,3.163,0.002,4.745c-0.003,0.556-0.294,0.909-0.725,0.923
		c-0.458,0.017-0.784-0.353-0.789-0.934c-0.008-1.12-0.003-2.241-0.003-3.361c0-0.237,0-0.475,0-0.754
		c-3.726-0.323-7.281-1.093-10.583-2.847C42.241,32.495,38.689,33.284,34.943,33.595"/>
	<path d="M39.304,37.425c0,2.024-0.155,3.993,0.032,5.928c0.39,4.044,2.536,6.962,6.168,8.851c0.318-0.162,0.622-0.329,0.936-0.475
		c0.455-0.21,0.88-0.095,1.085,0.277c0.206,0.375,0.068,0.792-0.355,1.065c-0.037,0.024-0.076,0.044-0.115,0.064
		c-1.686,0.889-1.404,0.919-2.991,0.007c-3.603-2.068-5.683-5.215-6.239-9.324c-0.154-1.146-0.093-2.322-0.11-3.486
		c-0.015-1.053-0.01-2.107,0-3.162c0.008-0.904,0.147-1.092,1.002-1.247c2.187-0.397,4.316-0.983,6.36-1.864
		c0.326-0.14,0.629-0.127,0.948,0.012c2.021,0.877,4.131,1.451,6.296,1.844c0.863,0.157,1.017,0.353,1.032,1.227
		c0.01,0.637,0.002,1.274,0,1.911c0,0.132,0,0.265-0.02,0.394c-0.079,0.483-0.353,0.728-0.789,0.715
		c-0.416-0.012-0.708-0.292-0.749-0.765c-0.029-0.348-0.01-0.701-0.012-1.053c0-0.284,0-0.569,0-0.907
		c-0.22-0.066-0.419-0.142-0.627-0.184c-1.766-0.358-3.493-0.853-5.161-1.534c-0.331-0.135-0.61-0.12-0.934,0.01
		c-1.673,0.667-3.396,1.174-5.164,1.526C39.71,37.291,39.526,37.36,39.304,37.425"/>
</g>
</svg>
