<?xml version="1.0" encoding="utf-8"?>
<!-- Generator: Adobe Illustrator 28.0.0, SVG Export Plug-In . SVG Version: 6.00 Build 0)  -->
<svg version="1.1" id="Layer_1" xmlns="http://www.w3.org/2000/svg" xmlns:xlink="http://www.w3.org/1999/xlink" x="0px" y="0px"
	 viewBox="0 0 95.745 85.787" enable-background="new 0 0 95.745 85.787" xml:space="preserve">
<g>
	<path d="M86.326,42.905c0.046,21.097-17.112,38.329-38.226,38.447C26.801,81.471,9.528,64.218,9.419,43.105
		C9.307,21.776,26.636,4.433,47.876,4.434C69.086,4.434,86.384,21.705,86.326,42.905 M84.9,42.893
		C84.917,22.817,68.876,6.325,48.716,5.877C28.068,5.419,11.124,21.832,10.855,42.402C10.584,62.996,27.08,79.803,47.68,79.918
		C68.28,80.033,84.912,63.365,84.9,42.893"/>
	<path d="M73.691,42.945c-0.073,14.214-11.577,25.875-26.07,25.75c-14.047-0.123-25.586-11.548-25.544-25.877
		c0.042-14.289,11.609-25.745,25.838-25.727C62.226,17.11,73.679,28.722,73.691,42.945 M72.226,42.904
		c0.047-13.464-10.909-24.316-24.25-24.37C34.509,18.48,23.537,29.42,23.519,42.852c-0.02,13.396,10.831,24.322,24.233,24.402
		C61.143,67.331,72.272,56.427,72.226,42.904"/>
	<g>
		<path d="M17.056,28.878l0.353-0.706l4.946,2.467l-0.353,0.707L17.056,28.878z"/>
	</g>
	<g>
		<path d="M23.356,22.206c0.428-0.067,0.885,0.076,1.368,0.43l1.943,1.422L26.22,24.67l-1.873-1.371
			c-0.328-0.239-0.629-0.345-0.905-0.314c-0.275,0.029-0.517,0.185-0.722,0.465c-0.227,0.311-0.312,0.627-0.25,0.951
			c0.06,0.324,0.27,0.619,0.63,0.883l1.739,1.272l-0.447,0.611l-1.873-1.37c-0.327-0.239-0.629-0.345-0.904-0.314
			c-0.275,0.029-0.517,0.185-0.722,0.465c-0.227,0.311-0.312,0.627-0.251,0.951c0.06,0.324,0.271,0.618,0.631,0.883l1.739,1.272
			l-0.447,0.611l-3.377-2.471l0.429-0.586l0.504,0.368c-0.084-0.251-0.1-0.509-0.044-0.775c0.054-0.267,0.175-0.528,0.36-0.783
			c0.193-0.263,0.418-0.458,0.674-0.583c0.254-0.127,0.524-0.171,0.81-0.132c-0.103-0.271-0.126-0.56-0.069-0.868
			c0.056-0.308,0.188-0.604,0.396-0.889C22.557,22.521,22.927,22.275,23.356,22.206z"/>
	</g>
	<g>
		<path d="M27.404,18.319c0.36-0.077,0.714-0.057,1.062,0.063c0.35,0.121,0.663,0.34,0.94,0.655
			c0.279,0.316,0.458,0.655,0.535,1.018c0.078,0.363,0.056,0.718-0.066,1.065c-0.122,0.346-0.335,0.654-0.64,0.922
			c-0.225,0.198-0.47,0.337-0.733,0.416c-0.264,0.077-0.534,0.092-0.811,0.041l1.431,1.623l-0.569,0.501l-3.781-4.287l0.545-0.48
			l0.438,0.497c-0.025-0.285,0.018-0.558,0.132-0.816c0.115-0.26,0.29-0.492,0.522-0.698C26.713,18.57,27.045,18.398,27.404,18.319z
			 M29.168,20.971c0.077-0.234,0.089-0.476,0.034-0.726c-0.056-0.249-0.18-0.483-0.371-0.7s-0.407-0.369-0.647-0.455
			c-0.241-0.086-0.481-0.104-0.722-0.053c-0.239,0.051-0.461,0.163-0.662,0.341c-0.197,0.174-0.335,0.378-0.412,0.612
			c-0.079,0.233-0.091,0.475-0.038,0.722c0.054,0.248,0.177,0.48,0.368,0.697c0.191,0.218,0.406,0.37,0.646,0.458
			c0.238,0.088,0.479,0.106,0.724,0.057c0.244-0.051,0.464-0.163,0.661-0.337C28.95,21.409,29.09,21.204,29.168,20.971z"/>
	</g>
	<g>
		<path d="M29.923,16.228c0.144-0.248,0.368-0.476,0.674-0.681l0.41,0.609c-0.038,0.02-0.088,0.05-0.148,0.091
			c-0.342,0.229-0.541,0.511-0.6,0.844c-0.058,0.334,0.04,0.689,0.292,1.064l1.162,1.731l-0.63,0.422l-2.332-3.475l0.604-0.404
			l0.391,0.583C29.721,16.739,29.78,16.477,29.923,16.228z"/>
	</g>
	<g>
		<path d="M33.818,18.217c-0.379-0.015-0.725-0.126-1.037-0.33c-0.312-0.205-0.561-0.49-0.746-0.857
			c-0.186-0.366-0.268-0.736-0.246-1.109c0.021-0.374,0.139-0.716,0.353-1.027c0.215-0.312,0.507-0.561,0.878-0.748
			c0.372-0.188,0.745-0.274,1.121-0.261c0.375,0.015,0.719,0.124,1.032,0.329c0.313,0.204,0.562,0.49,0.747,0.856
			c0.185,0.367,0.267,0.736,0.245,1.109c-0.021,0.374-0.137,0.718-0.348,1.029c-0.211,0.312-0.501,0.563-0.873,0.751
			C34.573,18.146,34.198,18.231,33.818,18.217z M35.207,16.874c0.135-0.205,0.206-0.436,0.213-0.69
			c0.008-0.254-0.054-0.511-0.184-0.77c-0.131-0.258-0.301-0.46-0.51-0.605c-0.209-0.145-0.436-0.223-0.68-0.235
			c-0.246-0.012-0.488,0.043-0.728,0.164c-0.239,0.12-0.428,0.282-0.563,0.487c-0.135,0.204-0.209,0.434-0.218,0.688
			c-0.011,0.256,0.05,0.513,0.181,0.771c0.131,0.26,0.301,0.461,0.513,0.604c0.212,0.145,0.44,0.224,0.687,0.237
			c0.245,0.016,0.488-0.039,0.728-0.159C34.884,17.245,35.072,17.082,35.207,16.874z"/>
	</g>
	<g>
		<path d="M39.518,11.824l-0.401,4.551l-0.733,0.247l-3.071-3.382l0.749-0.252l2.433,2.722l0.32-3.648L39.518,11.824z"/>
	</g>
	<g>
		<path d="M44.342,13.23l-3.337,0.623c0.113,0.353,0.327,0.615,0.64,0.784c0.313,0.169,0.672,0.215,1.074,0.14
			c0.492-0.092,0.857-0.331,1.095-0.718l0.502,0.404c-0.146,0.253-0.347,0.461-0.603,0.627c-0.255,0.165-0.553,0.28-0.895,0.344
			c-0.435,0.081-0.838,0.063-1.207-0.052s-0.677-0.316-0.919-0.604c-0.245-0.286-0.404-0.632-0.479-1.036
			c-0.074-0.398-0.052-0.773,0.067-1.128c0.117-0.354,0.316-0.65,0.597-0.887c0.28-0.237,0.616-0.393,1.009-0.466
			c0.394-0.074,0.761-0.05,1.103,0.071c0.34,0.121,0.628,0.326,0.862,0.614c0.231,0.289,0.388,0.64,0.465,1.055
			C44.327,13.06,44.335,13.135,44.342,13.23z M41.168,12.385c-0.199,0.262-0.287,0.573-0.264,0.933l2.64-0.493
			c-0.106-0.339-0.301-0.596-0.582-0.771c-0.282-0.175-0.602-0.229-0.959-0.162C41.647,11.958,41.369,12.122,41.168,12.385z"/>
	</g>
	<g>
		<path d="M47.341,9.354l2.326,0.118c0.583,0.029,1.095,0.171,1.536,0.425c0.439,0.255,0.775,0.597,1.003,1.027
			c0.229,0.431,0.329,0.917,0.302,1.458c-0.027,0.542-0.177,1.015-0.448,1.42c-0.27,0.405-0.638,0.713-1.101,0.921
			c-0.465,0.209-0.988,0.298-1.571,0.269l-2.326-0.118L47.341,9.354z M49.375,14.304c0.446,0.022,0.845-0.044,1.191-0.2
			c0.349-0.156,0.622-0.387,0.822-0.689c0.199-0.304,0.311-0.661,0.331-1.071s-0.054-0.775-0.222-1.098s-0.417-0.579-0.748-0.77
			c-0.329-0.19-0.718-0.298-1.164-0.32l-1.491-0.075l-0.211,4.147L49.375,14.304z"/>
	</g>
	<g>
		<path d="M53.716,11.381l0.745,0.141l-0.774,4.112l-0.745-0.141L53.716,11.381z M53.904,10.451c-0.078-0.11-0.104-0.233-0.08-0.367
			c0.025-0.135,0.096-0.241,0.209-0.319c0.114-0.077,0.243-0.103,0.389-0.075c0.145,0.027,0.256,0.096,0.335,0.203
			c0.077,0.109,0.104,0.23,0.08,0.365c-0.026,0.139-0.098,0.248-0.21,0.326c-0.114,0.078-0.243,0.103-0.388,0.075
			C54.093,10.632,53.982,10.562,53.904,10.451z"/>
	</g>
	<g>
		<path d="M59.717,12.84l-1.079,3.451c-0.219,0.697-0.554,1.16-1.005,1.386s-1.021,0.23-1.709,0.016
			c-0.378-0.118-0.72-0.282-1.029-0.491c-0.31-0.211-0.54-0.443-0.691-0.7l0.521-0.449c0.136,0.219,0.326,0.417,0.572,0.596
			c0.243,0.179,0.512,0.313,0.803,0.405c0.468,0.146,0.847,0.144,1.14-0.008s0.511-0.453,0.651-0.905l0.1-0.316
			c-0.236,0.152-0.494,0.241-0.774,0.267c-0.281,0.025-0.567-0.008-0.859-0.099c-0.381-0.119-0.701-0.31-0.959-0.568
			c-0.258-0.261-0.429-0.565-0.512-0.914c-0.085-0.349-0.067-0.712,0.051-1.089c0.118-0.376,0.31-0.684,0.578-0.923
			c0.267-0.239,0.58-0.392,0.94-0.455c0.358-0.063,0.729-0.036,1.11,0.083c0.303,0.095,0.564,0.237,0.789,0.43
			c0.226,0.191,0.385,0.42,0.483,0.688l0.193-0.618L59.717,12.84z M57.394,15.438c0.243-0.045,0.455-0.148,0.635-0.31
			c0.18-0.162,0.31-0.368,0.388-0.62c0.121-0.387,0.091-0.739-0.09-1.058c-0.182-0.319-0.474-0.541-0.877-0.667
			c-0.406-0.127-0.775-0.112-1.105,0.047c-0.331,0.158-0.557,0.431-0.678,0.817c-0.078,0.252-0.09,0.495-0.034,0.73
			s0.171,0.441,0.345,0.616c0.174,0.176,0.395,0.306,0.66,0.389C56.9,15.466,57.151,15.484,57.394,15.438z"/>
	</g>
	<g>
		<path d="M63.436,17.303l-3.035-1.52c-0.123,0.35-0.111,0.688,0.035,1.012c0.147,0.324,0.405,0.577,0.771,0.761
			c0.447,0.225,0.885,0.255,1.307,0.09l0.156,0.625c-0.269,0.112-0.556,0.157-0.858,0.136c-0.304-0.023-0.611-0.112-0.922-0.268
			c-0.396-0.198-0.705-0.455-0.93-0.771c-0.224-0.315-0.348-0.661-0.368-1.037c-0.021-0.375,0.061-0.746,0.244-1.113
			c0.182-0.362,0.427-0.648,0.735-0.859c0.308-0.211,0.646-0.326,1.012-0.346s0.729,0.06,1.085,0.239
			c0.358,0.179,0.636,0.42,0.835,0.723c0.198,0.303,0.304,0.64,0.316,1.01c0.011,0.371-0.077,0.744-0.266,1.121
			C63.527,17.157,63.488,17.223,63.436,17.303z M61.417,14.711c-0.317,0.089-0.576,0.284-0.773,0.585l2.4,1.202
			c0.12-0.334,0.121-0.656,0.002-0.966c-0.119-0.311-0.34-0.546-0.665-0.708C62.057,14.661,61.736,14.624,61.417,14.711z"/>
	</g>
	<g>
		<path d="M63.289,19.363c-0.208-0.254-0.347-0.49-0.414-0.708l0.6-0.317c0.078,0.213,0.203,0.426,0.375,0.64
			c0.172,0.214,0.37,0.396,0.592,0.548c0.547,0.375,0.928,0.405,1.142,0.093c0.071-0.104,0.091-0.212,0.06-0.323
			c-0.032-0.111-0.095-0.219-0.186-0.323c-0.092-0.104-0.229-0.243-0.408-0.417c-0.248-0.234-0.441-0.439-0.578-0.616
			c-0.138-0.177-0.224-0.376-0.257-0.597c-0.034-0.221,0.032-0.453,0.198-0.697c0.214-0.312,0.517-0.474,0.906-0.484
			c0.391-0.011,0.805,0.135,1.243,0.435c0.23,0.157,0.441,0.344,0.633,0.558s0.328,0.419,0.411,0.616l-0.606,0.312
			c-0.157-0.375-0.428-0.694-0.81-0.955c-0.265-0.182-0.497-0.276-0.695-0.285c-0.198-0.008-0.346,0.061-0.444,0.203
			c-0.077,0.113-0.1,0.229-0.066,0.348c0.034,0.118,0.099,0.232,0.193,0.342c0.094,0.109,0.231,0.255,0.413,0.437
			c0.245,0.237,0.435,0.442,0.569,0.614s0.218,0.364,0.251,0.578c0.032,0.214-0.032,0.438-0.192,0.672
			c-0.215,0.312-0.519,0.471-0.911,0.473c-0.395,0.001-0.82-0.155-1.28-0.471C63.743,19.842,63.497,19.618,63.289,19.363z"/>
	</g>
	<g>
		<path d="M67.865,22.604c-0.146,0-0.297-0.034-0.454-0.103c-0.155-0.067-0.301-0.159-0.433-0.271
			c-0.32-0.274-0.493-0.572-0.522-0.895c-0.029-0.323,0.094-0.644,0.367-0.964l1.494-1.745l-0.54-0.463l0.405-0.474l0.54,0.463
			l0.596-0.696l0.576,0.492l-0.596,0.696l0.911,0.78l-0.405,0.474l-0.911-0.78l-1.474,1.722c-0.147,0.172-0.217,0.341-0.21,0.506
			c0.007,0.167,0.091,0.318,0.251,0.454c0.176,0.151,0.368,0.229,0.579,0.235L67.865,22.604z"/>
	</g>
	<g>
		<path d="M70.908,20.077l0.534,0.537l-2.968,2.95l-0.534-0.537L70.908,20.077z M71.587,19.418c-0.001-0.136,0.047-0.253,0.145-0.35
			c0.097-0.096,0.214-0.144,0.352-0.143c0.139,0.001,0.259,0.052,0.362,0.156c0.104,0.104,0.157,0.225,0.162,0.358
			c0.002,0.134-0.044,0.249-0.142,0.346c-0.101,0.101-0.221,0.149-0.357,0.149c-0.139,0-0.259-0.053-0.363-0.157
			C71.642,19.674,71.59,19.555,71.587,19.418z"/>
	</g>
	<g>
		<path d="M69.75,24.815c-0.063-0.374-0.026-0.734,0.11-1.083c0.137-0.348,0.365-0.649,0.686-0.905
			c0.321-0.256,0.667-0.413,1.036-0.469c0.37-0.056,0.729-0.011,1.077,0.135c0.35,0.146,0.653,0.382,0.913,0.707
			c0.259,0.325,0.42,0.672,0.483,1.043c0.063,0.37,0.027,0.729-0.109,1.078c-0.137,0.348-0.365,0.65-0.686,0.906
			c-0.321,0.256-0.667,0.412-1.036,0.468c-0.37,0.056-0.729,0.012-1.078-0.13c-0.35-0.143-0.653-0.375-0.913-0.7
			S69.814,25.19,69.75,24.815z M71.348,25.899c0.229,0.089,0.469,0.112,0.72,0.067c0.25-0.045,0.488-0.158,0.715-0.339
			s0.389-0.388,0.488-0.622s0.13-0.473,0.092-0.714c-0.038-0.242-0.141-0.468-0.309-0.678c-0.167-0.21-0.364-0.361-0.593-0.452
			c-0.228-0.091-0.468-0.115-0.72-0.072s-0.491,0.155-0.717,0.336c-0.227,0.181-0.389,0.389-0.486,0.625s-0.129,0.477-0.092,0.719
			c0.036,0.244,0.139,0.472,0.306,0.682S71.119,25.811,71.348,25.899z"/>
	</g>
	<g>
		<path d="M77.025,29.084c-0.115,0.424-0.432,0.781-0.95,1.073l-2.099,1.182l-0.371-0.661l2.022-1.139
			c0.353-0.199,0.571-0.433,0.654-0.704c0.083-0.27,0.036-0.563-0.142-0.88c-0.201-0.357-0.466-0.582-0.79-0.67
			c-0.325-0.089-0.683-0.023-1.071,0.195L72.4,28.538l-0.372-0.66l3.646-2.053l0.356,0.633l-0.551,0.31
			c0.264,0.027,0.509,0.125,0.737,0.296c0.229,0.17,0.425,0.4,0.587,0.689C77.066,28.216,77.139,28.659,77.025,29.084z"/>
	</g>
	<g>
		<path d="M22.632,55.687l0.348,0.709l-4.965,2.429l-0.347-0.709L22.632,55.687z"/>
	</g>
	<g>
		<path d="M25.541,63.59c-0.068,0.428-0.346,0.818-0.832,1.169l-1.954,1.407l-0.443-0.615l1.884-1.356
			c0.329-0.237,0.521-0.491,0.579-0.763c0.058-0.272-0.016-0.549-0.219-0.831c-0.225-0.312-0.5-0.489-0.826-0.533
			c-0.327-0.044-0.672,0.064-1.035,0.326l-1.749,1.26l-0.442-0.614l1.883-1.356c0.329-0.237,0.521-0.491,0.58-0.763
			c0.058-0.271-0.016-0.55-0.219-0.832c-0.225-0.311-0.501-0.488-0.826-0.532c-0.327-0.043-0.672,0.065-1.035,0.327l-1.749,1.26
			l-0.442-0.615l3.396-2.445l0.425,0.59l-0.507,0.364c0.265-0.003,0.515,0.063,0.751,0.198c0.236,0.134,0.447,0.33,0.631,0.586
			c0.191,0.265,0.307,0.538,0.349,0.82c0.04,0.281-0.002,0.553-0.127,0.811c0.289-0.013,0.571,0.055,0.847,0.203
			s0.516,0.366,0.723,0.651C25.488,62.733,25.608,63.16,25.541,63.59z"/>
	</g>
	<g>
		<path d="M29.17,66.536c0.12,0.348,0.142,0.702,0.062,1.062c-0.078,0.361-0.258,0.697-0.538,1.012
			c-0.28,0.313-0.596,0.532-0.947,0.652c-0.35,0.12-0.706,0.141-1.064,0.06c-0.358-0.079-0.689-0.255-0.991-0.525
			c-0.225-0.2-0.391-0.426-0.5-0.678c-0.109-0.254-0.154-0.521-0.138-0.801l-1.44,1.613l-0.565-0.504l3.807-4.265l0.542,0.483
			l-0.441,0.495c0.279-0.062,0.555-0.05,0.826,0.033c0.271,0.084,0.523,0.229,0.755,0.436C28.838,65.881,29.05,66.19,29.17,66.536z
			 M26.749,68.603c0.241,0.049,0.483,0.032,0.724-0.053c0.242-0.084,0.459-0.234,0.651-0.45c0.193-0.216,0.318-0.448,0.374-0.698
			c0.058-0.249,0.046-0.49-0.032-0.723c-0.079-0.232-0.218-0.438-0.418-0.616c-0.196-0.176-0.414-0.287-0.657-0.337
			c-0.24-0.05-0.481-0.034-0.72,0.049c-0.24,0.082-0.456,0.232-0.649,0.448c-0.192,0.216-0.318,0.447-0.377,0.695
			c-0.059,0.247-0.05,0.488,0.029,0.725c0.079,0.235,0.217,0.441,0.412,0.617C26.287,68.439,26.507,68.553,26.749,68.603z"/>
	</g>
	<g>
		<path d="M31.669,68.343c0.285,0.04,0.579,0.164,0.885,0.37l-0.412,0.608c-0.032-0.028-0.078-0.063-0.14-0.104
			c-0.339-0.23-0.676-0.31-1.006-0.238c-0.332,0.071-0.624,0.294-0.878,0.668l-1.17,1.726l-0.628-0.425l2.348-3.464l0.602,0.408
			l-0.394,0.581C31.121,68.346,31.386,68.303,31.669,68.343z"/>
	</g>
	<g>
		<path d="M31.849,72.894c-0.213-0.315-0.327-0.659-0.347-1.032s0.064-0.743,0.251-1.108c0.187-0.366,0.437-0.65,0.751-0.854
			c0.312-0.203,0.658-0.311,1.036-0.321c0.379-0.011,0.752,0.078,1.123,0.267c0.37,0.189,0.66,0.439,0.871,0.751
			s0.325,0.653,0.345,1.026c0.02,0.374-0.063,0.743-0.25,1.109c-0.187,0.365-0.438,0.65-0.752,0.854
			c-0.312,0.203-0.658,0.312-1.034,0.326c-0.378,0.016-0.751-0.072-1.121-0.262C32.351,73.46,32.061,73.209,31.849,72.894z
			 M33.751,73.222c0.246-0.014,0.473-0.092,0.684-0.237c0.209-0.144,0.379-0.344,0.511-0.602c0.132-0.259,0.194-0.515,0.188-0.77
			c-0.006-0.254-0.076-0.483-0.211-0.688c-0.135-0.205-0.321-0.369-0.561-0.491s-0.481-0.177-0.728-0.166
			c-0.244,0.011-0.474,0.087-0.685,0.231c-0.212,0.143-0.383,0.343-0.515,0.602c-0.132,0.258-0.193,0.514-0.185,0.77
			c0.008,0.255,0.079,0.486,0.212,0.693c0.136,0.207,0.321,0.371,0.561,0.494C33.263,73.18,33.506,73.234,33.751,73.222z"/>
	</g>
	<g>
		<path d="M40.565,72.13l-3.081,3.372l-0.732-0.25l-0.388-4.551l0.747,0.254l0.28,3.64l2.471-2.704L40.565,72.13z"/>
	</g>
	<g>
		<path d="M43.854,75.125l-3.335-0.634c-0.022,0.371,0.081,0.691,0.312,0.963c0.229,0.272,0.546,0.446,0.948,0.522
			c0.491,0.094,0.919,0.003,1.282-0.271l0.319,0.56c-0.228,0.182-0.49,0.304-0.788,0.364c-0.298,0.062-0.617,0.06-0.959-0.006
			c-0.435-0.082-0.804-0.244-1.105-0.486s-0.515-0.541-0.638-0.896c-0.122-0.356-0.146-0.734-0.068-1.139
			c0.075-0.398,0.233-0.74,0.472-1.027c0.239-0.287,0.532-0.489,0.88-0.608c0.347-0.119,0.717-0.142,1.108-0.066
			c0.394,0.074,0.728,0.23,1.001,0.467c0.273,0.237,0.467,0.532,0.579,0.886s0.13,0.737,0.051,1.151
			C43.902,74.96,43.882,75.033,43.854,75.125z M41.205,73.184c-0.281,0.171-0.476,0.429-0.584,0.772l2.637,0.501
			c0.025-0.354-0.062-0.664-0.261-0.93c-0.2-0.266-0.477-0.432-0.834-0.5C41.806,72.96,41.487,73.012,41.205,73.184z"/>
	</g>
	<g>
		<path d="M47.046,71.739l2.326-0.118c0.583-0.029,1.106,0.061,1.57,0.268c0.464,0.209,0.831,0.517,1.102,0.922
			c0.271,0.405,0.421,0.878,0.448,1.419c0.027,0.542-0.073,1.028-0.302,1.459c-0.229,0.431-0.563,0.772-1.004,1.026
			c-0.44,0.255-0.952,0.397-1.535,0.427l-2.326,0.118L47.046,71.739z M49.571,76.459c0.446-0.023,0.834-0.13,1.164-0.321
			c0.331-0.19,0.58-0.447,0.748-0.769c0.168-0.323,0.242-0.688,0.222-1.1c-0.021-0.409-0.132-0.767-0.331-1.069
			c-0.201-0.304-0.474-0.534-0.822-0.689c-0.348-0.156-0.745-0.224-1.191-0.2l-1.491,0.075l0.211,4.148L49.571,76.459z"/>
	</g>
	<g>
		<path d="M52.743,71.462c-0.113-0.075-0.183-0.181-0.208-0.315c-0.024-0.134,0.002-0.258,0.079-0.372
			c0.079-0.114,0.19-0.184,0.335-0.21c0.145-0.027,0.273-0.005,0.386,0.068c0.112,0.071,0.182,0.176,0.206,0.311
			c0.026,0.139,0.001,0.266-0.076,0.38c-0.079,0.113-0.189,0.184-0.335,0.211C52.985,71.561,52.856,71.537,52.743,71.462z
			 M52.905,72.395l0.745-0.14l0.769,4.113l-0.745,0.14L52.905,72.395z"/>
	</g>
	<g>
		<path d="M58.474,70.965l1.078,3.451c0.219,0.698,0.207,1.27-0.035,1.711c-0.242,0.443-0.707,0.771-1.396,0.987
			c-0.376,0.118-0.752,0.179-1.126,0.182c-0.374,0.005-0.695-0.056-0.967-0.181l0.172-0.667c0.236,0.103,0.506,0.158,0.809,0.166
			c0.303,0.007,0.601-0.034,0.892-0.126c0.467-0.146,0.778-0.365,0.933-0.656c0.154-0.29,0.161-0.662,0.02-1.114l-0.099-0.316
			c-0.106,0.26-0.269,0.479-0.485,0.659c-0.216,0.182-0.47,0.318-0.761,0.409c-0.382,0.119-0.753,0.146-1.113,0.079
			c-0.36-0.066-0.674-0.22-0.941-0.459c-0.269-0.238-0.461-0.547-0.579-0.924c-0.117-0.376-0.135-0.739-0.051-1.088
			s0.256-0.652,0.515-0.91c0.259-0.256,0.579-0.445,0.961-0.564c0.301-0.095,0.599-0.127,0.892-0.097
			c0.293,0.029,0.557,0.126,0.79,0.291l-0.193-0.618L58.474,70.965z M58.046,74.425c0.173-0.176,0.288-0.381,0.344-0.617
			c0.057-0.235,0.045-0.479-0.033-0.73c-0.121-0.387-0.347-0.658-0.678-0.817c-0.331-0.158-0.697-0.174-1.099-0.049
			c-0.407,0.127-0.702,0.351-0.884,0.669c-0.181,0.319-0.212,0.671-0.091,1.058c0.079,0.252,0.208,0.458,0.388,0.619
			c0.181,0.162,0.393,0.266,0.635,0.311c0.244,0.045,0.498,0.027,0.765-0.057C57.654,74.729,57.872,74.6,58.046,74.425z"/>
	</g>
	<g>
		<path d="M63.852,70.971l-3.033,1.524c0.208,0.308,0.485,0.499,0.833,0.575s0.703,0.021,1.07-0.163
			c0.447-0.225,0.731-0.556,0.854-0.994l0.593,0.25c-0.069,0.283-0.204,0.539-0.404,0.77c-0.2,0.229-0.454,0.423-0.765,0.579
			c-0.395,0.198-0.786,0.293-1.174,0.285c-0.387-0.01-0.737-0.117-1.051-0.326c-0.314-0.207-0.562-0.494-0.748-0.862
			c-0.182-0.361-0.264-0.729-0.248-1.102c0.016-0.374,0.125-0.714,0.327-1.019c0.203-0.305,0.483-0.547,0.841-0.727
			s0.717-0.26,1.078-0.238s0.694,0.14,0.998,0.353c0.305,0.212,0.552,0.507,0.74,0.883C63.79,70.81,63.819,70.881,63.852,70.971z
			 M60.568,71.039c-0.119,0.307-0.117,0.63,0.006,0.969l2.398-1.206c-0.196-0.295-0.453-0.488-0.772-0.578s-0.642-0.054-0.966,0.108
			C60.91,70.496,60.687,70.731,60.568,71.039z"/>
	</g>
	<g>
		<path d="M65.729,71.762c-0.312,0.103-0.582,0.146-0.811,0.13l-0.079-0.673c0.227,0.005,0.47-0.036,0.732-0.119
			c0.262-0.085,0.502-0.203,0.724-0.355c0.547-0.375,0.713-0.719,0.499-1.03c-0.072-0.104-0.165-0.161-0.281-0.173
			c-0.115-0.009-0.238,0.009-0.368,0.058c-0.13,0.048-0.309,0.124-0.536,0.229c-0.308,0.147-0.568,0.253-0.783,0.317
			s-0.431,0.073-0.649,0.023c-0.219-0.047-0.41-0.192-0.577-0.436c-0.215-0.312-0.256-0.652-0.126-1.021
			c0.131-0.367,0.415-0.701,0.854-1.002c0.229-0.158,0.479-0.288,0.749-0.39c0.268-0.101,0.51-0.155,0.722-0.161l0.073,0.679
			c-0.407,0.011-0.803,0.147-1.184,0.409c-0.266,0.182-0.437,0.364-0.516,0.547c-0.08,0.182-0.07,0.345,0.028,0.487
			c0.077,0.113,0.177,0.176,0.3,0.187c0.123,0.012,0.252-0.007,0.389-0.056c0.136-0.049,0.32-0.124,0.557-0.229
			c0.311-0.142,0.569-0.245,0.778-0.309s0.418-0.072,0.629-0.025c0.212,0.047,0.396,0.187,0.558,0.421
			c0.215,0.312,0.252,0.653,0.111,1.021c-0.141,0.367-0.439,0.709-0.899,1.024C66.339,71.511,66.041,71.658,65.729,71.762z"/>
	</g>
	<g>
		<path d="M70.55,67.953c-0.022,0.145-0.078,0.288-0.17,0.433c-0.09,0.145-0.201,0.273-0.333,0.387
			c-0.319,0.274-0.641,0.402-0.964,0.382s-0.622-0.19-0.897-0.51l-1.498-1.741l-0.539,0.464l-0.407-0.473l0.539-0.464l-0.598-0.694
			l0.574-0.494l0.598,0.694l0.909-0.783l0.407,0.473l-0.909,0.783l1.479,1.717c0.147,0.172,0.304,0.267,0.469,0.284
			c0.165,0.019,0.326-0.041,0.486-0.179c0.175-0.151,0.282-0.331,0.319-0.537L70.55,67.953z"/>
	</g>
	<g>
		<path d="M67.751,63.826c-0.136,0.003-0.252-0.045-0.35-0.141c-0.098-0.097-0.146-0.213-0.147-0.351
			c-0.001-0.139,0.051-0.259,0.155-0.364c0.104-0.104,0.222-0.159,0.355-0.164s0.25,0.042,0.348,0.138
			c0.101,0.1,0.151,0.219,0.152,0.356s-0.051,0.259-0.154,0.363C68.006,63.77,67.887,63.823,67.751,63.826z M68.417,64.5
			l0.532-0.539l2.977,2.941l-0.532,0.539L68.417,64.5z"/>
	</g>
	<g>
		<path d="M73.003,65.151c-0.351,0.145-0.71,0.19-1.081,0.135c-0.369-0.054-0.714-0.209-1.036-0.465
			c-0.321-0.255-0.552-0.556-0.688-0.903c-0.138-0.348-0.175-0.708-0.111-1.081c0.063-0.372,0.225-0.722,0.482-1.048
			c0.259-0.325,0.562-0.561,0.908-0.706c0.348-0.145,0.706-0.189,1.076-0.134c0.368,0.054,0.715,0.209,1.036,0.464
			c0.322,0.255,0.551,0.557,0.688,0.904c0.139,0.348,0.177,0.708,0.116,1.08c-0.06,0.371-0.219,0.721-0.478,1.047
			C73.659,64.77,73.354,65.005,73.003,65.151z M73.7,63.351c0.037-0.243,0.004-0.482-0.096-0.717
			c-0.101-0.233-0.264-0.44-0.49-0.621c-0.227-0.18-0.466-0.292-0.717-0.336c-0.25-0.044-0.488-0.02-0.716,0.072
			s-0.425,0.242-0.592,0.453c-0.167,0.21-0.269,0.437-0.306,0.679c-0.038,0.242-0.008,0.481,0.09,0.717
			c0.099,0.236,0.262,0.444,0.488,0.624s0.466,0.291,0.719,0.333c0.252,0.042,0.493,0.019,0.722-0.072
			c0.229-0.09,0.427-0.24,0.594-0.451C73.563,63.821,73.665,63.595,73.7,63.351z"/>
	</g>
	<g>
		<path d="M74.495,56.726c0.422-0.125,0.893-0.042,1.412,0.246l2.105,1.169l-0.368,0.662l-2.029-1.126
			c-0.354-0.197-0.669-0.26-0.942-0.188c-0.274,0.07-0.499,0.264-0.676,0.582c-0.199,0.358-0.252,0.699-0.156,1.023
			c0.094,0.323,0.337,0.594,0.729,0.811l1.884,1.046l-0.368,0.663l-3.658-2.031l0.353-0.635l0.552,0.307
			c-0.114-0.238-0.159-0.5-0.135-0.784c0.026-0.283,0.119-0.57,0.28-0.86C73.734,57.145,74.074,56.85,74.495,56.726z"/>
	</g>
	<path d="M81.908,44.865c0,1.115-0.904,2.019-2.019,2.019c-1.114,0-2.018-0.904-2.018-2.019c0-1.115,0.904-2.019,2.018-2.019
		C81.004,42.845,81.908,43.749,81.908,44.865"/>
	<path d="M18.496,44.865c0,1.115-0.904,2.019-2.019,2.019c-1.114,0-2.018-0.904-2.018-2.019c0-1.115,0.904-2.019,2.018-2.019
		C17.592,42.845,18.496,43.749,18.496,44.865"/>
	<path d="M38.852,58.505c-0.267-0.152-0.512-0.284-0.747-0.429c-1.747-1.073-3.243-2.408-4.177-4.263
		c-1.281-2.545-1.31-5.091,0.247-7.533c0.956-1.5,2.342-2.386,4.181-2.384c0.943,0,1.788,0.34,2.567,0.86
		c0.87,0.581,1.769,1.136,2.815,1.294c2.356,0.357,4.54-0.081,6.107-1.989c1.465-1.783,1.703-3.849,0.656-5.956
		c-0.488-0.98-1.108-1.896-1.654-2.849c-0.867-1.509-1.386-3.126-1.288-4.878c0.051-0.879,0.262-1.747,0.402-2.621
		c0.005-0.034,0.034-0.066,0.064-0.123c0.951,0.275,1.901,0.547,2.839,0.818c-0.098,0.553-0.211,1.078-0.284,1.61
		c-0.206,1.521,0.171,2.888,1.13,4.086c0.475,0.591,1.13,0.887,1.864,0.924c0.647,0.032,1.311,0.007,1.95-0.106
		c2.011-0.351,3.665,0.279,5.042,1.727c1.24,1.305,1.914,2.881,2.126,4.652c0.5,4.187-1.075,7.563-4.133,10.318
		c-1.838,1.654-3.996,2.721-6.44,3.129c-3.026,0.505-5.857,0.01-8.354-1.872c-1.085-0.818-1.791-1.948-2.496-3.084
		c-0.449-0.727-0.956-1.419-1.475-2.099c-0.181-0.235-0.465-0.406-0.728-0.559c-0.676-0.395-1.274-0.343-1.857,0.182
		c-0.879,0.791-1.201,1.82-1.161,2.969c0.059,1.683,0.892,2.989,2.119,4.055c0.558,0.483,1.203,0.863,1.81,1.289
		c0.084,0.061,0.177,0.11,0.294,0.182C39.798,56.737,39.332,57.607,38.852,58.505 M50.136,53.085
		c0.264-0.02,0.651-0.032,1.032-0.083c2.263-0.291,4.26-1.2,5.973-2.692c2.511-2.187,3.932-4.885,3.704-8.302
		c-0.096-1.446-0.578-2.734-1.561-3.831c-1.546-1.722-3.799-1.715-5.379-0.951c-0.924,0.448-1.269,1.168-1.11,2.181
		c0.027,0.181,0.064,0.36,0.086,0.541c0.221,1.798-0.117,3.461-1.249,4.905c-1.479,1.882-3.508,2.732-5.818,3.015
		c-0.524,0.063-1.059,0.039-1.583,0.108c-0.676,0.088-0.918,0.471-0.777,1.147c0.196,0.945,0.764,1.653,1.485,2.246
		C46.412,52.584,48.142,53.048,50.136,53.085"/>
	<path d="M59.338,46.501c-1.043,2.033-2.568,3.569-4.551,4.65c-1.713,0.936-3.545,1.397-5.504,1.232
		c-1.629-0.139-3.094-0.691-4.285-1.854c-0.419-0.409-0.75-0.879-0.885-1.463c-0.088-0.377-0.041-0.438,0.348-0.466
		c0.634-0.047,1.274-0.052,1.899-0.147c1.769-0.267,3.373-0.931,4.75-2.092c0.286-0.24,0.563-0.281,0.869-0.064
		c0.302,0.215,0.558,0.231,0.867,0.01c0.301-0.215,0.644-0.199,0.946,0.017c0.262,0.188,0.497,0.208,0.765,0.014
		c0.331-0.24,0.688-0.24,1.021,0.002c0.255,0.184,0.487,0.182,0.74,0c0.335-0.242,0.686-0.235,1.022-0.003
		c0.208,0.144,0.407,0.199,0.644,0.068C58.608,46.055,58.738,46.067,59.338,46.501 M51.105,49.394
		c0.397,0.005,0.708-0.294,0.703-0.679c-0.005-0.37-0.314-0.673-0.688-0.674c-0.37,0-0.683,0.304-0.688,0.673
		C50.426,49.086,50.723,49.387,51.105,49.394 M56.573,47.843c-0.002-0.335-0.279-0.608-0.607-0.596
		c-0.321,0.01-0.575,0.274-0.576,0.6c-0.002,0.343,0.257,0.608,0.593,0.608C56.318,48.454,56.575,48.189,56.573,47.843
		 M53.361,49.776c-0.282-0.005-0.5,0.196-0.509,0.47c-0.01,0.284,0.22,0.526,0.495,0.522c0.27-0.003,0.49-0.223,0.495-0.495
		C53.848,49.996,53.64,49.781,53.361,49.776 M48.532,50.278c0.005-0.259-0.164-0.439-0.419-0.446
		c-0.25-0.005-0.448,0.169-0.461,0.412c-0.014,0.245,0.193,0.465,0.441,0.47C48.334,50.719,48.526,50.528,48.532,50.278"/>
	<path d="M55.352,41.354c-0.463-0.003-0.863-0.404-0.863-0.867c0-0.471,0.416-0.885,0.887-0.882
		c0.473,0.003,0.885,0.421,0.877,0.889C56.242,40.979,55.845,41.357,55.352,41.354"/>
	<path d="M56.74,43.138c-0.005-0.395,0.314-0.715,0.713-0.715c0.404,0,0.72,0.309,0.722,0.706c0.003,0.39-0.323,0.722-0.711,0.722
		C57.069,43.851,56.745,43.53,56.74,43.138"/>
	<path d="M55.355,44.195c0.005,0.358-0.27,0.652-0.624,0.662c-0.363,0.012-0.661-0.282-0.661-0.652c0-0.355,0.286-0.647,0.635-0.651
		C55.056,43.551,55.35,43.842,55.355,44.195"/>
</g>
</svg>
