<?xml version="1.0" encoding="utf-8"?>
<!-- Generator: Adobe Illustrator 28.0.0, SVG Export Plug-In . SVG Version: 6.00 Build 0)  -->
<svg version="1.1" id="Layer_1" xmlns="http://www.w3.org/2000/svg" xmlns:xlink="http://www.w3.org/1999/xlink" x="0px" y="0px"
	 viewBox="0 0 95.745 85.787" enable-background="new 0 0 95.745 85.787" xml:space="preserve">
<g>
	<path d="M86.326,42.905c0.046,21.097-17.112,38.329-38.226,38.447C26.801,81.471,9.528,64.218,9.419,43.105
		C9.307,21.776,26.636,4.433,47.876,4.434C69.086,4.434,86.384,21.705,86.326,42.905 M84.9,42.893
		C84.917,22.817,68.876,6.325,48.716,5.877C28.068,5.419,11.124,21.832,10.855,42.402C10.584,62.996,27.08,79.803,47.68,79.918
		C68.28,80.033,84.912,63.365,84.9,42.893"/>
	<path d="M73.691,42.945c-0.073,14.214-11.577,25.875-26.07,25.75c-14.047-0.123-25.586-11.548-25.544-25.877
		c0.042-14.289,11.609-25.745,25.838-25.727C62.226,17.11,73.679,28.722,73.691,42.945 M72.226,42.904
		c0.046-13.464-10.909-24.316-24.25-24.37C34.509,18.48,23.537,29.42,23.519,42.852c-0.02,13.396,10.831,24.322,24.233,24.402
		C61.143,67.331,72.272,56.427,72.226,42.904"/>
	<g>
		<path d="M20.673,22.671l4.589,3.08l-0.439,0.656l-2.046-1.374l-1.769,2.636l2.045,1.373l-0.439,0.656l-4.589-3.081l0.44-0.655
			l1.973,1.324l1.77-2.635l-1.974-1.325L20.673,22.671z"/>
	</g>
	<g>
		<path d="M27.291,21.113l-2.354,2.447c0.299,0.222,0.625,0.311,0.978,0.266c0.353-0.044,0.671-0.214,0.955-0.51
			c0.347-0.36,0.505-0.767,0.475-1.221l0.643,0.037c0.028,0.29-0.015,0.577-0.125,0.86c-0.112,0.283-0.289,0.551-0.529,0.801
			c-0.307,0.319-0.645,0.538-1.012,0.658c-0.368,0.121-0.734,0.136-1.1,0.044s-0.695-0.279-0.991-0.564
			c-0.292-0.281-0.492-0.6-0.602-0.957c-0.11-0.357-0.119-0.714-0.029-1.069c0.089-0.355,0.272-0.677,0.55-0.965
			s0.59-0.482,0.939-0.583c0.348-0.1,0.7-0.1,1.058,0c0.357,0.099,0.688,0.294,0.992,0.586
			C27.179,20.983,27.229,21.04,27.291,21.113z M24.218,22.27c-0.012,0.33,0.098,0.634,0.326,0.913l1.861-1.936
			c-0.283-0.214-0.591-0.311-0.921-0.289c-0.331,0.021-0.622,0.163-0.874,0.425S24.228,21.941,24.218,22.27z"/>
	</g>
	<g>
		<path d="M25.316,17.385l0.581-0.488l3.77,4.485l-0.581,0.488L25.316,17.385z"/>
	</g>
	<g>
		<path d="M30.917,15.615c0.366-0.026,0.714,0.043,1.042,0.211c0.329,0.168,0.609,0.427,0.842,0.778
			c0.232,0.353,0.361,0.714,0.388,1.083c0.026,0.371-0.044,0.718-0.213,1.045c-0.17,0.326-0.423,0.602-0.761,0.824
			c-0.251,0.166-0.514,0.269-0.785,0.311c-0.272,0.04-0.542,0.018-0.809-0.072l1.192,1.807l-0.633,0.418l-3.15-4.771l0.606-0.4
			l0.365,0.553c0.013-0.285,0.095-0.549,0.244-0.791c0.15-0.24,0.354-0.446,0.613-0.618C30.198,15.769,30.551,15.644,30.917,15.615z
			 M32.296,18.484c0.11-0.22,0.155-0.457,0.135-0.713c-0.02-0.254-0.109-0.502-0.27-0.744c-0.159-0.242-0.353-0.422-0.579-0.54
			c-0.227-0.119-0.461-0.169-0.706-0.153c-0.245,0.018-0.479,0.1-0.703,0.247c-0.22,0.146-0.385,0.327-0.494,0.548
			c-0.11,0.221-0.155,0.458-0.138,0.711c0.02,0.252,0.108,0.499,0.268,0.74c0.16,0.242,0.353,0.423,0.576,0.543
			c0.225,0.12,0.461,0.172,0.709,0.156s0.482-0.096,0.701-0.241C32.019,18.891,32.186,18.706,32.296,18.484z"/>
	</g>
	<g>
		<path d="M41.939,9.691l-0.159,5.826l-0.793,0.241l-2.728-3.784l-0.157,4.662l-0.81,0.246l-3.376-4.75l0.778-0.237l2.735,3.864
			l0.181-4.752l0.694-0.211l2.772,3.878l0.144-4.765L41.939,9.691z"/>
	</g>
	<g>
		<path d="M47.236,13.114l-3.38,0.311c0.081,0.364,0.27,0.644,0.565,0.841c0.295,0.197,0.647,0.277,1.056,0.239
			c0.498-0.046,0.883-0.249,1.157-0.613l0.462,0.449c-0.169,0.237-0.389,0.427-0.658,0.568c-0.269,0.14-0.577,0.228-0.924,0.259
			c-0.44,0.041-0.839-0.014-1.196-0.163c-0.356-0.149-0.644-0.378-0.859-0.688c-0.216-0.307-0.343-0.666-0.381-1.075
			c-0.037-0.403,0.021-0.774,0.172-1.116c0.149-0.343,0.375-0.619,0.677-0.829c0.3-0.209,0.65-0.333,1.048-0.37
			c0.398-0.036,0.762,0.022,1.09,0.174c0.328,0.152,0.596,0.383,0.802,0.692c0.204,0.31,0.327,0.673,0.366,1.092
			C47.237,12.942,47.238,13.02,47.236,13.114z M44.155,11.978c-0.224,0.242-0.339,0.544-0.349,0.903l2.673-0.245
			c-0.074-0.348-0.243-0.621-0.508-0.821s-0.577-0.284-0.938-0.251C44.672,11.599,44.379,11.736,44.155,11.978z"/>
	</g>
	<g>
		<path d="M47.935,9.873c-0.096-0.096-0.143-0.213-0.141-0.35s0.053-0.253,0.152-0.35c0.099-0.096,0.222-0.143,0.369-0.141
			c0.147,0.003,0.269,0.052,0.365,0.145c0.095,0.094,0.143,0.21,0.14,0.347c-0.002,0.142-0.053,0.261-0.151,0.356
			s-0.222,0.143-0.369,0.14C48.152,10.019,48.031,9.97,47.935,9.873z M47.908,10.819l0.758,0.013l-0.068,4.184l-0.758-0.012
			L47.908,10.819z"/>
	</g>
	<g>
		<path d="M54.201,11.424l-0.462,3.587c-0.093,0.726-0.343,1.239-0.748,1.54s-0.965,0.405-1.68,0.312
			c-0.393-0.05-0.759-0.151-1.101-0.304c-0.34-0.153-0.607-0.343-0.801-0.569l0.435-0.533c0.171,0.191,0.394,0.354,0.666,0.487
			c0.271,0.134,0.56,0.22,0.861,0.259c0.486,0.062,0.859-0.006,1.122-0.206c0.262-0.2,0.423-0.534,0.483-1.005l0.042-0.329
			c-0.205,0.191-0.444,0.324-0.715,0.398c-0.272,0.073-0.561,0.091-0.863,0.052c-0.396-0.052-0.745-0.182-1.044-0.393
			c-0.3-0.212-0.521-0.481-0.664-0.811c-0.144-0.328-0.189-0.689-0.139-1.081c0.05-0.392,0.186-0.728,0.408-1.01
			c0.222-0.282,0.504-0.486,0.847-0.611c0.342-0.126,0.712-0.163,1.108-0.112c0.313,0.04,0.597,0.136,0.851,0.285
			c0.255,0.149,0.453,0.347,0.597,0.594l0.083-0.643L54.201,11.424z M52.366,14.388c0.231-0.087,0.422-0.225,0.571-0.415
			c0.15-0.19,0.24-0.416,0.274-0.678c0.052-0.402-0.04-0.744-0.274-1.026c-0.233-0.282-0.56-0.45-0.979-0.504
			c-0.422-0.055-0.782,0.025-1.081,0.239c-0.298,0.213-0.473,0.521-0.524,0.923c-0.034,0.262-0.002,0.503,0.094,0.725
			c0.096,0.223,0.245,0.404,0.446,0.547c0.202,0.144,0.441,0.232,0.718,0.268C51.884,14.501,52.136,14.475,52.366,14.388z"/>
	</g>
	<g>
		<path d="M58.907,13.086c0.208,0.387,0.226,0.865,0.051,1.434L58.25,16.82l-0.726-0.223l0.683-2.219
			c0.119-0.387,0.116-0.708-0.01-0.961c-0.125-0.254-0.361-0.434-0.709-0.541c-0.392-0.121-0.738-0.102-1.034,0.058
			c-0.297,0.159-0.511,0.453-0.643,0.881l-0.634,2.061l-0.725-0.224l1.723-5.6l0.725,0.224l-0.666,2.165
			c0.21-0.145,0.453-0.232,0.729-0.263c0.275-0.03,0.565,0.001,0.867,0.094C58.339,12.429,58.698,12.699,58.907,13.086z"/>
	</g>
	<g>
		<path d="M61.258,17.995c-0.141,0.04-0.295,0.048-0.463,0.025c-0.17-0.022-0.334-0.071-0.492-0.144
			c-0.381-0.177-0.63-0.416-0.746-0.719s-0.085-0.645,0.092-1.027l0.963-2.086l-0.646-0.298l0.261-0.566l0.646,0.298l0.384-0.832
			l0.688,0.317l-0.384,0.832l1.09,0.503l-0.261,0.566l-1.09-0.503l-0.95,2.058c-0.095,0.205-0.116,0.387-0.063,0.545
			c0.052,0.156,0.174,0.279,0.364,0.367c0.21,0.098,0.417,0.12,0.621,0.069L61.258,17.995z"/>
	</g>
	<g>
		<path d="M66.425,14.946L67.07,15.4l-2.787,3.957l2.447,1.724l-0.396,0.562l-3.093-2.178L66.425,14.946z"/>
	</g>
	<g>
		<path d="M67.147,21.915c-0.113-0.362-0.126-0.725-0.037-1.088c0.088-0.364,0.273-0.693,0.558-0.99
			c0.283-0.298,0.604-0.5,0.963-0.604c0.358-0.105,0.72-0.109,1.085-0.012c0.366,0.098,0.698,0.289,0.999,0.576
			c0.302,0.287,0.509,0.609,0.62,0.969c0.113,0.357,0.126,0.719,0.038,1.082s-0.273,0.693-0.557,0.991
			c-0.284,0.297-0.604,0.498-0.964,0.604s-0.721,0.11-1.086,0.018c-0.364-0.095-0.698-0.285-0.999-0.572S67.26,22.277,67.147,21.915
			z M68.876,22.772c0.24,0.058,0.48,0.047,0.722-0.031c0.243-0.078,0.464-0.223,0.664-0.432c0.199-0.21,0.332-0.437,0.398-0.683
			c0.068-0.246,0.065-0.485-0.005-0.72c-0.071-0.234-0.203-0.445-0.398-0.631c-0.194-0.185-0.41-0.307-0.647-0.366
			c-0.238-0.06-0.479-0.052-0.723,0.025c-0.244,0.076-0.466,0.22-0.666,0.43c-0.199,0.209-0.331,0.437-0.396,0.685
			c-0.065,0.247-0.062,0.489,0.006,0.726c0.069,0.237,0.2,0.448,0.395,0.633C68.42,22.594,68.637,22.716,68.876,22.772z"/>
	</g>
	<g>
		<path d="M69.893,24.925c-0.124-0.304-0.188-0.57-0.188-0.799l0.667-0.127c0.012,0.226,0.068,0.467,0.171,0.723
			c0.102,0.254,0.236,0.487,0.403,0.696c0.413,0.52,0.768,0.662,1.064,0.426c0.099-0.078,0.149-0.176,0.151-0.291
			c0.002-0.116-0.025-0.238-0.082-0.364s-0.146-0.3-0.267-0.519c-0.169-0.297-0.293-0.551-0.372-0.759
			c-0.079-0.21-0.103-0.425-0.07-0.646c0.033-0.222,0.164-0.424,0.395-0.607c0.297-0.236,0.634-0.302,1.01-0.197
			c0.375,0.104,0.729,0.365,1.06,0.78c0.174,0.219,0.321,0.459,0.44,0.72c0.121,0.261,0.191,0.497,0.213,0.71l-0.672,0.119
			c-0.04-0.405-0.205-0.789-0.493-1.151c-0.2-0.251-0.393-0.41-0.58-0.477c-0.188-0.065-0.349-0.044-0.484,0.063
			c-0.107,0.086-0.163,0.188-0.165,0.312c-0.003,0.123,0.024,0.251,0.082,0.384c0.059,0.132,0.148,0.312,0.268,0.538
			c0.164,0.3,0.285,0.551,0.363,0.755s0.102,0.412,0.07,0.626c-0.032,0.214-0.16,0.409-0.383,0.586
			c-0.296,0.236-0.633,0.297-1.01,0.183c-0.376-0.114-0.738-0.39-1.085-0.825C70.185,25.516,70.018,25.229,69.893,24.925z"/>
	</g>
	<g>
		<path d="M72.014,27.718c-0.087-0.317-0.116-0.59-0.088-0.817l0.676-0.045c-0.016,0.227,0.012,0.472,0.082,0.738
			c0.07,0.266,0.176,0.513,0.316,0.741c0.347,0.565,0.682,0.748,1.005,0.55c0.107-0.066,0.169-0.156,0.186-0.271
			c0.016-0.115,0.003-0.239-0.038-0.37c-0.041-0.133-0.108-0.315-0.201-0.549c-0.132-0.314-0.225-0.58-0.277-0.798
			s-0.05-0.435,0.009-0.649c0.06-0.215,0.214-0.4,0.466-0.555c0.322-0.198,0.665-0.223,1.025-0.072
			c0.36,0.148,0.68,0.449,0.957,0.902c0.146,0.238,0.264,0.494,0.351,0.768c0.088,0.273,0.129,0.516,0.124,0.73l-0.681,0.037
			c0.01-0.406-0.107-0.809-0.35-1.203c-0.168-0.273-0.341-0.455-0.519-0.543c-0.178-0.089-0.341-0.087-0.488,0.004
			c-0.117,0.072-0.185,0.168-0.202,0.291c-0.018,0.121-0.006,0.252,0.036,0.391c0.041,0.137,0.107,0.327,0.199,0.566
			c0.127,0.317,0.217,0.581,0.27,0.794c0.053,0.211,0.051,0.422-0.007,0.629c-0.058,0.209-0.207,0.387-0.449,0.536
			c-0.323,0.197-0.665,0.217-1.024,0.059c-0.361-0.159-0.687-0.476-0.979-0.951C72.233,28.339,72.1,28.034,72.014,27.718z"/>
	</g>
	<g>
		<path d="M25.885,61.078l-4.611,3.047l-0.436-0.66l2.056-1.357l-1.749-2.649l-2.056,1.358l-0.436-0.658l4.612-3.047l0.436,0.658
			l-1.983,1.311l1.749,2.649l1.983-1.31L25.885,61.078z"/>
	</g>
	<g>
		<path d="M26.51,67l-2.339-2.46c-0.235,0.288-0.338,0.608-0.31,0.963s0.185,0.681,0.467,0.979c0.345,0.362,0.744,0.538,1.198,0.527
			l-0.066,0.641c-0.291,0.016-0.575-0.04-0.854-0.163c-0.277-0.125-0.536-0.313-0.775-0.565c-0.305-0.32-0.509-0.667-0.614-1.04
			c-0.104-0.373-0.101-0.739,0.007-1.101c0.107-0.36,0.311-0.682,0.608-0.965c0.293-0.278,0.621-0.464,0.983-0.558
			c0.36-0.094,0.717-0.088,1.069,0.018c0.35,0.107,0.664,0.304,0.939,0.594c0.275,0.29,0.455,0.611,0.54,0.963
			c0.083,0.353,0.067,0.705-0.047,1.058c-0.115,0.353-0.326,0.675-0.631,0.965C26.644,66.895,26.585,66.942,26.51,67z
			 M25.491,63.878c-0.328-0.024-0.637,0.07-0.926,0.286l1.85,1.945c0.227-0.273,0.337-0.575,0.33-0.907
			c-0.007-0.331-0.135-0.629-0.385-0.892C26.109,64.047,25.82,63.903,25.491,63.878z"/>
	</g>
	<g>
		<path d="M29.768,64.449l0.577,0.491l-3.796,4.463l-0.577-0.491L29.768,64.449z"/>
	</g>
	<g>
		<path d="M32.511,68.941c0.168,0.328,0.238,0.676,0.211,1.044c-0.027,0.367-0.158,0.727-0.393,1.076
			c-0.234,0.351-0.517,0.609-0.848,0.777s-0.68,0.237-1.047,0.207c-0.365-0.029-0.717-0.157-1.054-0.382
			c-0.25-0.168-0.446-0.368-0.59-0.604c-0.143-0.235-0.226-0.493-0.248-0.773l-1.202,1.798l-0.63-0.422l3.179-4.751l0.604,0.404
			l-0.369,0.552c0.269-0.1,0.542-0.127,0.823-0.081c0.28,0.045,0.549,0.153,0.808,0.326C32.093,68.338,32.345,68.615,32.511,68.941z
			 M30.4,71.325c0.246,0.015,0.482-0.036,0.709-0.152c0.228-0.117,0.421-0.297,0.582-0.537c0.161-0.241,0.253-0.488,0.273-0.743
			c0.023-0.255-0.021-0.491-0.131-0.711c-0.109-0.219-0.277-0.403-0.5-0.553c-0.22-0.146-0.451-0.227-0.697-0.243
			c-0.246-0.016-0.482,0.034-0.707,0.149c-0.227,0.114-0.419,0.293-0.58,0.533s-0.254,0.487-0.277,0.741
			c-0.024,0.253,0.02,0.49,0.13,0.714c0.111,0.223,0.274,0.406,0.494,0.554C29.919,71.227,30.155,71.309,30.4,71.325z"/>
	</g>
	<g>
		<path d="M43.537,71.674l-3.397,4.734l-0.792-0.246l-0.137-4.661l-2.744,3.771l-0.808-0.25l-0.132-5.825l0.777,0.24l0.098,4.733
			l2.812-3.833l0.694,0.215l0.122,4.765l2.79-3.864L43.537,71.674z"/>
	</g>
	<g>
		<path d="M46.937,75.319l-3.379-0.322c0.011,0.372,0.146,0.682,0.398,0.931c0.254,0.249,0.585,0.394,0.994,0.432
			c0.497,0.048,0.915-0.082,1.25-0.389l0.371,0.527c-0.21,0.202-0.461,0.348-0.752,0.436c-0.291,0.09-0.609,0.117-0.955,0.084
			c-0.44-0.042-0.821-0.17-1.146-0.383c-0.322-0.213-0.562-0.491-0.717-0.833c-0.155-0.344-0.213-0.719-0.174-1.128
			c0.038-0.403,0.163-0.759,0.375-1.066c0.211-0.308,0.483-0.536,0.818-0.688c0.335-0.15,0.7-0.207,1.098-0.169
			c0.399,0.038,0.746,0.162,1.04,0.372c0.294,0.211,0.515,0.487,0.659,0.828c0.144,0.342,0.197,0.723,0.157,1.142
			C46.971,75.15,46.957,75.226,46.937,75.319z M44.12,73.632c-0.264,0.196-0.435,0.471-0.51,0.823l2.672,0.254
			c-0.009-0.354-0.124-0.655-0.347-0.9c-0.223-0.246-0.515-0.387-0.877-0.421C44.697,73.353,44.385,73.435,44.12,73.632z"/>
	</g>
	<g>
		<path d="M47.873,72.05c-0.1-0.093-0.15-0.208-0.152-0.345s0.045-0.255,0.141-0.354c0.097-0.099,0.218-0.149,0.365-0.152
			c0.147-0.002,0.271,0.043,0.369,0.133c0.099,0.091,0.149,0.205,0.151,0.342c0.002,0.142-0.045,0.263-0.14,0.361
			c-0.096,0.099-0.218,0.149-0.365,0.151C48.095,72.188,47.973,72.144,47.873,72.05z M47.877,72.997l0.758-0.013l0.067,4.185
			l-0.758,0.013L47.877,72.997z"/>
	</g>
	<g>
		<path d="M53.457,72.415l0.455,3.588c0.093,0.726-0.019,1.285-0.335,1.679c-0.316,0.393-0.832,0.634-1.547,0.725
			c-0.393,0.05-0.772,0.045-1.142-0.018c-0.368-0.062-0.675-0.178-0.92-0.35l0.288-0.625c0.214,0.143,0.47,0.245,0.767,0.305
			c0.296,0.061,0.597,0.072,0.898,0.033c0.486-0.062,0.83-0.222,1.033-0.481c0.204-0.26,0.276-0.624,0.217-1.094l-0.042-0.329
			c-0.151,0.236-0.349,0.426-0.593,0.564c-0.246,0.141-0.521,0.229-0.823,0.269c-0.396,0.05-0.767,0.011-1.108-0.118
			c-0.344-0.129-0.625-0.335-0.846-0.616c-0.222-0.283-0.358-0.62-0.408-1.012c-0.049-0.392-0.002-0.752,0.143-1.08
			c0.144-0.329,0.364-0.597,0.665-0.805c0.3-0.208,0.648-0.338,1.045-0.388c0.313-0.04,0.611-0.02,0.896,0.061
			c0.284,0.081,0.525,0.223,0.726,0.426l-0.081-0.643L53.457,72.415z M52.427,75.745c0.202-0.142,0.353-0.323,0.449-0.546
			c0.097-0.222,0.128-0.463,0.095-0.725c-0.052-0.401-0.226-0.71-0.522-0.924c-0.299-0.215-0.656-0.295-1.075-0.242
			c-0.422,0.055-0.751,0.222-0.985,0.504c-0.235,0.282-0.327,0.624-0.276,1.025c0.033,0.262,0.125,0.487,0.274,0.678
			c0.148,0.191,0.339,0.33,0.568,0.417c0.232,0.089,0.487,0.113,0.763,0.079C51.989,75.977,52.226,75.889,52.427,75.745z"/>
	</g>
	<g>
		<path d="M58.069,71.622c0.39,0.202,0.672,0.589,0.847,1.157l0.708,2.301L58.9,75.303l-0.683-2.219
			c-0.119-0.387-0.303-0.65-0.549-0.789s-0.544-0.155-0.891-0.049c-0.393,0.121-0.667,0.33-0.822,0.63
			c-0.157,0.298-0.169,0.662-0.037,1.089l0.634,2.061l-0.724,0.223l-1.723-5.6l0.724-0.223l0.666,2.165
			c0.092-0.237,0.244-0.446,0.455-0.626c0.212-0.182,0.469-0.318,0.771-0.412C57.229,71.396,57.68,71.42,58.069,71.622z"/>
	</g>
	<g>
		<path d="M63.243,73.283c-0.061,0.133-0.154,0.257-0.281,0.371c-0.127,0.113-0.269,0.207-0.427,0.279
			c-0.382,0.178-0.726,0.212-1.031,0.104c-0.306-0.108-0.547-0.353-0.724-0.735l-0.966-2.084l-0.645,0.298l-0.262-0.566l0.645-0.298
			l-0.385-0.832l0.688-0.318l0.385,0.831l1.09-0.504l0.262,0.566l-1.089,0.504l0.952,2.056c0.096,0.205,0.22,0.34,0.373,0.401
			c0.154,0.063,0.326,0.05,0.517-0.039c0.21-0.097,0.362-0.241,0.454-0.429L63.243,73.283z"/>
	</g>
	<g>
		<path d="M62.791,67.293l0.644-0.457l2.8,3.949l2.44-1.73l0.397,0.56l-3.085,2.188L62.791,67.293z"/>
	</g>
	<g>
		<path d="M70.128,68.454c-0.367,0.097-0.73,0.093-1.09-0.012c-0.358-0.104-0.68-0.305-0.965-0.602
			c-0.283-0.296-0.471-0.625-0.56-0.988c-0.09-0.363-0.077-0.725,0.036-1.086c0.114-0.36,0.32-0.685,0.62-0.973
			c0.301-0.287,0.633-0.479,0.995-0.577c0.363-0.096,0.725-0.093,1.084,0.013c0.358,0.104,0.681,0.304,0.964,0.6
			c0.285,0.297,0.472,0.628,0.561,0.99c0.09,0.362,0.079,0.725-0.03,1.085c-0.11,0.361-0.314,0.686-0.614,0.973
			C70.828,68.165,70.494,68.357,70.128,68.454z M71.06,66.765c0.069-0.236,0.07-0.478,0.003-0.723
			c-0.068-0.245-0.202-0.473-0.403-0.683c-0.199-0.208-0.422-0.352-0.663-0.429c-0.243-0.078-0.481-0.087-0.72-0.026
			c-0.237,0.06-0.453,0.184-0.646,0.369c-0.194,0.187-0.326,0.396-0.396,0.631c-0.07,0.235-0.073,0.476-0.008,0.724
			c0.065,0.246,0.199,0.475,0.398,0.683c0.201,0.21,0.424,0.353,0.668,0.429c0.243,0.075,0.485,0.085,0.725,0.026
			c0.239-0.06,0.456-0.181,0.649-0.367C70.862,67.213,70.993,67.001,71.06,66.765z"/>
	</g>
	<g>
		<path d="M73.383,65.269c-0.269,0.191-0.514,0.313-0.736,0.365l-0.275-0.619c0.218-0.062,0.438-0.174,0.664-0.332
			c0.225-0.157,0.42-0.342,0.586-0.553c0.411-0.521,0.468-0.898,0.17-1.133c-0.099-0.078-0.205-0.104-0.318-0.081
			c-0.113,0.025-0.226,0.079-0.336,0.164c-0.109,0.084-0.258,0.21-0.443,0.378c-0.25,0.232-0.469,0.411-0.654,0.536
			c-0.185,0.125-0.389,0.197-0.612,0.216c-0.223,0.019-0.449-0.062-0.681-0.245c-0.298-0.235-0.438-0.547-0.424-0.938
			c0.018-0.389,0.188-0.793,0.518-1.211c0.173-0.219,0.373-0.416,0.6-0.593s0.44-0.3,0.642-0.368l0.271,0.625
			c-0.386,0.132-0.722,0.38-1.009,0.743c-0.198,0.252-0.309,0.478-0.33,0.675c-0.021,0.198,0.036,0.351,0.173,0.458
			c0.107,0.084,0.221,0.114,0.342,0.088c0.12-0.025,0.238-0.081,0.353-0.168c0.116-0.087,0.271-0.215,0.464-0.384
			c0.255-0.229,0.471-0.404,0.651-0.527c0.181-0.122,0.379-0.192,0.594-0.211c0.216-0.017,0.435,0.062,0.657,0.237
			c0.298,0.234,0.436,0.549,0.411,0.941c-0.026,0.393-0.21,0.809-0.556,1.246C73.891,64.848,73.65,65.078,73.383,65.269z"/>
	</g>
	<g>
		<path d="M75.795,61.793c-0.242,0.223-0.472,0.373-0.686,0.452l-0.349-0.582c0.208-0.089,0.414-0.226,0.618-0.41
			c0.204-0.183,0.375-0.39,0.515-0.619c0.345-0.567,0.355-0.948,0.031-1.146c-0.107-0.065-0.217-0.079-0.325-0.041
			c-0.11,0.038-0.214,0.105-0.313,0.202c-0.099,0.097-0.231,0.241-0.395,0.431c-0.22,0.26-0.415,0.464-0.584,0.61
			s-0.363,0.243-0.583,0.288c-0.218,0.046-0.452-0.007-0.704-0.16c-0.324-0.197-0.502-0.49-0.535-0.879
			c-0.03-0.389,0.092-0.811,0.367-1.265c0.146-0.239,0.319-0.459,0.522-0.661c0.204-0.203,0.4-0.352,0.594-0.444l0.345,0.588
			c-0.366,0.178-0.672,0.465-0.912,0.86c-0.167,0.274-0.249,0.511-0.245,0.71c0.002,0.198,0.077,0.343,0.226,0.434
			c0.117,0.07,0.234,0.086,0.351,0.046c0.116-0.039,0.228-0.109,0.331-0.21c0.104-0.1,0.242-0.246,0.414-0.438
			c0.225-0.257,0.419-0.458,0.582-0.602c0.165-0.144,0.353-0.237,0.563-0.281c0.212-0.044,0.439,0.008,0.682,0.155
			c0.324,0.197,0.498,0.492,0.521,0.885c0.022,0.393-0.11,0.828-0.399,1.305C76.249,61.314,76.038,61.57,75.795,61.793z"/>
	</g>
	<path d="M81.909,44.865c0,1.115-0.904,2.019-2.019,2.019c-1.114,0-2.018-0.904-2.018-2.019c0-1.115,0.904-2.019,2.018-2.019
		C81.005,42.845,81.909,43.749,81.909,44.865"/>
	<path d="M18.497,44.865c0,1.115-0.904,2.019-2.019,2.019c-1.114,0-2.018-0.904-2.018-2.019c0-1.115,0.904-2.019,2.018-2.019
		C17.592,42.845,18.497,43.749,18.497,44.865"/>
	<path d="M42.076,41.283c3.216,2.055,8.001,2.07,11.631,0.024c-0.306-0.559-0.635-1.114-0.918-1.69
		c-1.713-3.51-1.093-6.788,1.005-9.914c0.044-0.064,0.096-0.125,0.149-0.182c0.439-0.48,0.95-0.571,1.453-0.154
		c0.487,0.406,0.436,0.897,0.079,1.392c-2.05,2.851-2.315,5.794-0.461,8.854c1.083,1.791,2.095,3.618,2.465,5.722
		c0.561,3.197-0.054,6.239-1.193,9.211c-0.177,0.463-0.368,0.923-0.58,1.372c-0.275,0.585-0.754,0.835-1.352,0.566
		c-0.622-0.277-0.671-0.826-0.417-1.397c0.852-1.921,1.497-3.902,1.722-5.999c0.074-0.696,0.076-1.403,0.118-2.268
		c-0.688,0.259-1.257,0.427-1.788,0.681c-1.529,0.73-3.043,1.492-4.562,2.244c-0.443,0.22-0.607,0.554-0.593,1.073
		c0.039,1.519,0.002,3.038,0.017,4.557c0.007,0.669-0.208,1.141-0.938,1.191c-0.637,0.044-0.982-0.387-0.985-1.21
		c-0.008-1.546,0.01-3.091-0.015-4.637c-0.005-0.253-0.1-0.608-0.282-0.74c-1.967-1.418-4.209-2.258-6.539-3.126
		c-0.198,1.683,0.068,3.217,0.5,4.714c0.346,1.198,0.833,2.357,1.259,3.535c0.198,0.546,0.194,1.075-0.384,1.357
		c-0.58,0.282-1.103,0.101-1.374-0.498c-1.642-3.646-2.692-7.425-1.585-11.404c0.475-1.707,1.335-3.347,2.247-4.883
		c1.485-2.494,1.575-4.971,0.399-7.553c-0.204-0.446-0.482-0.869-0.781-1.261c-0.407-0.534-0.519-1.034,0.027-1.519
		c0.456-0.407,1.078-0.277,1.549,0.328c1.316,1.691,1.869,3.653,2.001,5.759c0.09,1.421-0.243,2.751-0.885,4.01
		C42.759,40.041,42.426,40.632,42.076,41.283 M40.417,44.796c0.179,0.118,0.238,0.176,0.309,0.201
		c2.379,0.87,4.726,1.806,6.859,3.207c0.155,0.101,0.488,0.047,0.683-0.047c1.757-0.852,3.496-1.742,5.255-2.589
		c0.576-0.279,1.196-0.465,1.862-0.716c-0.245-0.63-0.456-1.176-0.693-1.783c-4.561,2.298-9.055,2.291-13.613,0.002
		C40.845,43.682,40.635,44.226,40.417,44.796"/>
	<path d="M37.047,36.946c-0.906,0-1.762,0.008-2.619-0.003c-0.814-0.01-1.272-0.362-1.284-0.955
		C33.132,35.375,33.63,35,34.47,34.994c0.86-0.003,1.718,0,2.729,0c-0.346-0.529-0.63-0.953-0.901-1.384
		c-0.331-0.527-0.265-1.017,0.24-1.375c0.52-0.372,1.017-0.226,1.364,0.269c0.674,0.963,1.353,1.928,1.933,2.947
		c0.162,0.286,0.113,0.838-0.061,1.142c-0.544,0.95-1.191,1.84-1.801,2.753c-0.36,0.539-0.842,0.706-1.414,0.382
		c-0.527-0.299-0.58-0.857-0.186-1.497c0.22-0.355,0.443-0.706,0.661-1.061C37.045,37.149,37.037,37.117,37.047,36.946"/>
	<path d="M58.567,34.994c1.061,0,1.95,0.017,2.839-0.005c0.681-0.017,1.125,0.26,1.212,0.943c0.076,0.593-0.421,0.995-1.213,1.01
		c-0.88,0.015-1.761,0.003-2.839,0.003c0.37,0.559,0.64,0.958,0.901,1.364c0.333,0.517,0.304,1.026-0.204,1.382
		c-0.537,0.375-1.053,0.238-1.423-0.301c-0.634-0.928-1.296-1.842-1.845-2.819c-0.176-0.314-0.177-0.894-0.002-1.208
		c0.547-0.977,1.208-1.893,1.847-2.817c0.336-0.488,0.808-0.696,1.35-0.345c0.559,0.358,0.632,0.865,0.279,1.423
		C59.205,34.039,58.93,34.445,58.567,34.994"/>
	<path d="M47.87,38.926c0.556-0.01,0.99,0.424,0.97,0.99c-0.02,0.595-0.362,0.921-0.936,0.931c-0.571,0.01-0.929-0.299-0.968-0.896
		C46.898,39.386,47.317,38.936,47.87,38.926"/>
</g>
</svg>
