<?xml version="1.0" encoding="utf-8"?>
<!-- Generator: Adobe Illustrator 28.0.0, SVG Export Plug-In . SVG Version: 6.00 Build 0)  -->
<svg version="1.1" id="Layer_1" xmlns="http://www.w3.org/2000/svg" xmlns:xlink="http://www.w3.org/1999/xlink" x="0px" y="0px"
	 viewBox="0 0 95.745 85.787" enable-background="new 0 0 95.745 85.787" xml:space="preserve">
<g>
	<path d="M86.326,42.905c0.046,21.097-17.112,38.329-38.226,38.447C26.801,81.471,9.528,64.218,9.419,43.105
		C9.307,21.776,26.636,4.433,47.876,4.434C69.086,4.434,86.384,21.705,86.326,42.905 M84.9,42.893
		C84.917,22.817,68.876,6.325,48.716,5.877C28.068,5.419,11.124,21.832,10.855,42.402C10.584,62.996,27.08,79.803,47.68,79.918
		C68.28,80.033,84.912,63.365,84.9,42.893"/>
	<path d="M73.691,42.945c-0.073,14.214-11.577,25.875-26.07,25.75c-14.047-0.123-25.586-11.548-25.544-25.877
		c0.042-14.289,11.609-25.745,25.838-25.727C62.226,17.11,73.679,28.722,73.691,42.945 M72.226,42.904
		c0.047-13.464-10.909-24.316-24.25-24.37C34.509,18.48,23.537,29.42,23.519,42.852c-0.02,13.396,10.831,24.322,24.233,24.402
		C61.143,67.331,72.272,56.427,72.226,42.904"/>
	<g>
		<path d="M24.892,18.482l3.803,4.012l-0.567,0.537l-3.329-3.513l-0.905,0.858l-0.474-0.499L24.892,18.482z"/>
	</g>
	<g>
		<path d="M29.82,20.995c-0.406,0.02-0.813-0.084-1.223-0.312s-0.788-0.578-1.134-1.05c-0.346-0.471-0.566-0.936-0.661-1.395
			s-0.072-0.879,0.069-1.26c0.142-0.382,0.389-0.701,0.74-0.96c0.348-0.255,0.725-0.394,1.131-0.414s0.814,0.084,1.224,0.312
			s0.786,0.578,1.132,1.049c0.346,0.472,0.566,0.937,0.662,1.396s0.072,0.879-0.069,1.26c-0.142,0.382-0.386,0.7-0.733,0.955
			C30.605,20.834,30.226,20.974,29.82,20.995z M31.075,18.941c-0.001-0.449-0.205-0.952-0.612-1.509
			c-0.408-0.556-0.827-0.9-1.257-1.036c-0.429-0.136-0.821-0.073-1.178,0.188c-0.361,0.265-0.541,0.622-0.54,1.072
			s0.204,0.953,0.612,1.509c0.408,0.557,0.827,0.901,1.257,1.037c0.429,0.136,0.823,0.071,1.185-0.193
			C30.898,19.747,31.076,19.392,31.075,18.941z"/>
	</g>
	<g>
		<path d="M33.595,18.27c-0.404-0.045-0.79-0.214-1.157-0.506c-0.365-0.292-0.682-0.697-0.947-1.219
			c-0.264-0.521-0.406-1.017-0.426-1.484s0.071-0.878,0.272-1.232c0.201-0.353,0.497-0.628,0.886-0.826
			c0.385-0.196,0.779-0.271,1.184-0.226c0.404,0.047,0.789,0.215,1.156,0.506c0.366,0.292,0.683,0.699,0.947,1.22
			c0.266,0.521,0.406,1.016,0.427,1.483c0.019,0.469-0.071,0.879-0.272,1.232c-0.202,0.354-0.494,0.627-0.879,0.823
			C34.396,18.24,33.999,18.316,33.595,18.27z M35.166,16.448c0.072-0.443-0.048-0.974-0.36-1.588
			c-0.312-0.615-0.669-1.023-1.071-1.228c-0.401-0.203-0.799-0.204-1.193-0.004c-0.398,0.203-0.635,0.526-0.707,0.97
			c-0.072,0.445,0.049,0.974,0.361,1.589c0.312,0.615,0.668,1.024,1.07,1.227c0.401,0.204,0.802,0.205,1.201,0.002
			C34.861,17.215,35.094,16.892,35.166,16.448z"/>
	</g>
	<g>
		<path d="M36.381,13.877c-0.305-0.201-0.521-0.519-0.645-0.948s-0.111-0.811,0.039-1.146c0.15-0.333,0.409-0.553,0.778-0.66
			c0.37-0.106,0.705-0.061,1.007,0.141c0.302,0.2,0.516,0.519,0.641,0.953c0.127,0.436,0.115,0.817-0.033,1.148
			c-0.148,0.33-0.407,0.549-0.776,0.655C37.023,14.128,36.686,14.08,36.381,13.877z M37.736,13.162
			c0.079-0.219,0.073-0.486-0.019-0.806c-0.092-0.317-0.23-0.548-0.414-0.688c-0.183-0.143-0.391-0.179-0.624-0.112
			c-0.227,0.066-0.382,0.209-0.463,0.43c-0.081,0.222-0.077,0.487,0.014,0.801s0.229,0.543,0.416,0.686
			c0.187,0.144,0.394,0.184,0.621,0.117C37.5,13.523,37.657,13.379,37.736,13.162z M39.769,10.244l0.584-0.169l-2.091,6.358
			l-0.584,0.169L39.769,10.244z M40.469,15.412c-0.302-0.201-0.515-0.519-0.641-0.954c-0.126-0.434-0.115-0.817,0.033-1.147
			s0.407-0.549,0.777-0.655c0.368-0.106,0.705-0.06,1.011,0.143c0.306,0.203,0.52,0.519,0.644,0.948s0.111,0.812-0.038,1.146
			c-0.15,0.334-0.41,0.556-0.778,0.662C41.107,15.661,40.772,15.613,40.469,15.412z M41.815,14.691
			c0.081-0.22,0.076-0.487-0.015-0.802c-0.091-0.313-0.229-0.541-0.415-0.686c-0.188-0.143-0.394-0.182-0.621-0.115
			c-0.233,0.067-0.39,0.21-0.469,0.427c-0.08,0.217-0.073,0.486,0.019,0.804c0.092,0.319,0.229,0.549,0.413,0.69
			s0.392,0.18,0.625,0.112C41.579,15.055,41.733,14.912,41.815,14.691z"/>
	</g>
	<g>
		<path d="M49.788,9.382l0.089,5.526l-0.647,0.01l-3.382-4.067l0.066,4.121l-0.789,0.013l-0.089-5.526l0.647-0.01l3.382,4.067
			l-0.066-4.121L49.788,9.382z"/>
	</g>
	<g>
		<path d="M54.36,11.866c0.259,0.329,0.345,0.771,0.256,1.327l-0.397,2.496l-0.71-0.113l0.087-0.546
			c-0.155,0.173-0.356,0.291-0.604,0.356c-0.247,0.063-0.528,0.071-0.846,0.021c-0.463-0.073-0.815-0.244-1.059-0.513
			c-0.242-0.268-0.334-0.583-0.276-0.947c0.058-0.363,0.237-0.635,0.537-0.813c0.301-0.179,0.739-0.223,1.315-0.131l1.186,0.188
			l0.023-0.147c0.052-0.323-0.003-0.585-0.162-0.786c-0.16-0.201-0.422-0.33-0.786-0.389c-0.244-0.039-0.49-0.036-0.737,0.007
			c-0.246,0.044-0.461,0.12-0.644,0.229l-0.222-0.611c0.24-0.138,0.516-0.229,0.826-0.271c0.311-0.045,0.632-0.039,0.965,0.014
			C53.684,11.327,54.099,11.537,54.36,11.866z M53.132,14.777c0.228-0.095,0.407-0.252,0.538-0.471l0.092-0.577l-1.153-0.184
			c-0.635-0.101-0.986,0.062-1.054,0.488c-0.033,0.208,0.021,0.385,0.164,0.529c0.142,0.146,0.356,0.241,0.642,0.286
			C52.648,14.895,52.904,14.87,53.132,14.777z"/>
	</g>
	<g>
		<path d="M57.219,16.176c-0.133,0.06-0.284,0.091-0.455,0.094c-0.17,0.003-0.34-0.02-0.507-0.068
			c-0.404-0.116-0.686-0.315-0.846-0.598c-0.161-0.282-0.182-0.625-0.064-1.029l0.638-2.207l-0.682-0.198l0.173-0.599l0.683,0.197
			l0.254-0.88l0.729,0.211l-0.254,0.88l1.152,0.333l-0.174,0.6l-1.152-0.334l-0.629,2.177c-0.062,0.218-0.058,0.4,0.019,0.548
			c0.075,0.147,0.214,0.251,0.415,0.31c0.223,0.064,0.431,0.056,0.624-0.024L57.219,16.176z"/>
	</g>
	<g>
		<path d="M62.805,14.209l-1.683,3.831l-0.658-0.289l0.254-0.578c-0.227,0.136-0.479,0.207-0.755,0.216
			c-0.276,0.008-0.549-0.048-0.819-0.166c-0.512-0.225-0.852-0.542-1.021-0.953s-0.135-0.892,0.106-1.441l0.969-2.204l0.693,0.305
			l-0.934,2.125c-0.163,0.371-0.196,0.691-0.102,0.96s0.309,0.477,0.642,0.622c0.365,0.161,0.704,0.178,1.013,0.049
			c0.31-0.129,0.554-0.395,0.731-0.8l0.87-1.98L62.805,14.209z"/>
	</g>
	<g>
		<path d="M65.217,15.769c0.286,0.026,0.587,0.135,0.901,0.326l-0.381,0.628c-0.034-0.026-0.081-0.059-0.145-0.098
			c-0.351-0.213-0.69-0.276-1.017-0.188c-0.328,0.087-0.609,0.324-0.845,0.711L62.65,18.93l-0.647-0.394l2.173-3.576l0.621,0.378
			l-0.365,0.601C64.668,15.799,64.931,15.744,65.217,15.769z"/>
	</g>
	<g>
		<path d="M68.941,18.991c0.067,0.413-0.074,0.843-0.422,1.285l-1.562,1.986l-0.564-0.444l0.342-0.435
			c-0.221,0.075-0.453,0.081-0.701,0.017c-0.248-0.063-0.498-0.195-0.751-0.394c-0.368-0.29-0.593-0.61-0.674-0.962
			c-0.083-0.353-0.009-0.673,0.219-0.963c0.228-0.289,0.517-0.439,0.866-0.449c0.349-0.01,0.753,0.165,1.212,0.526l0.943,0.741
			l0.093-0.118c0.201-0.257,0.282-0.511,0.241-0.765c-0.042-0.254-0.208-0.494-0.498-0.723c-0.194-0.152-0.409-0.27-0.646-0.353
			c-0.236-0.082-0.462-0.119-0.674-0.112l0.103-0.643c0.277-0.003,0.562,0.052,0.855,0.164c0.292,0.113,0.57,0.273,0.836,0.482
			C68.614,18.191,68.875,18.577,68.941,18.991z M66.453,20.936c0.245,0.029,0.479-0.021,0.699-0.148l0.36-0.459l-0.918-0.722
			c-0.505-0.397-0.891-0.426-1.157-0.087c-0.131,0.166-0.168,0.347-0.115,0.543c0.054,0.195,0.194,0.384,0.422,0.562
			S66.208,20.908,66.453,20.936z"/>
	</g>
	<g>
		<path d="M71.706,18.709l0.543,0.527l-4.081,4.204l-0.543-0.527L71.706,18.709z"/>
	</g>
	<g>
		<path d="M29.584,65.088l-3.469,3.921l-0.554-0.49l3.038-3.434l-0.885-0.783l0.431-0.487L29.584,65.088z"/>
	</g>
	<g>
		<path d="M28.239,70.38c-0.143-0.357-0.176-0.755-0.097-1.191c0.078-0.437,0.275-0.883,0.591-1.337
			c0.315-0.455,0.663-0.796,1.045-1.023c0.382-0.227,0.766-0.336,1.149-0.327c0.386,0.01,0.748,0.133,1.089,0.368
			c0.335,0.232,0.575,0.527,0.719,0.886c0.144,0.356,0.176,0.754,0.097,1.191c-0.077,0.437-0.274,0.883-0.59,1.337
			c-0.315,0.455-0.663,0.796-1.046,1.023c-0.382,0.226-0.765,0.335-1.149,0.326c-0.386-0.01-0.746-0.131-1.081-0.363
			C28.625,71.035,28.383,70.738,28.239,70.38z M30.464,70.872c0.403-0.14,0.791-0.478,1.163-1.015
			c0.372-0.536,0.553-1.019,0.541-1.444c-0.011-0.426-0.188-0.758-0.532-0.997c-0.349-0.241-0.724-0.293-1.127-0.153
			c-0.402,0.139-0.79,0.478-1.162,1.014c-0.372,0.537-0.553,1.019-0.542,1.444c0.011,0.427,0.19,0.761,0.539,1.002
			C29.688,70.962,30.061,71.011,30.464,70.872z"/>
	</g>
	<g>
		<path d="M32.475,73.166c-0.198-0.331-0.292-0.718-0.283-1.161c0.009-0.444,0.134-0.916,0.374-1.414s0.53-0.89,0.873-1.174
			c0.341-0.283,0.702-0.451,1.084-0.502c0.382-0.052,0.759,0.013,1.132,0.192c0.367,0.177,0.65,0.431,0.849,0.762
			c0.198,0.33,0.292,0.718,0.283,1.161c-0.009,0.444-0.135,0.916-0.375,1.414s-0.529,0.89-0.872,1.174
			c-0.341,0.283-0.702,0.451-1.084,0.502c-0.383,0.051-0.758-0.012-1.125-0.188C32.958,73.752,32.672,73.497,32.475,73.166z
			 M34.749,73.304c0.377-0.201,0.707-0.596,0.99-1.184c0.284-0.588,0.387-1.092,0.309-1.512c-0.077-0.419-0.304-0.72-0.681-0.901
			c-0.382-0.184-0.762-0.176-1.139,0.024c-0.376,0.201-0.705,0.596-0.989,1.184c-0.283,0.588-0.387,1.092-0.309,1.512
			c0.078,0.419,0.308,0.721,0.689,0.905C33.997,73.514,34.374,73.504,34.749,73.304z"/>
	</g>
	<g>
		<path d="M41.824,71.178l0.556,0.153l-4.838,4.097l-0.555-0.152L41.824,71.178z M37.289,72.434
			c-0.146-0.313-0.163-0.676-0.05-1.085c0.112-0.408,0.312-0.709,0.598-0.904c0.287-0.195,0.605-0.245,0.957-0.148
			c0.351,0.097,0.598,0.301,0.742,0.611c0.145,0.312,0.159,0.675,0.045,1.088c-0.113,0.414-0.312,0.717-0.595,0.91
			c-0.284,0.193-0.601,0.242-0.951,0.146C37.683,72.954,37.435,72.748,37.289,72.434z M38.737,72.527
			c0.172-0.136,0.3-0.355,0.383-0.658c0.084-0.303,0.087-0.557,0.009-0.762c-0.078-0.206-0.228-0.338-0.448-0.399
			c-0.217-0.06-0.412-0.021-0.587,0.117c-0.175,0.139-0.304,0.356-0.386,0.654s-0.083,0.551-0.004,0.759
			c0.079,0.209,0.228,0.342,0.444,0.402C38.369,72.701,38.565,72.662,38.737,72.527z M39.829,75.699
			c-0.144-0.312-0.158-0.674-0.044-1.088c0.114-0.413,0.312-0.717,0.595-0.91c0.283-0.193,0.601-0.241,0.952-0.145
			s0.6,0.303,0.746,0.616c0.145,0.314,0.161,0.677,0.049,1.085s-0.312,0.71-0.598,0.905c-0.287,0.194-0.605,0.244-0.957,0.147
			S39.973,76.009,39.829,75.699z M41.272,75.783c0.176-0.139,0.305-0.356,0.387-0.654c0.082-0.299,0.083-0.552,0.003-0.76
			s-0.227-0.342-0.443-0.402c-0.222-0.061-0.419-0.022-0.589,0.113c-0.173,0.137-0.301,0.356-0.384,0.659s-0.086,0.557-0.008,0.761
			c0.076,0.206,0.226,0.339,0.447,0.4C40.902,75.959,41.097,75.919,41.272,75.783z"/>
	</g>
	<g>
		<path d="M49.76,71.964l-0.084,5.234l-0.613-0.011l-3.077-3.953l-0.062,3.902l-0.748-0.012l0.085-5.234l0.613,0.01l3.076,3.954
			l0.062-3.903L49.76,71.964z"/>
	</g>
	<g>
		<path d="M53.484,72.966c0.329,0.223,0.532,0.598,0.61,1.125l0.354,2.367l-0.673,0.101l-0.077-0.518
			c-0.091,0.2-0.239,0.365-0.444,0.495c-0.205,0.127-0.458,0.215-0.759,0.26c-0.439,0.066-0.806,0.012-1.102-0.159
			c-0.296-0.174-0.469-0.433-0.521-0.778c-0.052-0.345,0.032-0.641,0.253-0.887c0.221-0.248,0.603-0.413,1.151-0.495l1.123-0.168
			l-0.021-0.14c-0.046-0.307-0.17-0.526-0.372-0.663c-0.2-0.136-0.475-0.179-0.819-0.127c-0.231,0.034-0.453,0.106-0.663,0.216
			c-0.212,0.109-0.384,0.24-0.517,0.392l-0.375-0.488c0.177-0.192,0.4-0.354,0.668-0.482c0.269-0.128,0.561-0.216,0.876-0.264
			C52.72,72.671,53.157,72.744,53.484,72.966z M53.208,75.946c0.18-0.149,0.297-0.343,0.352-0.579l-0.081-0.547l-1.094,0.164
			c-0.603,0.09-0.873,0.337-0.812,0.741c0.029,0.197,0.13,0.341,0.299,0.432s0.391,0.115,0.661,0.074
			C52.803,76.191,53.029,76.096,53.208,75.946z"/>
	</g>
	<g>
		<path d="M57.901,75.467c-0.077,0.113-0.184,0.214-0.32,0.3c-0.137,0.088-0.285,0.152-0.443,0.195
			c-0.386,0.104-0.712,0.082-0.979-0.067c-0.269-0.149-0.454-0.416-0.56-0.801l-0.571-2.1l-0.649,0.177l-0.155-0.57l0.649-0.177
			l-0.229-0.837l0.693-0.189l0.228,0.838l1.098-0.299l0.155,0.57l-1.098,0.299l0.564,2.07c0.057,0.207,0.151,0.352,0.285,0.435
			c0.133,0.083,0.296,0.098,0.488,0.046c0.212-0.059,0.375-0.168,0.492-0.329L57.901,75.467z"/>
	</g>
	<g>
		<path d="M60.766,70.167l1.521,3.66l-0.629,0.261l-0.229-0.553c-0.055,0.245-0.171,0.464-0.346,0.658
			c-0.176,0.196-0.393,0.346-0.65,0.453c-0.488,0.202-0.929,0.229-1.321,0.076c-0.394-0.153-0.698-0.492-0.917-1.017L57.321,71.6
			l0.662-0.275l0.845,2.03c0.147,0.354,0.344,0.586,0.59,0.698c0.246,0.11,0.528,0.101,0.846-0.032
			c0.35-0.146,0.581-0.365,0.696-0.662c0.114-0.296,0.092-0.638-0.069-1.023l-0.786-1.893L60.766,70.167z"/>
	</g>
	<g>
		<path d="M63.014,69.256c0.152-0.226,0.38-0.425,0.683-0.599l0.346,0.604c-0.037,0.016-0.086,0.04-0.146,0.075
			c-0.338,0.193-0.544,0.445-0.622,0.758c-0.077,0.312-0.009,0.653,0.204,1.025l0.981,1.713l-0.623,0.356l-1.971-3.439l0.598-0.342
			l0.331,0.578C62.789,69.724,62.862,69.482,63.014,69.256z"/>
	</g>
	<g>
		<path d="M66.424,67.03c0.395,0.045,0.749,0.282,1.064,0.712l1.416,1.93l-0.548,0.402l-0.31-0.422
			c0.012,0.221-0.042,0.435-0.163,0.644c-0.122,0.21-0.306,0.404-0.55,0.584c-0.358,0.263-0.708,0.387-1.05,0.372
			s-0.616-0.163-0.823-0.445c-0.205-0.281-0.27-0.582-0.189-0.903s0.342-0.646,0.789-0.974l0.916-0.672l-0.084-0.114
			c-0.184-0.249-0.396-0.387-0.638-0.414c-0.242-0.026-0.504,0.063-0.785,0.271c-0.188,0.139-0.351,0.306-0.486,0.5
			c-0.135,0.195-0.227,0.391-0.274,0.587l-0.56-0.257c0.067-0.254,0.19-0.5,0.367-0.739c0.178-0.237,0.396-0.452,0.652-0.641
			C65.612,67.125,66.03,66.986,66.424,67.03z M67.568,69.795c0.088-0.216,0.103-0.442,0.041-0.676l-0.326-0.445l-0.893,0.654
			c-0.49,0.36-0.614,0.704-0.372,1.034c0.117,0.16,0.272,0.241,0.465,0.242c0.192,0.002,0.398-0.08,0.62-0.242
			C67.324,70.201,67.479,70.011,67.568,69.795z"/>
	</g>
	<g>
		<path d="M66.2,64.643l0.535-0.479l3.707,4.128l-0.535,0.479L66.2,64.643z"/>
	</g>
	<path d="M81.909,44.865c0,1.115-0.904,2.019-2.019,2.019c-1.114,0-2.018-0.904-2.018-2.019c0-1.115,0.904-2.019,2.018-2.019
		C81.005,42.845,81.909,43.75,81.909,44.865"/>
	<path d="M18.497,44.865c0,1.115-0.904,2.019-2.019,2.019c-1.114,0-2.018-0.904-2.018-2.019c0-1.115,0.904-2.019,2.018-2.019
		C17.592,42.845,18.497,43.75,18.497,44.865"/>
	<path d="M48.895,49.919c-1.619-4.319-4.429-7.575-8.43-9.818c5.608,5.118,7.639,11.474,6.62,18.949
		c-0.144-0.039-0.243-0.054-0.335-0.091c-2.388-1.002-4.632-2.242-6.604-3.941c-2.22-1.913-3.878-4.229-5.029-6.915
		c-0.941-2.202-1.497-4.505-1.83-6.871c-0.362-2.558-0.404-5.13-0.331-7.707c0.025-0.887,0.108-1.773,0.167-2.658
		c0.003-0.056,0.03-0.108,0.056-0.199c0.086,0.049,0.155,0.074,0.206,0.12c1.766,1.575,3.783,2.775,5.83,3.934
		c2.004,1.136,4.015,2.259,5.985,3.451c1.654,1,3.16,2.207,4.481,3.628c0.865,0.929,1.622,1.94,2.247,3.045
		c0.115,0.203,0.145,0.367,0.003,0.578c-0.968,1.453-1.925,2.915-2.888,4.371C49.03,49.819,49,49.835,48.895,49.919"/>
	<path d="M61.793,38.878c0.059,0.191,0.103,0.316,0.135,0.443c0.603,2.298,0.961,4.625,0.877,7.009
		c-0.149,4.18-1.759,7.668-4.931,10.414c-0.938,0.811-1.955,1.509-3.023,2.134c-0.103,0.061-0.213,0.108-0.358,0.181
		c-0.23-0.478-0.311-0.98-0.402-1.473c-0.576-3.151,0.079-6.073,1.671-8.81c0.422-0.727,0.907-1.416,1.353-2.105
		c-0.904,0.335-3.123,3.344-3.919,5.328c-0.853,2.127-1.014,4.351-0.875,6.624c-0.088-0.01-0.142,0.002-0.171-0.02
		c-1.016-0.806-1.876-1.742-2.398-2.949c-0.605-1.403-0.536-2.815-0.041-4.228c0.51-1.457,1.348-2.721,2.307-3.913
		c1.44-1.793,3.096-3.374,4.861-4.834c1.475-1.218,3.008-2.364,4.515-3.54C61.502,39.054,61.621,38.99,61.793,38.878"/>
</g>
</svg>
