<?xml version="1.0" encoding="utf-8"?>
<!-- Generator: Adobe Illustrator 28.0.0, SVG Export Plug-In . SVG Version: 6.00 Build 0)  -->
<svg version="1.1" id="Layer_1" xmlns="http://www.w3.org/2000/svg" xmlns:xlink="http://www.w3.org/1999/xlink" x="0px" y="0px"
	 viewBox="0 0 109.5 109.5" style="enable-background:new 0 0 109.5 109.5;" xml:space="preserve">
<style type="text/css">
	.st0{fill:#E7BC70;}
	.st1{fill:#1F4F6F;}
</style>
<g>
	<path class="st0" d="M45.7,92.7c-2.2-0.4-4.2-1.1-6-2c-9.4-4.3-15.4-13.4-18.1-23.6c-0.7-2.4-1.1-4.9-1.4-7.5
		C17,40.6,26.8,11,49.1,16c7.2,1.7,13.4,5.6,18.7,10.8c1.8,1.7,3.4,3.6,5,5.6C82.2,44.8,94,59.5,88.6,75.3
		c-5.1,15.1-22,19.5-37,18.7C49.7,93.7,47.7,93.3,45.7,92.7"/>
	<path class="st1" d="M53.1,32.4H33.8v35.4c0.6,0,1.2,0,1.7,0c1,0,1.5,0.5,1.5,1.5c0,1.3,0,2.6,0,3.9v0.4h19.3
		c-0.2-0.1-0.2-0.2-0.3-0.2c-1.6-1-2.9-2.2-3.7-3.9c-0.5-1.2-0.9-2.4-0.5-3.7c0.3-1,1-1.9,1.8-2.6c1.1-0.9,2.4-1.8,3.5-2.7
		c0.1-0.1,0.2-0.1,0.3-0.2c-0.6-1-1.2-2.1-1.8-3.1c-0.5-0.9-0.1-1.7,1-1.7c0.1,0,0.1,0,0.2,0c5,0,9.9,0,14.9,0
		c0.3,0,0.6,0.1,0.9,0.2c0.5,0.3,0.7,0.8,0.4,1.3c-0.6,1.1-1.2,2.2-1.9,3.3c0.5,0.4,1.1,0.7,1.6,1.1c1,0.7,2,1.5,2.9,2.4
		c1.4,1.5,1.7,3.1,1,5c-0.7,2-2.1,3.4-3.8,4.5c-0.1,0.1-0.3,0.2-0.4,0.3h0.3c3,0,6,0,8.9,0c0.2,0,0.5,0,0.7,0.1
		c0.6,0.2,0.9,0.7,0.8,1.4c-0.1,0.5-0.6,1-1.1,1c-0.1,0-0.2,0-0.3,0c-18.7,0-37.5,0-56.2,0c-0.8,0-1.4-0.5-1.4-1.2
		c0-0.7,0.5-1.2,1.2-1.2c0.2,0,0.3,0,0.5,0c0-0.2,0-0.3,0-0.4c0-1.4,0-2.7,0-4.1c0-0.8,0.5-1.3,1.3-1.3c0.6,0,1.2,0,1.8,0
		c0,0,0,0,0.1,0v-0.4c0-14.5,0-28.9,0-43.4c0-1.1,0.4-1.9,1.4-2.4c1.6-0.7,3.3,0.4,3.3,2.2c0,1.1,0,2.3,0,3.4v0.4h19.3v-0.4
		c0-1.1,0-2.3,0-3.4c0-1.4,1-2.4,2.3-2.4c1.3,0,2.4,1.1,2.4,2.5c0,1.2,0,2.5,0,3.7c0,0,0,0,0,0.1H71v-0.4c0-1.2,0-2.3,0-3.5
		c0-1.2,0.8-2.2,2.1-2.3c1.3-0.2,2.6,0.9,2.6,2.2c0,1.2,0,2.4,0,3.6c0,0.1,0,0.2,0,0.4c0.1,0,0.3,0,0.4,0c1.1,0,2.2,0,3.3,0
		c1.3,0,2.3,1,2.4,2.2c0.1,1.2-0.7,2.3-1.9,2.5c-0.2,0-0.4,0-0.6,0c-1.2,0-2.3,0-3.5,0v23.3c-0.8-2.2-2.5-2.8-4.7-2.7V40.1h-5.4v0.4
		c0,3.5,0,7,0,10.4c0,0.4-0.1,0.8-0.5,1.1c-0.7,0.6-1.8,0.2-2-0.7c0-0.2,0-0.3,0-0.5c0-3.4,0-6.9,0-10.3v-0.5h-5.3V53
		c-0.5,0-1,0-1.5,0.1c-1.6,0.2-2.6,1-3.1,2.6c0,0,0,0.1-0.1,0.1V32.4z M71,32.4H57.8v5.2H71V32.4z"/>
</g>
</svg>
