<?xml version="1.0" encoding="utf-8"?>
<!-- Generator: Adobe Illustrator 28.0.0, SVG Export Plug-In . SVG Version: 6.00 Build 0)  -->
<svg version="1.1" id="Layer_1" xmlns="http://www.w3.org/2000/svg" xmlns:xlink="http://www.w3.org/1999/xlink" x="0px" y="0px"
	 viewBox="0 0 109.5 109.5" style="enable-background:new 0 0 109.5 109.5;" xml:space="preserve">
<style type="text/css">
	.st0{fill:#E7BC70;}
	.st1{fill:#1F4F6F;}
</style>
<g>
	<path class="st0" d="M88.4,43.3c0.7,2.1,1.2,4.1,1.5,6.2c1.2,10.2-3.5,20.1-10.7,27.8c-1.7,1.8-3.6,3.5-5.6,5.1
		C58.9,95,28.5,102,21.2,80.4C18.9,73.3,19,66,20.7,58.8c0.6-2.4,1.3-4.8,2.2-7.2c5.7-14.6,12.1-32.2,28.4-35.8
		c15.6-3.5,28.1,8.6,35.2,21.9C87.2,39.5,87.9,41.4,88.4,43.3"/>
	<path class="st1" d="M80.7,49.5c-1.5,4-4.4,6.7-7.8,9.2c-2.2,1.6-4.6,2.7-7,3.5c0.8-2.1,1-4.4,0.5-7c-0.2-0.9-0.9-1.5-1.7-1.6
		c-0.3-1.1-0.8-2.3-1.7-3.4c-0.4-0.5-1-0.8-1.6-0.8c-0.2,0-0.4,0-0.7,0.1c-0.4,0.1-0.7,0.4-1,0.7c-1.7-3.1-1.8-6-0.3-8.9
		c0.2-0.4,0.2-0.8,0.2-0.9c0.1-0.7-0.2-1.4-0.8-1.8C58.5,38.2,58,38,57.6,38c-0.3,0-0.5,0-0.7,0.1l-0.3,0.1
		c-0.3,0.1-0.5,0.2-0.7,0.3c-2.1,0.9-3.7,1.9-5.1,3.3c-2,2-2.7,4.6-3.1,6.6l0,0.2c-0.1,0-0.2,0-0.3-0.1c-0.1,0-0.1,0-0.2,0
		c-0.8,0-1.6,0.5-1.9,1.4c-0.7,2-1.1,4.1-1.1,6.2c-0.8,0.3-1.4,1.2-1.3,2.1c0.1,0.6,0.1,1.3,0.2,1.9c0.1,0.4,0.1,0.8,0.2,1.1
		c-2-0.7-3.7-1.6-4.9-2.3c-3.2-2-6-4.5-7.6-8c-1.1-2.4-1.8-4.9-0.9-7.6c0.7-2.1,2-3.9,3.7-5.3c2.4-1.9,4.8-3.7,7.3-5.5
		c0.2-0.1,0.4-0.3,0.6-0.4c-1.2-2.1-2.4-4.3-3.6-6.4c-1-1.9-0.1-3.4,2-3.5c0.1,0,0.3,0,0.4,0c10.2,0,20.3,0,30.5,0
		c0.6,0,1.3,0.1,1.8,0.4c1.1,0.5,1.4,1.6,0.8,2.7c-1.3,2.3-2.5,4.5-3.8,6.8c1.1,0.7,2.2,1.5,3.2,2.2c2.1,1.5,4.1,3.1,5.9,5
		C81.5,42.2,82.1,45.6,80.7,49.5"/>
	<path class="st1" d="M54.6,45c-2.5,3.5-3.5,7.3-3.1,11.7c-1.2-1.4-1.4-2.9-1-4.5c-0.1,0.2-0.2,0.4-0.3,0.6c-1.2,2.5-1.8,5.2-1.5,8
		c0.1,1.1,0.4,2.2,0.9,3.3c0.6,1.3,1.6,2.1,2.9,2.7c-1.1-0.7-1.8-1.7-2-2.9c-0.2-1.2,0.1-2.4,0.8-3.5c0,0.2,0,0.3,0,0.4
		c0,1,0.5,1.8,1.3,2.4c0.4,0.3,0.7,0.2,0.8-0.3c0-0.4,0-0.7-0.1-1.1c-1-3.3-0.7-6.4,0.8-9.4c0,0,0.1-0.1,0.1-0.1c0,0,0,0,0.1,0
		c0,0.3-0.1,0.5-0.1,0.7c0,0.2-0.1,0.5-0.1,0.7c-0.1,2.2,0.8,3.9,2.7,5c1.3,0.8,2.1,1.9,2.4,3.4c0.6,2.9-1.3,5.3-4.3,5.3
		c-2.7,0-5.2-0.9-7.2-2.7c-1.4-1.2-2.2-2.8-2.4-4.7c-0.1-0.6-0.1-1.2-0.2-1.8c0.3,0.7,0.8,1.3,1.6,1.6c-0.6-3.1-0.4-6.1,0.7-9
		c0.1,0.7,0.3,1.3,0.8,1.7c0.5,0.5,0.9,0.5,1-0.3c0.3-1.1,0.5-2.2,0.7-3.3c0.4-2.1,1.1-4,2.6-5.5c1.3-1.3,2.8-2.2,4.4-2.8
		c0.3-0.1,0.6-0.2,1-0.4c0,0.1,0,0.1,0,0.2c-2.1,4.1-1.5,8,0.8,11.7c0.5,0.7,1.1,1.4,1.7,2c0.2,0.2,0.6,0.4,0.9,0.3
		c0.2-0.1,0.3-0.5,0.3-0.8c0-0.7,0-1.4-0.1-2.1c1.6,2.2,1.9,4.6,1.7,7.2c0.5-0.4,0.6-0.9,0.8-1.4c0.2-0.5,0.4-1,0.6-1.5
		c0.5,2.7,0.3,5.4-1.4,7.7c-1.6,2.3-3.9,3.4-6.6,3.8c0.9-0.3,1.6-0.8,2.3-1.4c1.3-1.2,1.9-2.6,2-4.3c0.1-1.9,0-3.8-0.6-5.6
		c0-0.1,0-0.1-0.1-0.2c0,0.7-0.1,1.3-0.8,1.8c-0.4-1.6-1.3-2.8-2.3-4c-2-2.4-2.8-5.2-2.3-8.2C54.7,45.1,54.6,45,54.6,45"/>
	<path class="st1" d="M45.2,80c0-0.4,0-0.7,0.1-1.1c0-0.1,0.2-0.3,0.3-0.3c1.1-0.6,2.2-1.1,3.4-1.7c0.1-0.1,0.2-0.1,0.3-0.2
		c-1.4,0.5-2.7,0.9-4.1,1.4c-0.1-0.2-0.2-0.5-0.3-0.7c0.7-0.3,1.4-0.6,2.1-0.9c0,0,0,0,0-0.1c-0.7,0.2-1.4,0.3-2.1,0.5
		c-0.3,0.1-0.5,0-0.7-0.2c-0.2-0.2-0.4-0.5-0.5-0.7c0.2,0.7,0.4,1.4,0.5,2.1c0.1,0.5,0.1,1.1,0,1.6c-0.1,0.6-0.5,0.9-1.1,0.7
		c-1.7-0.4-2.9-2.4-2.4-4.1c0.2-0.8,0.7-1.4,1.5-1.7c2.4-1.1,4.9-2.2,7.3-3.3c5.1-2.3,10.1-4.5,15.2-6.8c0.8-0.3,1.5-0.1,2.2,0.3
		c-0.8,0.5-1.6,1-2.3,1.4c0,0,0,0.1,0,0.1c0.9-0.4,1.9-0.8,2.8-1.2c0.6,0.7,1,1.5,1.1,2.5c0,0.1-0.1,0.3-0.3,0.3
		c-1.4,0.7-2.7,1.5-4.1,2.2c-0.1,0.1-0.2,0.1-0.3,0.2c1.6-0.6,3.1-1.2,4.7-1.8c-0.1,0.6-0.4,1-0.9,1.2c-1.3,0.6-2.6,1.3-3.9,1.8
		c-6.1,2.7-12.2,5.4-18.3,8.2C45.4,79.9,45.3,79.9,45.2,80"/>
	<path class="st1" d="M46.4,67.3c-1.5-0.7-3-1.5-4.5-2.2c0.4-0.6,1-0.8,1.7-0.7c0.4,0,0.8,0.1,1.2,0.3c3,1.2,6,2.5,8.9,3.7
		c0.1,0,0.2,0.1,0.3,0.1c-0.1,0.1-0.2,0.1-0.3,0.2c-2.2,1-4.4,2-6.6,3c-0.2,0.1-0.4,0.1-0.6,0c-1.5-0.7-3-1.4-4.5-2
		c-1.1-0.4-1.8-2.4-0.6-3.7c0.1-0.1,0.3-0.1,0.4,0c1.5,0.4,2.9,0.9,4.4,1.4C46.2,67.3,46.3,67.3,46.4,67.3
		C46.4,67.3,46.4,67.3,46.4,67.3"/>
	<path class="st1" d="M66.6,75.3c-0.9,0.3-1.4,1-1.7,2c-1.3-0.5-2.7-0.9-4-1.4c0,0,0,0.1,0,0.1c0.2,0.1,0.5,0.2,0.7,0.4
		c0.9,0.5,1.9,1,2.8,1.5c0.2,0.1,0.3,0.2,0.2,0.4c0,0.4,0,0.8,0,1.2c-1.2-0.5-2.3-0.9-3.4-1.4c0,0,0,0.1-0.1,0.1
		c0.3,0.3,0.6,0.5,0.9,0.8c-0.5,0.3-0.6,0.5-0.3,1c0-0.1,0.1-0.1,0.1-0.2c0.1-0.2,0.3-0.4,0.5-0.2c0.1,0.1,0.1,0.5,0.1,0.6
		c-0.2,0.4-0.7,0.4-1,0c-0.3-0.4-0.7-0.9-1-1.3c-1.1-1.2-2.4-2.3-3.9-3c0,0-0.1,0-0.1-0.1c1-0.5,2-0.9,3-1.4
		c1.3-0.6,2.6-1.1,3.9-1.7c0.2-0.1,0.5-0.1,0.7,0c1,0.4,2,0.9,3,1.3c1.1,0.5,1.7,1.6,1.5,2.8c-0.2,1-0.6,1.9-1.4,2.6
		c-0.5,0.4-1.3,0.4-1.5,0c-0.2-0.3-0.2-0.7-0.2-1.1C65.4,77.2,65.8,76.2,66.6,75.3"/>
</g>
</svg>
