<?xml version="1.0" encoding="utf-8"?>
<!-- Generator: Adobe Illustrator 28.0.0, SVG Export Plug-In . SVG Version: 6.00 Build 0)  -->
<svg version="1.1" id="Layer_1" xmlns="http://www.w3.org/2000/svg" xmlns:xlink="http://www.w3.org/1999/xlink" x="0px" y="0px"
	 viewBox="0 0 109.5 109.5" style="enable-background:new 0 0 109.5 109.5;" xml:space="preserve">
<style type="text/css">
	.st0{fill:#E7BC70;}
	.st1{fill:#1F4F6F;}
</style>
<g>
	<path class="st0" d="M97,60.8c-0.2,2.4-0.7,4.7-1.5,6.9c-3.7,10.8-13,18.5-23.9,22.7c-2.6,1-5.3,1.8-8.1,2.5
		C42.9,98.6,9,91.1,12,66c1-8.2,4.6-15.5,9.7-21.8c1.7-2.1,3.6-4.2,5.6-6.2c12.6-11.9,27.4-26.5,45.5-22.4
		c17.3,3.8,24.1,22,24.9,38.6"/>
	<path class="st1" d="M46.9,65.2c0.1,0.3,0.4,0.4,0.6,0.4c0.5,0.1,1,0.2,1.4,0.2c1.4,0.1,2.8,0.1,4.1,0.1c0.9,0,1.8,0.1,2.7,0.2
		c0.1,0,0.2,0.1,0.3,0.1c0,0,0,0.1,0,0.1c-0.3,0-0.6,0.1-0.9,0.1c-1.6,0-3.2,0-4.8,0c-2,0-4.1,0-6.1,0c-0.2,0-0.4,0-0.6,0
		c0-1.1,0.2-2,1-2.7c0.8-0.7,0.9-1.5,0.7-2.4c-0.1-0.4-0.2-0.9-0.3-1.3c0-0.2-0.1-0.3-0.2-0.5c-0.3,0.2-0.2,0.4-0.3,0.6
		c-0.1,0.6-0.1,1.2-0.2,1.7c-0.1,0.5-0.3,0.9-0.6,1.3c-0.5,0.7-0.8,1.4-1,2.2c-0.1,0.3-0.2,0.7-0.4,0.9c-0.2,0.4-0.7,0.5-1.1,0.4
		c-0.3-0.1-0.5-0.3-0.5-0.6c0-0.5,0-1.1,0-1.6c0-0.5,0.3-0.9,0.7-1.2c0.2-0.1,0.3-0.3,0.5-0.4c0.2-0.2,0.4-0.5,0.4-0.8
		c0-1.6-0.2-3.3-0.8-4.8c-0.2-0.5-0.6-0.9-1.1-1.2c-0.6-0.3-1-0.9-1.4-1.4c-0.9-1.1-1.7-2.3-2.6-3.4c-0.3-0.4-0.5-0.8-0.8-1.2
		c-0.2-0.3-0.3-0.7-0.3-1.1c0-1-0.4-1.8-1.3-2.4c-0.1-0.1-0.3-0.2-0.4-0.3c-0.9-0.5-1.5-1.3-1.9-2.3c-0.2-0.4-0.4-0.7-0.6-1.1
		c-0.5-0.8-1.2-1.3-2.2-1.3c-0.4,0-0.7-0.1-1.1,0c-0.7,0-1.3,0.4-1.9,0.9c-0.4,0.3-0.8,0.6-1.2,0.8c-0.4,0.3-0.9,0.3-1.3,0
		c-1.1-0.7-2-1.5-2.8-2.5c-0.2-0.3-0.3-0.7-0.1-1c0.1-0.3,0.3-0.6,0.5-0.9c1-1.6,1.4-3.3,1.2-5.2c0-0.4-0.1-0.8-0.1-1.2
		c0-0.2-0.1-0.3-0.1-0.5c-0.1-0.3-0.3-0.4-0.5-0.4c-1.4,0-2.1-0.9-2.7-2c-0.1-0.2-0.2-0.4,0-0.6c0.2-0.2,0.4-0.2,0.6-0.2
		c0.6,0.1,1.2,0.2,1.8,0.3c0.3,0,0.6,0,0.8,0c0.2-0.2,0.1-0.4,0-0.6c-0.2-0.4-0.4-0.8-0.6-1.2c-0.2-0.5-0.3-0.9-0.5-1.4
		c-0.1-0.5,0-1,0.3-1.5c0.3-0.6,0.8-1,1.4-1.3c0.3-0.2,0.7-0.3,1,0c0.3,0.3,0.1,0.7,0,1c-0.1,0.3-0.3,0.5-0.5,0.7
		c-0.1,0.2-0.3,0.4-0.4,0.7c-0.3,0.7,0.2,1.6,0.9,1.9c0.2,0.1,0.3,0,0.5-0.1c0.4-0.5,0.9-0.6,1.5-0.6c1.2,0.1,2.3,0.2,3.5,0.3
		c0.7,0.1,1.3,0.3,2,0.4c0.2,0,0.5,0.1,0.7,0.1c0.6,0,0.9-0.3,1-0.9c0.1-0.7-0.1-1.4-0.5-2c-0.2-0.2-0.3-0.4-0.5-0.6
		c-0.1-0.2-0.2-0.4-0.1-0.7c0.2-0.2,0.4-0.2,0.6-0.1c1.3,0.4,2.1,1.2,2.4,2.6c0.2,1,0.1,1.9-0.2,2.9c-0.1,0.3-0.1,0.5-0.2,0.9
		c0.3,0,0.5,0,0.7,0c1.1-0.2,2.3-0.3,3.4-0.4c0.3,0,0.7-0.2,1-0.3c0.2-0.1,0.5-0.2,0.7-0.2c0.6,0,1.2,0.1,1.9,0.1
		c0.4,0,0.8,0,1.1-0.3c0.3-0.2,0.6-0.2,1-0.2c1.7,0,3.4,0.2,5,0.7c0.8,0.2,1.6,0.4,2.4,0.5c1.7,0.2,3.4,0.4,5.1,0.5
		c1.5,0.1,3,0.1,4.6,0.1c1.1,0,2.3,0,3.4-0.1c1.3-0.1,2.5-0.3,3.8-0.5c0.2,0,0.5-0.1,0.7-0.2c0.9-0.4,1.9-0.5,2.8-0.5
		c1.4,0,2.8-0.1,4.2-0.1c1.6,0,3.1,0.1,4.7,0.5c0.3,0.1,0.5,0.2,0.8,0.3c0.8,0.3,1.6,0.6,2.5,0.6c1.1,0.1,1.8,0.9,1.8,2
		c0,0.3,0,0.7-0.1,1c-0.1,0.7,0.1,1.4,0.3,2.1c0.2,0.5,0.3,0.9,0.4,1.4c0.2,1,0.1,2,0,3c-0.1,1.2-0.2,2.5,0,3.7
		c0.3,1.6,0.9,2.9,2.1,4c0.7,0.6,1.3,1.3,1.9,1.9c0.1,0.1,0.3,0.3,0.4,0.4c0.2,0.3,0.3,0.6,0.1,0.9c-0.2,0.5-0.5,1-0.8,1.4
		c-0.2-0.4,0-0.9-0.4-1.2c-0.3,0.2-0.3,0.6-0.3,0.8c0,0.5,0.1,0.9,0.2,1.3c0.1,0.3,0.2,0.5,0.6,0.6c0.5-0.2,0.2-0.9,0.7-1.1
		c0,0.1,0.1,0.2,0.1,0.3c0,0.8-0.1,1.5-0.1,2.3c0,0.1,0,0.2-0.1,0.2c-0.1,0.2-0.2,0.4-0.4,0.4c-0.2,0-0.5-0.2-0.5-0.4
		c0-0.2,0-0.4,0-0.7c-0.2-0.1-0.4-0.1-0.5-0.2c-0.2,0-0.5,0-0.7,0c-0.5,0-0.6-0.1-0.8-0.5c-0.1-0.4-0.2-0.8-0.2-1.2
		c0-0.8,0-1.6,0-2.4c0-1.1-0.3-2.2-0.9-3.1c-0.3-0.5-0.6-1-0.9-1.5c-0.2-0.3-0.2-0.7-0.3-1c-0.1-0.2-0.1-0.4-0.4-0.6
		c-0.1,0.2-0.1,0.3-0.1,0.5c0,0.3-0.1,0.7-0.1,1c0,1.5-0.4,2.8-1,4.1c-0.1,0.3-0.3,0.6-0.4,0.9c-0.4,0.8-0.4,1.6-0.1,2.4
		c0.3,0.9,0.7,1.8,1.3,2.6c0.1,0.1,0.2,0.3,0.3,0.4c0.3,0.4,0.3,0.8,0,1.2c-0.5,0.8-0.6,1.7-0.6,2.5c0,0.5,0,1,0.1,1.5
		c0,0.6,0.2,1.1,0.6,1.6c0.3,0.5,0.3,0.7-0.2,1.1c-0.2,0.1-0.4,0.3-0.6,0.4c-0.1,0.1-0.3,0.1-0.5,0.2c0-0.2,0-0.4,0-0.5
		c0,0,0,0,0-0.1c-0.6-0.1-0.7-0.5-0.8-1.1c0-0.7-0.1-1.4-0.1-2.1c0-0.3,0-0.5-0.1-0.8c-0.5-1.3-1-2.6-1.8-3.7
		c-0.4-0.6-0.8-1.1-1.4-1.5c-0.4-0.3-0.9-0.4-1.3-0.1c-0.6,0.3-1.2,0.6-1.8,1c-0.5,0.3-0.5,0.5-0.3,1c0.1,0.3,0.2,0.6,0.3,0.9
		c0,0.1,0,0.3-0.1,0.5c-0.3-0.1-0.3-0.1-0.6-0.6c-0.1,0.1-0.2,0.3-0.3,0.4c-0.4,0-0.5-0.3-0.5-0.6c-0.2-1.1-1-1.6-1.9-1.9
		c-0.1,0-0.2,0-0.3,0c-0.6,0.2-1.1-0.1-1.5-0.5c-0.3-0.2-0.6-0.4-0.9-0.5c-0.6-0.2-1.2-0.1-1.8,0.2c-0.7,0.3-1.2,0.8-1.7,1.4
		c-0.2,0.2-0.4,0.4-0.6,0.6c-0.4,0.3-0.5,0.3-0.9,0c0,0-0.1-0.1-0.2-0.1c-0.1,0.1-0.2,0.2-0.3,0.3c-0.8,1.2-1,2.5-0.4,3.9
		c0.1,0.3,0.3,0.5,0.4,0.8c0.3,0.6,0.5,1.2,0.6,1.8c0.1,0.5,0.3,0.9,0.4,1.3c0.2,0.6,0.5,1.3,0.8,2c0.3-0.3,0.6-0.6,0.9-0.8
		c0.3-0.2,0.5-0.5,0.9-0.5c0.1,0.2,0,0.4-0.1,0.5c-0.2,0.2-0.4,0.5-0.6,0.7c-0.1,0.1-0.2,0.3-0.3,0.6c0.2,0,0.3,0,0.4-0.1
		c0.2-0.1,0.3-0.2,0.5-0.3c0.5-0.5,1.2-0.7,1.9-0.7c0.5,0,0.9-0.1,1.4-0.1c0.3,0,0.4-0.1,0.6-0.3c-0.1-0.2-0.3-0.3-0.5-0.4
		c-0.7-0.3-1.2-0.7-1.7-1.2c-0.3-0.3-0.6-0.6-1.1-0.4c-0.1,0-0.3,0-0.5-0.1c-1.1-0.4-2.1-0.9-2.9-1.7c-0.1-0.1-0.2-0.3-0.3-0.5
		c0.2-0.3,0.5-0.3,0.7-0.2c0.6,0.2,1.1,0.5,1.5,1c0.2,0.2,0.4,0.3,0.6,0.5c0.3-0.3,0.2-0.5,0.1-0.7c-0.3-0.3-0.5-0.7-0.9-1
		c-0.4-0.3-0.9-0.6-1.4-0.8c-0.2-0.1-0.4-0.2-0.6-0.3c-0.3-0.3-0.3-0.6,0.1-0.8c0.4-0.2,0.9-0.3,1.3-0.1c0.3,0.1,0.6,0.2,0.9,0.4
		c0.8,0.6,1.6,1.3,2.3,1.9c0.1,0.1,0.2,0.3,0.4,0.5c-0.1,0.1-0.2,0.1-0.3,0.1c-0.1,0-0.1,0.1-0.2,0.1c0.1,0.3,0.3,0.3,0.4,0.3
		c0.7,0.1,1.4,0.3,2.2,0.4c1.2,0.2,2.5,0.4,3.8,0.6c0.3,0,0.5,0.2,0.8,0.3c0.3,0.1,0.5,0.2,0.8,0c0.6-0.2,1.1-0.5,1.7-0.7
		c0.3-0.1,0.6-0.2,0.9-0.3c0.5-0.1,1,0.2,1,0.6c0,0.4-0.5,0.9-0.9,0.9c-0.3,0-0.4-0.1-0.4-0.4c0-0.1,0-0.2,0.1-0.4
		c-0.2-0.2-0.4-0.2-0.7-0.1c0,0.2,0,0.3,0,0.5c0.1,0.3,0,0.7-0.2,0.9c-0.2,0.3-0.4,0.4-0.7,0.3c-0.4-0.1-0.9-0.1-1.3,0.1
		c-0.3,0.1-0.5,0.3-0.5,0.7c0,0.6,0,1.2,0.4,1.7c0.3,0.4,0.2,0.7-0.3,0.8c-0.5,0.1-1.1,0.2-1.7,0.3C75,68,74.4,68,73.7,68
		c-0.4,0-0.8,0.2-1.1,0.5c-0.5,0.5-1.1,0.7-1.7,0.8c-0.7,0.1-1.4,0.1-2.1,0.2c-0.5,0.1-1,0.1-1.5,0.2c-0.2,0-0.3,0.1-0.5,0.2
		c0,0,0,0.1,0,0.1c0.2,0.1,0.5,0.2,0.8,0.4c-0.5,0.2-0.9,0.2-1.3,0v-0.6c-0.2,0-0.3-0.1-0.4-0.1c-0.5,0-0.9-0.1-1.4-0.1
		c-0.7-0.1-1.4-0.1-2.1-0.2c-0.2,0-0.4-0.1-0.6-0.2c0,0,0-0.1,0-0.1c0.1,0,0.2-0.1,0.3-0.1c0.7,0,1.4,0,2.1,0c0.5,0,0.9,0,1.4-0.1
		c0.8-0.1,1.4-0.5,2-1.1c-0.1-0.1-0.2-0.3-0.4-0.4c-0.8-0.7-1.3-1.6-1.7-2.6c-0.2-0.4-0.2-0.9-0.4-1.3c-0.4-1-0.8-2.1-1.2-3.1
		c-0.2-0.6-0.4-1.2-0.4-1.8c0.1-0.4,0.1-0.9,0.3-1.3c0.1-0.5,0.4-0.9,0.5-1.4c0.1-0.2,0.1-0.3,0.1-0.5c-0.3-0.3-0.6-0.3-0.9-0.3
		c-1-0.1-1.9-0.1-2.9-0.2c-1.6-0.1-3.3-0.2-4.9-0.3c-1-0.1-2.1-0.1-3.1-0.1c-0.5,0-1,0.2-1.5,0.4c-0.5,0.3-1.1,0.5-1.6,0.7
		c-0.4,0.2-0.7,0.4-1,0.8c-0.5,0.7-0.7,1.5-0.9,2.3c-0.3,1.4-0.3,2.7-0.1,4.1c0,0.4,0,0.8,0,1.3c0,0.3-0.2,0.6-0.4,0.8
		C47.1,64.9,47,65.1,46.9,65.2 M73.5,52.3c-0.1-0.2-0.3-0.3-0.3-0.4c-0.1-0.3-0.1-0.5-0.1-0.8c0-0.3-0.1-0.6-0.1-0.9
		c-0.1,0-0.2,0-0.3,0.1c-0.4,0.4-0.9,0.9-1.3,1.3c-0.2,0.2-0.1,0.4,0.1,0.6c0.2,0.2,0.3,0.4,0.5,0.7c0.1,0.2,0.2,0.5,0.3,0.7
		c0.3,0,0.5,0,0.7,0c0.4,0,0.7-0.1,0.9,0.4c0.3,0,0.5-0.1,0.7-0.1c0.2,0.1,0.3,0.3,0.5,0.3c0.9,0,1.9-0.1,2.8-0.4
		c0.4-0.1,0.6-0.4,0.7-0.8c0.1-0.3,0.2-0.6,0.5-0.8c0.2-0.1,0.4-0.3,0.6-0.4c0.7-0.4,1-1,1.1-1.7c0.1-0.8,0.1-1.6,0.1-2.4
		c0-0.6-0.1-1.1-0.6-1.6c-0.4-0.3-0.6-0.4-1-0.2c-0.5,0.2-1,0.5-1.4,0.8c-0.7,0.4-1.4,0.6-2.2,0.6c-0.4,0-0.8-0.1-1.2-0.1
		c-1.5-0.1-3-0.2-4.4-0.7c-0.4-0.1-0.7-0.1-1,0.1c-0.3,0.2-0.6,0.4-0.9,0.6c-0.1,0.1-0.2,0.2-0.3,0.4c-0.1,0.5-0.4,0.8-0.7,1.2
		c-0.1,0.1-0.2,0.3-0.3,0.5c0.4,0.4,0.8,0.5,1.3,0.6c0.3,0,0.5,0,0.7-0.3c0.2-0.3,0.6-0.2,0.9-0.2c0.3,0.1,0.4,0.3,0.4,0.6
		c0,0.6,0,1.2-0.6,1.5c0.2,0.4,0.3,0.5,0.7,0.2c0.9-0.8,1.6-1.8,1.4-3.1c0-0.3,0-0.5,0.2-0.7c0.3,0,0.3,0.3,0.4,0.4
		c0.1,0.3,0.3,0.4,0.6,0.4c0.4,0,0.4,0,0.5,0.4c0.1,0.7,0.2,1.5,0.3,2.2c0,0.2,0,0.4,0,0.6C73.6,52,73.5,52.1,73.5,52.3 M79.7,45
		c-0.2-0.3-0.4-0.5-0.6-0.7c-0.6-0.6-1.3-1.1-2.1-1.4c-0.2-0.1-0.3-0.2-0.5-0.2c-0.4-0.2-0.5-0.5-0.4-0.9c0.1-0.3,0.1-0.5,0.3-0.8
		c0.3-0.7,0.8-1.3,1.3-1.9c0.2-0.2,0.3-0.5,0.5-0.8c-0.2-0.1-0.4-0.3-0.5-0.3c-0.3-0.1-0.6-0.1-0.8,0c-0.4,0.1-0.5,0-0.6-0.4
		c-0.1-0.3-0.2-0.6-0.5-0.8c-0.3-0.2-0.7-0.4-1-0.5c-0.7-0.3-1.5-0.2-2.3-0.2c-0.5,0-0.9,0.1-1.3,0.4c-0.9,0.7-1.2,2.2-0.7,3.2
		c0.4,0.9,1.8,1.6,2.8,1.5c0.1,0,0.2-0.1,0.4-0.2c-0.2-0.4-0.6-0.3-0.9-0.6c0.5-0.1,0.8-0.2,1.2-0.2c0.3,0,0.6,0,0.9,0.1
		c0.3,0.1,0.4,0.3,0.5,0.6c0,0.2-0.1,0.4-0.4,0.5c-0.3,0.1-0.5,0.2-0.8,0.2c-0.7,0-1.4,0-2.2-0.1c-0.2,0-0.4,0-0.6,0
		c0,0.3,0,0.5,0.1,0.8c0.1,0.8-0.1,1.3-0.8,1.7c-0.4,0.2-0.8,0.6-1.1,1c-0.3,0.4-0.2,0.6,0.2,0.8c0.6,0.3,1.2,0.4,1.9,0.4
		c1.1,0,2.2,0.1,3.2,0.4c0.6,0.2,1.2,0.2,1.8-0.1c0.8-0.4,1.6-0.8,2.4-1.2C79.2,45.3,79.4,45.2,79.7,45 M66.4,51.2
		c-0.6,0-1.1,0.4-1.4,0.9c-0.1,0.3-0.1,0.6,0.1,0.8c0.3,0.3,0.6,0.6,0.9,0.8c0.2,0.2,0.5,0.2,0.8,0c0.3-0.3,0.6-0.5,0.9-0.9
		c0.2-0.2,0.2-0.5,0.1-0.8C67.7,51.6,67,51.2,66.4,51.2 M73.2,67.4c0.3,0,0.4-0.2,0.6-0.4c0.3-0.3,0.7-0.5,1.1-0.5
		c0.2,0,0.4,0,0.7,0c0.1,0,0.3-0.1,0.5-0.1c-0.5-0.7-1.3-0.5-1.9-0.8c0.5-0.3,1.1,0,1.4-0.6c-0.1-0.1-0.3-0.3-0.4-0.3
		c-0.5-0.1-1-0.1-1.4,0.2C73.1,65.3,72.8,66.7,73.2,67.4 M37.5,31.7c-0.2-0.1-0.3-0.2-0.4-0.2c-0.6-0.1-1.2-0.4-1.7-0.7
		c-1.1-0.8-2.3-1-3.6-1c-0.3,0-0.6,0.1-0.9,0.2c-0.2,0.1-0.4,0.2-0.3,0.5c0.2-0.1,0.4-0.1,0.6-0.2c0.7-0.3,1.4-0.3,2.1-0.1
		c0.4,0.2,0.8,0.4,1.2,0.6c0.4,0.2,0.8,0.5,1.2,0.7c0.3,0.2,0.7,0.3,1,0.4C37.1,32,37.4,32.1,37.5,31.7 M68.9,38.4L68.9,38.4
		c-0.1,0-0.3,0-0.4,0c-0.5,0.1-0.7,0.3-0.5,0.8c0.2,0.4,0.4,0.5,0.9,0.5c0.4,0,0.8-0.4,0.9-0.7c0-0.2,0-0.4-0.2-0.5
		C69.3,38.5,69.1,38.4,68.9,38.4 M26.3,35.3c0.3-0.2,0.2-0.5,0.1-0.7c-0.1-0.5,0-1,0.4-1.3c0.2-0.1,0.3-0.3,0.5-0.4
		c0.1-0.1,0.2-0.2,0.3-0.4c-0.8,0-1.5,0.5-1.7,1.1C25.8,34.2,25.9,35.1,26.3,35.3 M24.6,41.3c0.1-0.4,0.1-0.4,0-0.9
		c-0.1-0.5,0-0.7,0.5-0.7c0.2,0,0.5,0,0.7,0c0.1,0,0.3,0,0.5,0c-0.4-0.4-1-0.6-1.4-0.4c-0.5,0.2-0.7,0.6-0.7,1.1
		C24.2,40.6,24.1,41,24.6,41.3 M30.6,32.5c0.3,0.5,0.4,0.5,0.8,0.5c0.7-0.1,1.2-0.4,1.8-0.7C32.4,32.3,31.5,32.1,30.6,32.5 M27,34.4
		c0.3,0.3,0.6,0.2,0.9,0.1c0.4-0.1,0.6-0.5,0.5-0.9c-0.1-0.4-0.4-0.5-0.8-0.2C27.8,34,27.1,34.1,27,34.4 M84.6,32.9
		c-0.8-0.6-1.6-1-2.5-1.4C82.4,32.2,83.7,33,84.6,32.9 M32.5,37.7c-0.5,0.3-1.2,1.2-1.4,1.7C31.9,39.2,32.5,38.4,32.5,37.7 M34.3,34
		c1.7,0.1,2.9-0.3,3.2-1.1C36.5,33.6,35.4,33.7,34.3,34 M29.1,39.3c0.8-0.1,1.9-1,2-1.7C30.5,38.1,29.8,38.7,29.1,39.3 M70.3,68.3
		c0.3,0,0.6-0.2,0.6-0.5c0-0.2-0.1-0.4-0.4-0.4c-0.3,0-0.6,0.2-0.7,0.5C69.8,68.2,70,68.3,70.3,68.3 M40.3,44.2
		c0.3-0.8,0.7-1.7,1-2.6C40.5,42.3,40.1,43.2,40.3,44.2 M44.3,58.5c0-0.4,0.1-0.8,0.1-1.3c0-0.2,0-0.5-0.1-0.7
		c0-0.1-0.1-0.2-0.2-0.3C43.9,56.8,44,57.4,44.3,58.5 M23,31c0.5-0.3,0.6-1,0.1-1.3C22.9,30.1,22.8,30.5,23,31 M33.8,39.8
		c0.5-0.4,0.5-0.8,0.1-1C33.5,39.2,33.5,39.5,33.8,39.8 M43.6,39.9c0.2-0.8,0.2-1-0.2-1.1C43.3,39.2,43.4,39.5,43.6,39.9 M38.4,30.8
		c0.5,0.3,0.9,0.3,1.4,0C39.3,30.7,38.9,30.6,38.4,30.8 M32.4,40.8c-0.1-0.2-0.3-0.4-0.5-0.4c-0.1,0-0.2,0.1-0.3,0.2
		C31.9,41,32,41,32.4,40.8 M42,40.5c0.5-0.3,0.5-0.5,0.4-1.1C42.2,39.8,41.9,40.1,42,40.5 M72.1,32.5c0.2,0.4,0.4,0.6,0.7,0.7
		C72.9,32.7,72.7,32.5,72.1,32.5 M42,38.6c0.2-0.3,0.3-0.5,0.2-0.8C41.9,38,41.8,38.1,42,38.6 M50.4,46.1c-0.1-0.3-0.2-0.5-0.5-0.6
		C49.9,46,50,46,50.4,46.1 M89,52.4c0,0.6,0.1,0.6,0.5,0.7C89.5,52.7,89.3,52.6,89,52.4 M45.4,29.8c-0.1,0.3,0.1,0.4,0.3,0.5
		C45.8,29.9,45.8,29.9,45.4,29.8 M49.2,52.7C49.2,52.7,49.3,52.8,49.2,52.7c0.3-0.2,0.5-0.5,0.7-0.8C49.6,52.1,49.3,52.3,49.2,52.7
		 M41.3,31c-0.1-0.4-0.2-0.5-0.6-0.4C40.9,30.7,41.1,30.8,41.3,31 M89.1,51.3c0.2-0.4,0.2-0.4,0-0.7V51.3z M50.9,50.7
		c0.2-0.3,0.2-0.3,0-0.5V50.7z M73.6,63c0,0,0,0.1,0,0.1c0.1,0,0.2,0,0.4,0c0,0,0-0.1,0-0.1H73.6z"/>
	<path class="st1" d="M61.3,64.8c-0.2,0.3-0.5,0.3-0.8,0.3c-0.8,0-1.5,0-2.3,0c-2.3,0-4.5-0.1-6.8-0.1c-1,0-1.9-0.2-2.9-0.2
		c-0.1,0-0.3-0.1-0.4-0.1c0.2-0.3,0.5-0.3,0.7-0.4c0.4-0.1,0.8-0.1,1.3-0.1c1.8-0.1,3.5,0.1,5.3,0.2c1.1,0.1,2.3,0.1,3.4,0.1
		c0.6,0,1.3,0.1,1.9,0.1C60.9,64.6,61.1,64.6,61.3,64.8"/>
	<path class="st1" d="M81.7,69.3c-0.9,0.4-1.7,0.5-2.6,0.6c-0.3,0-0.7,0.1-1-0.1c0.1-0.2,0.3-0.3,0.5-0.3c0.2,0,0.3,0,0.5,0
		c0.4-0.1,0.6-0.3,0.6-0.7c0-0.2-0.1-0.4-0.3-0.5c-0.2-0.1-0.3,0.1-0.4,0.2c-0.3,0.3-0.6,0.4-1,0.3c0,0-0.1,0-0.2-0.1
		c0.1-0.1,0.2-0.3,0.3-0.4c0.6-0.5,0.9-1.1,0.9-1.9c0-0.4,0.1-0.6,0.3-0.9c0.3,0.1,0.4,0.3,0.5,0.5c0.4,0.8,0.8,1.5,1,2.4
		c0,0.3,0.2,0.5,0.5,0.6C81.3,69.1,81.4,69.2,81.7,69.3"/>
	<path class="st1" d="M65.7,68.2c0,0.3-0.2,0.4-0.4,0.4c-0.4,0-0.8-0.1-1.2-0.1c-0.5-0.1-0.9-0.1-1.3-0.2c-0.3,0-0.6-0.2-0.8-0.4
		c-0.2-0.1-0.4-0.2-0.7-0.2c-0.5-0.1-1.1-0.1-1.6-0.1c-0.3,0-0.6-0.1-0.9-0.1c-0.1,0-0.3-0.1-0.4-0.2l0-0.1c0.1-0.1,0.3-0.2,0.4-0.2
		c0.3-0.1,0.7-0.1,1-0.1c1.7,0,3.3,0,5,0.2c0.3,0,0.7,0,1.1,0.3c-0.3,0.3-0.7,0.2-1.1,0.2c-0.3,0.1-0.7,0.1-1,0.1
		C64.4,67.8,65.1,67.7,65.7,68.2"/>
	<path class="st1" d="M51.1,62.2c4.3-0.1,8.7-0.2,13,0.1c0.1,0,0.2,0.1,0.2,0.2c-0.2,0-0.4,0.1-0.6,0.1c-1.8,0.1-3.7,0.2-5.5,0
		c-0.2,0-0.4,0-0.6,0c-2-0.1-4-0.1-6-0.2c-0.2,0-0.3-0.1-0.5-0.1C51.1,62.3,51.1,62.3,51.1,62.2"/>
	<path class="st1" d="M42.8,68.9c0.2,0,0.5,0,0.7,0c2.5,0,5-0.1,7.5-0.1c1.4,0,2.9,0.1,4.3,0.2c0.7,0,1.3,0.2,2,0.3
		c0.2,0,0.3,0.1,0.6,0.2c-0.2,0.1-0.2,0.3-0.3,0.3c-0.3,0-0.7,0.1-0.9,0c-0.6-0.2-1.3-0.2-1.9-0.3c-1.8-0.1-3.5-0.2-5.3-0.3
		c-0.9,0-1.8-0.1-2.8-0.1C45.4,69.1,44.1,69.1,42.8,68.9C42.9,69,42.8,69,42.8,68.9"/>
	<path class="st1" d="M92.2,71.1c-3.9,0-7.8-0.3-11.8-0.5c0.2,0,0.4,0,0.6,0c1.6,0,3.1-0.1,4.7-0.1c1.5,0,2.9,0.1,4.4,0.2
		c0.7,0,1.4,0.2,2,0.3C92.2,71.1,92.2,71.1,92.2,71.1"/>
	<path class="st1" d="M74.8,70.1c-0.8,0.5-5.2,0.6-6,0.1c0-0.2,0.2-0.2,0.4-0.2c0.3-0.1,0.7-0.1,1-0.1c1.3,0,2.5,0,3.8,0
		c0.3,0,0.6,0.1,0.9,0.1C74.8,70,74.8,70.1,74.8,70.1"/>
	<path class="st1" d="M26,67.6c-0.7,0.4-4.3,0.4-4.9,0c0.1-0.1,0.2-0.2,0.3-0.2c0.4-0.1,0.8-0.2,1.2-0.2c0.9,0,1.7,0,2.6,0.1
		C25.5,67.4,25.8,67.4,26,67.6"/>
	<path class="st1" d="M66.7,64.2c0.1-0.4,0.4-0.6,0.7-0.6c0.9,0.1,1.9,0.3,2.7,0.7c0.1,0.1,0.2,0.2,0.3,0.2c0,0.3-0.3,0.4-0.5,0.4
		c-0.4,0-0.5-0.2-0.6-0.5C68.4,64.1,67.5,64.6,66.7,64.2"/>
	<path class="st1" d="M71.1,56c0.6-0.1,1.2-0.2,1.7-0.3c0.4-0.1,0.7,0.3,0.5,0.7c-0.1,0.2-0.2,0.5-0.4,0.6c-0.4,0.2-0.9,0.4-1.3,0.6
		c-0.1,0-0.2,0-0.4,0c0.4-0.6,1.1-0.7,1.6-1c-0.6-0.2-1.3-0.2-1.8-0.4C71.1,56.1,71.1,56,71.1,56"/>
	<path class="st1" d="M32.1,67.6c-0.6,0.4-3.1,0.4-3.7,0c0.3-0.3,0.6-0.4,1-0.4C30.3,67.1,31.2,67.1,32.1,67.6"/>
	<path class="st1" d="M80.5,57.3c-0.2-0.2-0.4-0.3-0.5-0.4c-0.2-0.3-0.5-0.4-0.9-0.4c-0.6,0-1.1-0.7-1.1-1.3c0.1,0,0.3,0,0.4,0.1
		c0.7,0.3,1.3,0.6,1.8,1C80.5,56.5,80.7,56.8,80.5,57.3"/>
	<path class="st1" d="M61.4,66.1c0.7-0.3,3.2-0.2,3.6,0.1c0,0.3-0.3,0.3-0.5,0.3c-0.6,0-1.2,0-1.7,0c-0.4,0-0.7-0.1-1.1-0.2
		C61.6,66.2,61.6,66.2,61.4,66.1"/>
	<path class="st1" d="M37,65c-0.8,0.4-3.5,0.5-4.1,0.1c0.2-0.1,0.3-0.2,0.5-0.2c0.7,0,1.5-0.1,2.2-0.1c0.3,0,0.6,0,0.9,0
		C36.6,64.9,36.7,65,37,65"/>
	<path class="st1" d="M33.4,66.4c1.2-0.1,2.3-0.3,3.5,0c-0.3,0.3-0.6,0.5-1,0.4c-0.8-0.1-1.6-0.2-2.4-0.4
		C33.5,66.5,33.4,66.4,33.4,66.4"/>
	<path class="st1" d="M81.9,65.2c0-0.1,0-0.2,0.1-0.3c0.1-0.4,0.5-0.5,0.8-0.2c0.1,0.1,0.3,0.3,0.3,0.5c0,0.2,0,0.5-0.1,0.6
		c-0.1,0.2-0.4,0.2-0.6,0.1c-0.3-0.1-0.4-0.2-0.4-0.5C81.9,65.3,81.9,65.3,81.9,65.2"/>
	<path class="st1" d="M76.4,61.2c-0.1-0.6,0.6-2,1.2-2.3c0.2,0.4,0,0.7-0.2,1C77.2,60.4,77,60.9,76.4,61.2"/>
	<path class="st1" d="M76.9,61.8c0.1-0.7,1.1-1.6,1.7-1.5c0.1,0.4-0.2,0.7-0.5,0.9C77.6,61.7,77.3,61.9,76.9,61.8"/>
	<path class="st1" d="M20.9,69.3c0.7-0.4,2.4-0.3,3,0.1c-0.4,0.2-0.8,0.1-1.1,0.1C22.2,69.5,21.5,69.7,20.9,69.3"/>
	<path class="st1" d="M53.1,67.8c0.3-0.4,0.8-0.3,1.2-0.3c0.3,0,0.6,0,0.8,0.4c-0.4,0.4-0.9,0.3-1.4,0.3
		C53.4,68.2,53.3,68.1,53.1,67.8"/>
	<path class="st1" d="M28.4,65.1c0.5-0.3,2.4-0.2,2.8,0c0,0.2-0.1,0.3-0.3,0.3c-0.3,0-0.6,0-0.9,0C29.5,65.3,28.9,65.2,28.4,65.1"/>
	<path class="st1" d="M41.2,67.8c-0.9,0.2-2.8,0.1-3.2-0.1c0.1-0.1,0.2-0.2,0.3-0.2C39.3,67.3,40.2,67.5,41.2,67.8"/>
	<path class="st1" d="M43.6,67.8c0.4-0.3,1.3-0.4,1.7-0.1C44.9,68.3,44,68.4,43.6,67.8"/>
	<path class="st1" d="M32,69c-1,0.2-2,0.2-3,0C30,68.8,31,68.8,32,69"/>
	<path class="st1" d="M50.9,67.1c0.3-0.3,1-0.4,1.5-0.1c-0.3,0.3-0.6,0.5-1,0.5C51.1,67.6,51,67.4,50.9,67.1"/>
	<path class="st1" d="M68.2,55.1c0.3-0.3,0.8-0.3,1.1-0.1c0.2,0.2,0.2,0.4,0,0.5C68.8,55.8,68.3,55.6,68.2,55.1"/>
	<path class="st1" d="M70,54.5c0.4-0.1,0.9,0.2,1.2,0.7C70.7,55.5,70.1,55.2,70,54.5"/>
	<path class="st1" d="M49,67.7c-0.7,0.2-1.5,0.2-2.2,0C47.5,67.4,48.3,67.5,49,67.7"/>
	<path class="st1" d="M34.5,67.7c0.7-0.2,1.4-0.2,2.1,0C35.9,67.9,35.2,67.8,34.5,67.7"/>
	<path class="st1" d="M27.8,62.4c0.4-0.3,1.7-0.2,2.2,0C29.3,62.6,28.6,62.6,27.8,62.4"/>
	<path class="st1" d="M39.6,63c0.4-0.2,0.5-0.2,0.9,0c-0.1,0.3-0.3,0.4-0.5,0.4C39.8,63.5,39.7,63.4,39.6,63"/>
	<path class="st1" d="M37.4,62.1c-0.5,0.1-1,0.2-1.5,0C36.4,61.8,36.9,61.9,37.4,62.1"/>
	<path class="st1" d="M92.7,69.3c-0.5,0.2-1,0.2-1.5,0C91.8,69.1,92.2,69.2,92.7,69.3"/>
	<path class="st1" d="M23.2,65c0.5-0.2,0.9-0.2,1.4,0C24.2,65.3,23.6,65.3,23.2,65"/>
	<path class="st1" d="M83.9,69c0.5-0.2,0.9-0.2,1.4,0C85,69.2,84.4,69.2,83.9,69"/>
	<path class="st1" d="M31,62.4c0.5-0.3,0.7-0.3,1,0C31.7,62.6,31.4,62.6,31,62.4"/>
	<path class="st1" d="M32.4,63.4c-0.3,0.2-0.5,0.2-0.8,0C31.9,63.2,32.1,63.1,32.4,63.4"/>
	<path class="st1" d="M47.3,67.1c-0.4,0.2-0.4,0.2-0.8,0C46.8,66.8,47,66.8,47.3,67.1"/>
	<path class="st1" d="M30.6,66.4c0.3-0.3,0.4-0.3,0.8,0C31.1,66.6,31,66.6,30.6,66.4"/>
	<path class="st1" d="M94.1,71.4c-0.3,0.1-0.5,0.2-0.8,0C93.6,71.1,93.8,71.1,94.1,71.4"/>
	<path class="st1" d="M77.2,52.4c-0.3-0.2-0.2-0.4-0.2-0.6c0.1-0.3,0.2-0.6,0.4-1c0.4-0.7,0.5-1.4,0.4-2.2c0-0.3,0-0.6,0.1-0.8
		c0.1-0.3,0.3-0.5,0.6-0.5c0.3,0,0.5,0.2,0.7,0.5c0.3,0.7,0.2,1.5-0.3,2.1c-0.5,0.6-0.9,1.2-1.1,1.9C77.7,52.1,77.5,52.3,77.2,52.4"
		/>
	<path class="st1" d="M74.5,52.9c0-0.2,0-0.5,0.1-0.7c0.1-0.6,0.3-1.2,0.4-1.8c0-0.4,0-0.9-0.1-1.3c0-0.3-0.2-0.6-0.5-0.7
		c-0.1,0-0.2-0.1-0.3-0.2c0.4-0.3,1-0.2,1.3,0.3c0.2,0.4,0.3,0.9,0.2,1.4c-0.1,0.8-0.3,1.5-0.4,2.3c0,0.2,0,0.4-0.1,0.6
		C75,52.9,74.9,53,74.5,52.9"/>
	<path class="st1" d="M76.5,49.5c0.2,0.9,0,1.8-0.2,2.7c-0.2,1-0.2,1-0.5,1.2C75.6,52.6,76,50,76.5,49.5"/>
	<path class="st1" d="M79.8,47.5c0.4,0.6,0.5,1.1,0.5,1.7c0,0.2-0.1,0.4-0.3,0.5C79.6,49.4,79.5,48.2,79.8,47.5"/>
	<path class="st1" d="M78.5,44.8c-0.1,0.1-0.1,0.2-0.2,0.2c-1,0.8-2.2,1.2-3.5,0.8c-0.6-0.2-1.2-0.2-1.7-0.3c-0.2,0-0.5,0-0.7,0
		c-0.2,0-0.4-0.1-0.5-0.3c0.1-0.2,0.3-0.2,0.5-0.2c0.8,0,1.6,0.1,2.4,0.3c0.3,0.1,0.6,0.1,0.9,0.2c0.5,0.1,0.9,0,1.3-0.3
		c0.3-0.2,0.7-0.4,1-0.5c0.1-0.1,0.3,0,0.5,0C78.5,44.7,78.5,44.7,78.5,44.8"/>
	<path class="st1" d="M70.8,38.1c0.2,0,0.4,0,0.5,0.1c0.9,0.3,1.7,0.6,2.6,0.9c0.1,0,0.1,0.1,0.2,0.1c-0.3,0.2-0.7,0.2-1.7-0.1
		c-0.6-0.2-1.2-0.4-1.7-0.9C70.8,38.2,70.8,38.2,70.8,38.1"/>
	<path class="st1" d="M72.4,43.2c1-0.3,1.9-0.5,2.9-0.4c0,0.3-0.2,0.3-0.3,0.3C74.2,43.3,73.3,43.5,72.4,43.2"/>
	<path class="st1" d="M74.3,44.3c0.5-0.3,1-0.6,1.6-0.8c0.2-0.1,0.4-0.1,0.4,0.2c0.1,0.2-0.1,0.3-0.2,0.3c-0.6,0.2-1.2,0.3-1.8,0.5
		C74.3,44.4,74.3,44.3,74.3,44.3"/>
	<path class="st1" d="M74.7,39c0.4-0.5,0.8-0.7,1.2-0.5C75.8,39,75.3,39.2,74.7,39"/>
	<path class="st1" d="M72.6,36.8c-0.4,0.4-0.7,0.7-1.3,0.7C71.4,37,72,36.7,72.6,36.8"/>
	<path class="st1" d="M73.8,42.6c0.2-0.4,0.7-0.6,1.1-0.6C74.7,42.5,74.3,42.7,73.8,42.6"/>
	<path class="st1" d="M74.4,36.8c0.5-0.1,0.8,0,0.9,0.6C74.9,37.3,74.6,37.1,74.4,36.8"/>
</g>
</svg>
