<?xml version="1.0" encoding="utf-8"?>
<!-- Generator: Adobe Illustrator 28.0.0, SVG Export Plug-In . SVG Version: 6.00 Build 0)  -->
<svg version="1.1" id="Layer_1" xmlns="http://www.w3.org/2000/svg" xmlns:xlink="http://www.w3.org/1999/xlink" x="0px" y="0px"
	 viewBox="0 0 71.9 42.9" style="enable-background:new 0 0 71.9 42.9;" xml:space="preserve">
<style type="text/css">
	.st0{fill-rule:evenodd;clip-rule:evenodd;fill:#2E3192;}
	.st1{fill-rule:evenodd;clip-rule:evenodd;fill:#F37032;}
	.st2{fill-rule:evenodd;clip-rule:evenodd;fill:#008E3C;}
	.st3{fill-rule:evenodd;clip-rule:evenodd;fill:#A34B31;}
	.st4{fill-rule:evenodd;clip-rule:evenodd;fill:#7F4007;}
</style>
<g>
	<path class="st0" d="M49.6,25.8L49.6,25.8L49.6,25.8L49.6,25.8z M44.3,29.9c-1.8,0-0.6-4-0.3-4.9c0.3-1,1.3-2.9,2-3.5
		c0.9-0.7,1.9-0.7,3-0.5c0.2,0,1.3,0.3,1.5,0.4l-0.4,1.9l-0.6,1.2c-0.2,0.4-0.8,1.4-1.1,1.7l-1.2,1.5l-1.1,1.2
		C45.8,29.3,44.8,29.9,44.3,29.9L44.3,29.9z M49.6,25.8c0,0.2-0.3,1.4-0.3,1.7c-0.1,0.6-0.2,1.1-0.3,1.7c-0.2,1.1,0.1,2.4,1.4,2.4
		c1.3,0,2.4-0.8,3.2-1.5c0.3-0.2,0.4-0.3,0.6-0.6c0.1-0.1,0.4-0.5,0.4-0.6c0-0.1,0.1-0.8,0.1-0.9l-0.7,0.7c0,0,0,0,0,0c0,0,0,0,0,0
		c-0.4,0.3-0.7,0.6-1.1,1c-0.4,0.3-1.2,0.8-1.6,0.5c-0.5-0.3-0.2-1.5-0.1-1.9c0.1-0.3,0.1-0.6,0.2-1c0.3-1.6,0.7-3.2,1-4.8l0.6-2.9
		c-0.3,0-0.6-0.1-0.8-0.1c-1.2-0.1-2.5-0.1-3.7,0.1c-0.7,0.1-1.3,0.3-1.9,0.5c-0.4,0.2-1,0.5-1.3,0.8l-0.5,0.4
		c-0.5,0.4-1.2,1-1.5,1.5c-1,1.3-1.6,2.4-2,4c-0.3,1.2-0.3,2.9,0.5,3.9c0.9,1.2,2.3,0.8,3.4,0.1c0.3-0.2,0.6-0.4,0.9-0.6
		c0.1,0,0.1-0.1,0.2-0.1c0.4-0.3,0.6-0.6,0.9-0.9l0.6-0.6c0.5-0.6,1.4-1.9,1.8-2.7C49.5,25.9,49.5,25.9,49.6,25.8L49.6,25.8z"/>
	<path class="st0" d="M21,17.2l-1.9,0V16l2.1,0c0-0.2,0.1-0.5,0.1-0.6c0.3-1.6,0.3-2.7,1.4-4c0.8-1,2.1-1.3,3.3-0.9
		c0.2,0.1,0.4,0.1,0.6,0.2l0.5,0.3l1.6-1.6c-0.2,0-0.4-0.1-0.6-0.1c-1.9-0.1-3.6,0-5.3,1.1c-1.9,1.1-3.3,3.2-3.7,5.4
		c-0.1,0.5,0,0.4-0.3,0.4l-2.6,0c-0.1,0-0.1,0-0.1,0.2l0,1h2.7c0,0.2-0.2,1.1-0.2,1.3c-0.1,0.4-0.2,0.9-0.2,1.3
		c-0.3,1.7-0.6,3.5-0.9,5.2c-0.1,0.4-0.2,0.9-0.2,1.3c-0.1,0.4-0.2,0.9-0.2,1.3c-0.4,2.3-0.7,5.5-3.3,5.9c-1.1,0.1-1.8-0.1-2.7-0.4
		l-0.3,0.4c-0.1,0.1-0.2,0.3-0.3,0.4l-0.6,0.7c-0.1,0.1-0.1,0.1-0.1,0.2c1.4,0,2.8,0.2,4.1-0.3c0.1,0,0.2-0.1,0.3-0.1
		c0.7-0.3,1.2-0.6,1.7-1l0.5-0.4c0.1-0.2,0.4-0.4,0.6-0.8c0.1-0.2,0.2-0.4,0.4-0.5c0.1-0.2,0.2-0.4,0.3-0.6c1-1.8,1.6-4.2,2-6.2
		c0.1-0.5,0.2-1,0.3-1.5c0.3-1.5,0.6-3.1,0.9-4.6L21,17.2L21,17.2z"/>
	<path class="st1" d="M21,17.2l43.8,0l0.5-1.2l-8,0l-0.4,0c-0.3,0-17.7,0-17.8,0c-5.6,0-11.1,0-16.7,0c-0.3,0-0.9,0-1.1,0l-2.1,0
		v1.1L21,17.2L21,17.2z"/>
	<path class="st1" d="M57.5,20.6c0.4,0,0.7,0,1,0.3c0.5,0.5,0.2,1.4,0.1,1.9c-0.1,0.4-0.1,0.8-0.2,1.1l-0.6,3.4
		c-0.1,0.6-0.6,3-0.6,3.5c0,0.7,0,1.3,0.5,1.8c0.5,0.5,0.8,0.6,1.5,0.6c0.9,0,2.1-0.6,2.8-1.1l1.6-1.3c0-0.1,0-0.8,0-1
		c-0.1,0-0.3,0.2-0.4,0.4c-0.5,0.4-0.7,0.6-1.4,1c-0.4,0.2-1.3,0.7-1.7,0.2c-0.4-0.5-0.2-1.3-0.1-1.8l2.3-11.6
		c-0.1,0.1-0.4,0.1-0.5,0.2c-0.9,0.3-1.9,0.6-2.8,0.9l-2.8,0.9c-0.3,0.1-0.5,0.1-0.5,0.3c-0.1,0.8-0.1,0.7,0.2,0.7
		c0.1,0,0.2-0.1,0.3-0.1C56.6,20.8,57.3,20.6,57.5,20.6L57.5,20.6z"/>
	<path class="st0" d="M32.8,22.9c0,0.9,0.3,1.6,0.8,2.1l1.6,1.8c0.3,0.3,0.5,0.5,0.7,1c0.5,1.1,0.3,2.3-1,2.6c-0.3,0.1-0.5,0-0.8,0
		c-0.4,0-1-0.2-1.4-0.4c-0.6-0.2-0.7-0.4-1.2-0.6c-0.1,0.1-0.7,0.8-0.9,0.9L30,30.9c0.2,0.1,1.1,0.4,1.4,0.4c1.8,0.4,3.5,0.3,5-0.8
		c0.3-0.2,0.8-0.7,1-1.1c0.1-0.2,0.2-0.4,0.3-0.7c0.3-0.9,0.1-1.9-0.5-2.7l-1.8-2.2c-0.2-0.3-0.6-0.6-0.7-0.9
		c-0.2-0.4-0.3-0.7-0.3-1.3c0.1-0.9,1.1-1.4,1.9-1.4c0.4,0,0.6,0,1,0.1c0.5,0.2,1,0.6,1,1.2c0,0.5,0,0.4-0.1,0.6H39
		c0.1-0.1,0.2-1,0.3-1.2l0.3-1.2c-0.3-0.1-0.4-0.2-1-0.3c-1.2-0.2-2.3-0.1-3.4,0.4c-0.4,0.2-0.9,0.5-1.2,0.8L33.7,21
		C33.2,21.5,32.8,22.1,32.8,22.9L32.8,22.9z"/>
	<path class="st0" d="M23,23c0,0.6,0.2,1.3,0.6,1.7l1.3,1.5c0.1,0.1,0.1,0.1,0.1,0.1l0.7,0.8c0.3,0.3,0.7,1,0.7,1.6
		c0,0.5-0.1,1-0.5,1.3c-1,0.8-2.5,0.3-3.6-0.2c-0.1-0.1-0.2-0.1-0.3-0.2c-0.1-0.1-0.2-0.1-0.3-0.2l-1.1,1.1
		c-0.1,0.2-0.3,0.3-0.3,0.4c0.1,0,0.2,0.1,0.3,0.1c0.1,0,0.2,0.1,0.3,0.1c1.8,0.6,4.2,0.6,5.7-0.5c0.4-0.3,0.7-0.6,1-1
		c0.8-1.1,0.7-2.4-0.1-3.5l-2.3-2.8C25,23.1,25,23,24.9,22.9c-0.2-0.4-0.3-0.6-0.3-1c0-2,3.9-2.2,3.9-0.1c0,0.2-0.1,0.3-0.1,0.5
		c0.8,0,0.7,0.1,0.8-0.2c0-0.1,0-0.2,0.1-0.3c0.1-0.3,0.4-1.7,0.4-1.8c-0.6-0.3-1.5-0.4-2.3-0.4c-1.2,0-2.7,0.6-3.3,1.2
		c-0.1,0.1-0.2,0.1-0.3,0.2c-0.1,0.1-0.1,0.1-0.1,0.1c-0.4,0.5-0.7,0.9-0.8,1.5C23,22.6,23,22.9,23,23L23,23z"/>
	<path class="st2" d="M59,15c-0.2,0.2-0.6,0.5-0.9,0.6c-0.2,0.1-0.7,0.2-0.9,0.2c-0.1,0-0.2,0-0.4,0c0,0.1,0,0.1,0,0.2l0.4,0
		c0.1,0,0.9-0.1,1.6-0.6c0.4-0.3,0.1-0.2,0.6-0.3c0.2,0,0.2,0,0.4-0.1c2.3-0.5,3.2-3.5,3.2-5.6l0-0.8c0-0.2,0-0.6,0-0.9h-0.1
		c0,0.4-0.7,1.4-0.9,1.7C60.7,11.1,58.5,12.7,59,15L59,15z"/>
	<path class="st4" d="M57.5,13.2c0.6,0,1,0.5,1,1c0,0.6-0.5,1-1,1c-0.6,0-1-0.5-1-1C56.5,13.6,56.9,13.2,57.5,13.2L57.5,13.2z"/>
	<path class="st2" d="M61.5,34.1l-0.6,1.1H9.6V35c2.7,0.2,4.4-0.2,5.6-0.9L61.5,34.1L61.5,34.1z"/>
</g>
</svg>
