<?xml version="1.0" encoding="utf-8"?>
<!-- Generator: Adobe Illustrator 28.0.0, SVG Export Plug-In . SVG Version: 6.00 Build 0)  -->
<svg version="1.1" id="Layer_1" xmlns="http://www.w3.org/2000/svg" xmlns:xlink="http://www.w3.org/1999/xlink" x="0px" y="0px"
	 viewBox="0 0 109.5 109.5" style="enable-background:new 0 0 109.5 109.5;" xml:space="preserve">
<style type="text/css">
	.st0{fill:#E7BC70;}
	.st1{fill:#1F4F6F;}
</style>
<g>
	<path class="st0" d="M16.5,57.9C15.4,42,29.4,31.5,43.5,26.6c1.9-0.5,3.9-0.9,5.9-1.1"/>
	<path class="st0" d="M49.4,25.5c2.2-0.4,4.3-0.6,6.3-0.5c10.3,0.4,19.3,6.6,25.8,14.9c1.5,2,2.9,4.1,4.2,6.3
		c10.2,16.4,12.4,47.6-10.1,51.4c-7.4,1.2-14.5-0.1-21.4-2.8c-2.3-0.9-4.5-2-6.8-3.2c-13.5-7.9-29.9-16.9-31-33.6"/>
	<polygon class="st1" points="22.8,83.3 30.3,83.3 30.3,77.2 39.1,77.2 39.1,73.4 22.8,73.4 	"/>
	<polygon class="st1" points="71.1,73.4 71.1,77.2 80,77.2 80,83.3 87.4,83.3 87.4,73.4 	"/>
	<path class="st1" d="M45.1,78.7c-0.9-1.4-2.2-2.6-3.4-3.8c0.1,1.8,0.2,3.6,0.8,5.4c0.3,0.8,0.6,1.5,1.3,2c0.4,0.4,0.9,0.6,1.5,0.3
		c0.7-0.3,0.8-0.6,0.8-1.4C46,80.3,45.6,79.5,45.1,78.7"/>
	<path class="st1" d="M64.6,79.8c-0.2,0.5-0.3,1.1-0.3,1.7c-0.1,0.6,0.3,1,0.8,1.2c0.5,0.2,1,0.1,1.3-0.3c0.4-0.4,0.7-0.8,1-1.3
		c1-1.9,1-4.1,1.2-6.2C67,76.4,65.4,77.8,64.6,79.8"/>
	<path class="st1" d="M48,72.5c-0.1,0.7-0.3,1.4-0.3,2.2c-0.1,1.5-0.3,3.1-0.3,4.7c0,1.1,0.3,2.2,1,3.1c0.4,0.5,0.8,0.8,1.5,0.7
		c0.8-0.1,1.3-0.5,1.4-1.2c0.1-0.8,0.2-1.6,0.1-2.3C50.9,76.8,49.4,74.7,48,72.5"/>
	<path class="st1" d="M61.9,72.5c-1,1.8-2,3.7-2.8,5.5c-0.5,1.2-0.7,2.5-0.3,3.8c0.2,0.8,0.7,1.1,1.5,1.2c0.7,0.1,1.2-0.2,1.4-0.7
		c0.4-0.7,0.8-1.5,0.9-2.3c0.5-2.6-0.1-5.1-0.5-7.6C61.9,72.5,61.9,72.5,61.9,72.5"/>
	<path class="st1" d="M54.9,71.4c-0.6,2.1-1.2,4.2-1.6,6.4c-0.3,1.4-0.1,2.7,0.5,4c0.4,0.7,1,1,1.8,0.9c0.7-0.1,1.2-0.4,1.3-1
		c0.2-0.8,0.5-1.7,0.4-2.6c-0.1-2.8-1.3-5.3-2.3-7.8C54.9,71.4,54.9,71.4,54.9,71.4"/>
	<path class="st1" d="M37.7,64.9c6,3.7,22.2,8.5,34.5-0.2c3.4-2.4,6.4-5.1,7.8-9.2c1.4-3.9,0.8-7.3-2.1-10.3c-1.8-1.9-3.8-3.5-5.9-5
		c-1.1-0.7-2.1-1.5-3.2-2.2c1.3-2.3,2.6-4.5,3.8-6.8c0.6-1.1,0.3-2.2-0.8-2.7c-0.5-0.3-1.2-0.4-1.8-0.4c-10.2,0-20.3,0-30.5,0
		c-0.1,0-0.3,0-0.4,0c-2.2,0.1-3.1,1.6-2,3.5c1.2,2.1,2.4,4.3,3.6,6.4c-0.2,0.2-0.4,0.3-0.6,0.4c-2.4,1.8-4.9,3.6-7.3,5.5
		c-1.7,1.4-3.1,3.1-3.8,5.3c-0.8,2.6-0.2,5.2,0.9,7.6C31.7,60.4,34.5,62.9,37.7,64.9"/>
	<path class="st1" d="M44.7,23.4c0,0.7,0.3,1.1,0.9,1.1c0.6,0,1-0.4,1-1.1c0-2.5,0-5,0-7.4c0-0.7-0.4-1.1-1-1.1
		c-0.6,0-0.9,0.4-0.9,1.1c0,1.2,0,2.5,0,3.7C44.7,20.9,44.7,22.2,44.7,23.4"/>
	<path class="st1" d="M49.3,21.1c0.6,0,1-0.4,1-1.1c0-1.2,0-2.5,0-3.7c0-1.2,0-2.5,0-3.7c0-0.3-0.1-0.6-0.3-0.8
		c-0.3-0.3-0.6-0.3-1-0.2c-0.4,0.2-0.6,0.5-0.6,1c0,2.5,0,5,0,7.5C48.4,20.7,48.8,21.1,49.3,21.1"/>
	<path class="st1" d="M52.2,21.9c0,0.7,0.3,1.1,0.9,1.1c0.6,0,1-0.4,1-1.1c0-2.5,0-5,0-7.4c0-0.7-0.4-1.1-1-1.1
		c-0.6,0-0.9,0.4-0.9,1.1c0,1.2,0,2.5,0,3.7C52.2,19.4,52.2,20.6,52.2,21.9"/>
</g>
</svg>
